<?xml version="1.0" encoding="UTF-8"?>
<svg id="Layer_2" data-name="Layer 2" xmlns="http://www.w3.org/2000/svg" xmlns:xlink="http://www.w3.org/1999/xlink" viewBox="0 0 160.88 282.89">
  <defs>
    <style>
      .cls-1 {
        fill: url(#linear-gradient-2);
      }

      .cls-2 {
        fill: url(#linear-gradient-15);
      }

      .cls-3 {
        fill: url(#linear-gradient-14);
      }

      .cls-4 {
        fill: url(#linear-gradient-6);
      }

      .cls-5 {
        fill: url(#linear-gradient-11);
      }

      .cls-6 {
        fill: url(#linear-gradient-10);
      }

      .cls-7 {
        fill: url(#linear-gradient-16);
      }

      .cls-8 {
        fill: url(#linear-gradient-5);
      }

      .cls-9 {
        fill: url(#linear-gradient-7);
      }

      .cls-10 {
        fill: url(#linear-gradient-9);
      }

      .cls-11 {
        fill: url(#linear-gradient-3);
      }

      .cls-12 {
        fill: url(#linear-gradient);
      }

      .cls-13 {
        fill: url(#linear-gradient-4);
      }

      .cls-14 {
        fill: url(#linear-gradient-8);
      }

      .cls-15 {
        fill: url(#linear-gradient-12);
      }

      .cls-16 {
        fill: url(#linear-gradient-13);
      }
    </style>
    <linearGradient id="linear-gradient" x1="-.07" y1="59.46" x2=".08" y2="59.39" gradientUnits="userSpaceOnUse">
      <stop offset=".04" stop-color="#ae872e"/>
      <stop offset=".54" stop-color="#af882f"/>
      <stop offset=".72" stop-color="#b48f34"/>
      <stop offset=".85" stop-color="#bc9b3e"/>
      <stop offset=".95" stop-color="#c9ac4b"/>
      <stop offset="1" stop-color="#d1b754"/>
    </linearGradient>
    <linearGradient id="linear-gradient-2" x1="19.22" y1="14.1" x2="41.93" y2="3.79" xlink:href="#linear-gradient"/>
    <linearGradient id="linear-gradient-3" x1="84.12" y1="7.4" x2="88.24" y2="5.53" xlink:href="#linear-gradient"/>
    <linearGradient id="linear-gradient-4" x1="89.69" y1="8.72" x2="90.56" y2="8.33" xlink:href="#linear-gradient"/>
    <linearGradient id="linear-gradient-5" x1="81.86" y1="4.76" x2="82.74" y2="4.36" xlink:href="#linear-gradient"/>
    <linearGradient id="linear-gradient-6" x1="-21.78" y1="160.8" x2="138.3" y2="88.12" xlink:href="#linear-gradient"/>
    <linearGradient id="linear-gradient-7" x1="-6.54" y1="44.83" x2="26.16" y2="29.98" xlink:href="#linear-gradient"/>
    <linearGradient id="linear-gradient-8" x1="78.14" y1="4" x2="80.67" y2="2.86" xlink:href="#linear-gradient"/>
    <linearGradient id="linear-gradient-9" x1="160.8" y1="223.49" x2="160.95" y2="223.43" xlink:href="#linear-gradient"/>
    <linearGradient id="linear-gradient-10" x1="118.95" y1="279.09" x2="141.66" y2="268.78" xlink:href="#linear-gradient"/>
    <linearGradient id="linear-gradient-11" x1="72.64" y1="277.35" x2="76.76" y2="275.48" xlink:href="#linear-gradient"/>
    <linearGradient id="linear-gradient-12" x1="70.32" y1="274.56" x2="71.19" y2="274.16" xlink:href="#linear-gradient"/>
    <linearGradient id="linear-gradient-13" x1="78.14" y1="278.53" x2="79.02" y2="278.13" xlink:href="#linear-gradient"/>
    <linearGradient id="linear-gradient-14" x1="22.57" y1="194.77" x2="182.66" y2="122.08" xlink:href="#linear-gradient"/>
    <linearGradient id="linear-gradient-15" x1="134.72" y1="252.91" x2="167.42" y2="238.06" xlink:href="#linear-gradient"/>
    <linearGradient id="linear-gradient-16" x1="80.21" y1="280.03" x2="82.74" y2="278.88" xlink:href="#linear-gradient"/>
  </defs>
  <g id="Layer_1-2" data-name="Layer 1">
    <g>
      <g>
        <path class="cls-12" d="m0,59.61c0-.12,0-.24,0-.37,0,.12,0,.24,0,.37h0Z"/>
        <path class="cls-1" d="m19.81,15.39c6.2-5.6,13.58-9.92,21.7-12.54-5.11,1.76-13.59,5.35-21.7,12.54Z"/>
        <path class="cls-11" d="m82.96,4.84c2.22.95,4.37,2.04,6.45,3.26-2.28-1.32-4.46-2.39-6.45-3.26Z"/>
        <path class="cls-13" d="m90.84,8.95c-.47-.29-.96-.57-1.44-.85.48.27.95.56,1.44.85Z"/>
        <path class="cls-8" d="m81.64,4.28c.43.18.87.37,1.32.56-.44-.19-.87-.38-1.32-.56Z"/>
        <path class="cls-4" d="m119.36,60.04v148.76c-10.56,10.61-21.11,21.23-31.66,31.84V60.04c.03-.14.05-.29.08-.44h-.23c2.91-19.75-12.38-36.08-27.97-36.07-15.58.01-30.83,16.34-27.91,36.07h-.07c.03.15.05.29.08.44v180.6C21.13,230.03,10.57,219.41.01,208.8V60.04c0-.14,0-.29,0-.44,0-.12,0-.24,0-.37C.11,42.01,7.68,26.42,19.62,15.56c.06-.06.13-.12.19-.17,8.11-7.19,16.58-10.78,21.7-12.54.1-.03.2-.07.29-.1,5.63-1.79,11.62-2.75,17.81-2.75s12.33.99,18.02,2.82c1.22.39,2.42.82,3.6,1.29.13.05.27.1.4.16,2.71,1.12,5.87,2.63,9.2,4.67,4.77,2.91,9.89,6.9,14.55,12.37,6.65,7.79,9.6,15.34,10.47,17.71,3.2,8.68,3.6,16.31,3.5,21.02Z"/>
        <path class="cls-9" d="m19.62,15.56C7.68,26.42.11,42.01,0,59.24c-.04-4.75.48-12.01,3.5-20.21.87-2.37,3.83-9.92,10.48-17.71,1.82-2.14,3.71-4.05,5.62-5.75Z"/>
        <path class="cls-14" d="m81.24,4.11c-1.18-.47-2.38-.9-3.6-1.29-.02-.03-.04-.05-.06-.07,1.07.37,2.31.81,3.67,1.37Z"/>
      </g>
      <g>
        <path class="cls-10" d="m160.88,223.28c0,.12,0,.24,0,.37,0-.12,0-.24,0-.37h0Z"/>
        <path class="cls-6" d="m141.07,267.49c-6.2,5.6-13.58,9.92-21.7,12.54,5.11-1.76,13.59-5.35,21.7-12.54Z"/>
        <path class="cls-5" d="m77.92,278.04c-2.22-.95-4.37-2.04-6.45-3.26,2.28,1.32,4.46,2.39,6.45,3.26Z"/>
        <path class="cls-15" d="m70.04,273.93c.47.29.96.57,1.44.85-.48-.27-.95-.56-1.44-.85Z"/>
        <path class="cls-16" d="m79.24,278.61c-.43-.18-.87-.37-1.32-.56.44.19.87.38,1.32.56Z"/>
        <path class="cls-3" d="m41.52,222.84V74.08c10.56-10.61,21.11-21.23,31.66-31.84v180.6c-.03.14-.05.29-.08.44h.23c-2.91,19.75,12.38,36.08,27.97,36.07,15.58-.01,30.83-16.34,27.91-36.07h.07c-.03-.15-.05-.29-.08-.44V42.24c10.56,10.62,21.11,21.23,31.67,31.84v148.76c0,.14,0,.29,0,.44,0,.12,0,.24,0,.37-.1,17.23-7.67,32.82-19.61,43.68-.06.06-.13.12-.19.17-8.11,7.19-16.58,10.78-21.7,12.54-.1.03-.2.07-.29.1-5.63,1.79-11.62,2.75-17.81,2.75s-12.33-.99-18.02-2.82c-1.22-.39-2.42-.82-3.6-1.29-.13-.05-.27-.1-.4-.16-2.71-1.12-5.87-2.63-9.2-4.67-4.77-2.91-9.89-6.9-14.55-12.37-6.65-7.79-9.6-15.34-10.47-17.71-3.2-8.68-3.6-16.31-3.5-21.02Z"/>
        <path class="cls-2" d="m141.26,267.32c11.94-10.86,19.51-26.45,19.61-43.68.04,4.75-.48,12.01-3.5,20.21-.87,2.37-3.83,9.92-10.48,17.71-1.82,2.14-3.71,4.05-5.62,5.75Z"/>
        <path class="cls-7" d="m79.64,278.77c1.18.47,2.38.9,3.6,1.29.02.03.04.05.06.07-1.07-.37-2.31-.81-3.67-1.37Z"/>
      </g>
    </g>
  </g>
</svg>