<svg width="2559" height="1922" viewBox="0 0 2559 1922" fill="none" xmlns="http://www.w3.org/2000/svg">
<path d="M2030.95 1619.8L2220.69 1672.18L1795.31 922.404C1795.31 922.404 1760.5 833.751 1858.13 778.363C1955.75 722.976 2010.09 800.552 2010.09 800.552L2435.46 1550.33L2489.79 1359.48L2133.1 730.763C2133.1 730.763 2024.28 534.401 1793.88 665.116C1563.48 795.83 1674.25 991.085 1674.25 991.085L2030.95 1619.8Z" stroke="#D0B754" stroke-opacity="0.65"/>
<g filter="url(#filter0_f_331_92)">
<path d="M2030.47 1619.29L2220.21 1671.67L1794.83 921.895C1794.83 921.895 1760.02 833.242 1857.65 777.855C1955.28 722.467 2009.61 800.043 2009.61 800.043L2434.99 1549.82L2489.32 1358.97L2132.62 730.254C2132.62 730.254 2023.8 533.893 1793.4 664.607C1563 795.322 1673.78 990.576 1673.78 990.576L2030.47 1619.29Z" stroke="#D0B754" stroke-opacity="0.65" stroke-width="3"/>
</g>
<path d="M745.631 1728.53L1047.96 1811.99L370.163 617.293C370.163 617.293 314.696 476.032 470.255 387.777C625.815 299.522 712.394 423.132 712.394 423.132L1390.19 1617.83L1476.76 1313.74L908.399 311.931C908.399 311.931 735 -0.95392 367.88 207.328C0.758925 415.609 177.268 726.729 177.268 726.729L745.631 1728.53Z" stroke="#D0B754" stroke-opacity="0.65"/>
<g filter="url(#filter1_f_331_92)">
<path d="M744.872 1727.72L1047.2 1811.18L369.404 616.482C369.404 616.482 313.937 475.221 469.497 386.966C625.057 298.711 711.636 422.321 711.636 422.321L1389.43 1617.02L1476 1312.93L907.641 311.12C907.641 311.12 734.242 -1.76447 367.121 206.517C0.000379785 414.799 176.51 725.918 176.51 725.918L744.872 1727.72Z" stroke="#D0B754" stroke-opacity="0.65" stroke-width="3"/>
</g>
<defs>
<filter id="filter0_f_331_92" x="1637.66" y="610.219" width="861.278" height="1071.86" filterUnits="userSpaceOnUse" color-interpolation-filters="sRGB">
<feFlood flood-opacity="0" result="BackgroundImageFix"/>
<feBlend mode="normal" in="SourceGraphic" in2="BackgroundImageFix" result="shape"/>
<feGaussianBlur stdDeviation="4" result="effect1_foregroundBlur_331_92"/>
</filter>
<filter id="filter1_f_331_92" x="124.594" y="125.493" width="1361.02" height="1696.1" filterUnits="userSpaceOnUse" color-interpolation-filters="sRGB">
<feFlood flood-opacity="0" result="BackgroundImageFix"/>
<feBlend mode="normal" in="SourceGraphic" in2="BackgroundImageFix" result="shape"/>
<feGaussianBlur stdDeviation="4" result="effect1_foregroundBlur_331_92"/>
</filter>
</defs>
</svg>
