<svg width="534" height="159" viewBox="0 0 534 159" fill="none" xmlns="http://www.w3.org/2000/svg">
<path d="M358.56 8.728C363.211 8.728 366.859 9.688 369.504 11.608C372.192 13.4853 373.536 16.4293 373.536 20.44C373.536 22.872 372.981 24.984 371.872 26.776C370.763 28.568 369.205 29.976 367.2 31C365.237 32.024 362.912 32.6 360.224 32.728L359.328 29.528C362.443 29.6133 365.237 30.168 367.712 31.192C370.187 32.216 372.149 33.6453 373.6 35.48C375.051 37.3147 375.776 39.4907 375.776 42.008C375.776 44.312 375.349 46.296 374.496 47.96C373.643 49.5813 372.491 50.9253 371.04 51.992C369.589 53.016 367.947 53.784 366.112 54.296C364.277 54.7653 362.379 55 360.416 55H346.656V8.728H358.56ZM359.84 29.016C362.4 29.016 364.256 28.312 365.408 26.904C366.56 25.4533 367.136 23.704 367.136 21.656C367.136 19.224 366.389 17.4533 364.896 16.344C363.403 15.2347 361.397 14.68 358.88 14.68H352.864V29.016H359.84ZM360.096 49.24C361.803 49.24 363.36 48.984 364.768 48.472C366.219 47.96 367.349 47.1707 368.16 46.104C369.013 45.0373 369.44 43.6933 369.44 42.072C369.44 40.28 368.949 38.872 367.968 37.848C367.029 36.824 365.813 36.0987 364.32 35.672C362.827 35.2027 361.291 34.968 359.712 34.968H352.864V49.24H360.096ZM386.987 67.736L404.459 28.504H409.963L392.875 67.736H386.987ZM393.515 55.192L380.779 28.504H387.499L398.187 52.184L393.515 55.192ZM345.184 119V69.464H351.136V119H345.184ZM357.536 101.4L369.696 119H362.72L353.568 104.728L357.536 101.4ZM349.28 110.552L348.704 104.856L364.768 91.928L368.416 95.064L349.28 110.552ZM377.059 92.504H383.011V119H377.059V92.504ZM376.611 82.904C376.611 81.9653 376.974 81.176 377.699 80.536C378.467 79.896 379.299 79.576 380.195 79.576C381.091 79.576 381.88 79.896 382.563 80.536C383.288 81.176 383.651 81.9653 383.651 82.904C383.651 83.8853 383.288 84.696 382.563 85.336C381.88 85.9333 381.091 86.232 380.195 86.232C379.299 86.232 378.467 85.912 377.699 85.272C376.974 84.632 376.611 83.8427 376.611 82.904ZM398.621 92.504L399.197 100.184L398.877 99.16C399.56 97.5387 400.541 96.1733 401.821 95.064C403.144 93.912 404.509 93.0373 405.917 92.44C407.368 91.8 408.626 91.48 409.693 91.48L409.373 97.368C407.368 97.24 405.597 97.624 404.061 98.52C402.568 99.416 401.373 100.611 400.477 102.104C399.624 103.597 399.197 105.197 399.197 106.904V119H393.309V92.504H398.621ZM428.535 119.64C425.505 119.64 422.903 119.043 420.727 117.848C418.551 116.611 416.865 114.947 415.671 112.856C414.519 110.723 413.943 108.291 413.943 105.56C413.943 102.957 414.604 100.589 415.927 98.456C417.249 96.3227 419.02 94.616 421.239 93.336C423.457 92.056 425.932 91.416 428.663 91.416C432.161 91.416 435.063 92.44 437.367 94.488C439.671 96.536 441.228 99.352 442.039 102.936L420.215 110.616L418.807 107.096L436.727 100.568L435.447 101.4C434.935 99.992 434.081 98.776 432.887 97.752C431.692 96.6853 430.135 96.152 428.215 96.152C426.593 96.152 425.143 96.5573 423.863 97.368C422.583 98.136 421.58 99.2027 420.855 100.568C420.129 101.933 419.767 103.491 419.767 105.24C419.767 107.075 420.151 108.696 420.919 110.104C421.687 111.469 422.732 112.557 424.055 113.368C425.42 114.136 426.956 114.52 428.663 114.52C429.815 114.52 430.924 114.307 431.991 113.88C433.1 113.453 434.124 112.899 435.063 112.216L437.815 116.632C436.492 117.528 434.999 118.253 433.335 118.808C431.713 119.363 430.113 119.64 428.535 119.64ZM460.249 119.64C457.817 119.64 455.598 119.064 453.593 117.912C451.63 116.717 450.073 115.053 448.921 112.92C447.769 110.744 447.193 108.248 447.193 105.432C447.193 102.488 447.79 99.9707 448.985 97.88C450.222 95.7893 451.886 94.1893 453.977 93.08C456.067 91.9707 458.414 91.416 461.017 91.416C463.107 91.416 465.091 91.864 466.969 92.76C468.889 93.656 470.382 94.8933 471.449 96.472L471.193 98.584V69.464H477.081V119H471.129V112.408L471.769 114.072C470.531 115.693 468.931 117.037 466.969 118.104C465.006 119.128 462.766 119.64 460.249 119.64ZM462.105 114.584C463.683 114.584 465.091 114.307 466.329 113.752C467.566 113.155 468.59 112.344 469.401 111.32C470.211 110.296 470.787 109.08 471.129 107.672V102.68C470.787 101.4 470.169 100.291 469.273 99.352C468.419 98.3707 467.374 97.6027 466.137 97.048C464.942 96.4507 463.598 96.152 462.105 96.152C460.483 96.152 458.99 96.5573 457.625 97.368C456.302 98.136 455.235 99.2027 454.425 100.568C453.614 101.933 453.209 103.512 453.209 105.304C453.209 107.053 453.614 108.632 454.425 110.04C455.235 111.405 456.323 112.515 457.689 113.368C459.054 114.179 460.526 114.584 462.105 114.584ZM487.434 92.504H493.386V119H487.434V92.504ZM486.986 82.904C486.986 81.9653 487.349 81.176 488.074 80.536C488.842 79.896 489.674 79.576 490.57 79.576C491.466 79.576 492.255 79.896 492.938 80.536C493.663 81.176 494.026 81.9653 494.026 82.904C494.026 83.8853 493.663 84.696 492.938 85.336C492.255 85.9333 491.466 86.232 490.57 86.232C489.674 86.232 488.842 85.912 488.074 85.272C487.349 84.632 486.986 83.8427 486.986 82.904ZM501.38 105.496C501.38 102.851 501.999 100.461 503.236 98.328C504.516 96.1947 506.265 94.5093 508.484 93.272C510.703 92.0347 513.22 91.416 516.036 91.416C518.937 91.416 521.476 92.0347 523.652 93.272C525.828 94.5093 527.513 96.1947 528.708 98.328C529.903 100.461 530.5 102.851 530.5 105.496C530.5 108.141 529.903 110.552 528.708 112.728C527.513 114.861 525.807 116.547 523.588 117.784C521.412 119.021 518.873 119.64 515.972 119.64C513.156 119.64 510.639 119.064 508.42 117.912C506.244 116.717 504.516 115.075 503.236 112.984C501.999 110.851 501.38 108.355 501.38 105.496ZM507.332 105.56C507.332 107.267 507.716 108.824 508.484 110.232C509.252 111.597 510.276 112.685 511.556 113.496C512.879 114.307 514.329 114.712 515.908 114.712C517.572 114.712 519.044 114.307 520.324 113.496C521.647 112.685 522.671 111.597 523.396 110.232C524.121 108.824 524.484 107.267 524.484 105.56C524.484 103.853 524.121 102.317 523.396 100.952C522.671 99.544 521.647 98.4347 520.324 97.624C519.044 96.7707 517.572 96.344 515.908 96.344C514.287 96.344 512.815 96.7707 511.492 97.624C510.212 98.4773 509.188 99.608 508.42 101.016C507.695 102.381 507.332 103.896 507.332 105.56Z" fill="#231F20"/>
<path d="M13.6459 31.3759C13.6459 33.5716 14.1799 35.5308 15.2498 37.2554C16.3197 38.9801 17.7425 40.335 19.518 41.3203C21.2936 42.3055 23.2961 42.7991 25.5256 42.7991C27.755 42.7991 29.9178 42.3074 31.7391 41.3203C33.5585 40.335 34.9927 38.9801 36.0397 37.2554C37.0868 35.5308 37.6093 33.5716 37.6093 31.3759V0H44.0956V31.5767C44.0956 35.1161 43.2641 38.205 41.6029 40.8474C39.9399 43.4916 37.7104 45.5278 34.9126 46.9615C32.1129 48.3953 28.9833 49.1122 25.5237 49.1122C22.0641 49.1122 18.9459 48.3972 16.1691 46.9615C13.3922 45.5296 11.1856 43.4916 9.54549 40.8474C7.90724 38.205 7.08716 35.1142 7.08716 31.5767V0H13.6421V31.3759H13.6459Z" fill="url(#paint0_radial_590_39)"/>
<path d="M61.7121 20.7592L62.2575 27.5452L61.9848 26.4699C62.8945 24.4093 64.3745 22.7635 66.4228 21.5324C68.471 20.3013 70.8378 19.6858 73.5231 19.6858C76.2084 19.6858 78.4054 20.459 80.1123 22.0035C81.8193 23.548 82.6946 25.5541 82.7404 28.0163V48.5751H76.3228V30.2345C76.2771 28.7125 75.8327 27.4702 74.9916 26.5056C74.1487 25.5428 72.8403 25.0605 71.0667 25.0605C69.4284 25.0605 67.9485 25.5091 66.6287 26.4042C65.309 27.3013 64.2734 28.5324 63.522 30.0994C62.7705 31.6683 62.3948 33.4811 62.3948 35.5417V48.5751H56.0459V20.7592H61.7121Z" fill="url(#paint1_radial_590_39)"/>
<path d="M93.3232 10.6821C93.3232 9.69684 93.7218 8.86735 94.519 8.19551C95.3143 7.52367 96.1916 7.18774 97.1471 7.18774C98.1026 7.18774 98.957 7.52367 99.7084 8.19551C100.46 8.86735 100.836 9.69684 100.836 10.6821C100.836 11.6673 100.46 12.5531 99.7084 13.2006C98.957 13.8499 98.1045 14.1745 97.1471 14.1745C96.1897 14.1745 95.3143 13.8386 94.519 13.1668C93.7218 12.4949 93.3232 11.6673 93.3232 10.6802V10.6821ZM93.8019 20.7597H100.151V48.5737H93.8019V20.7597Z" fill="url(#paint2_radial_590_39)"/>
<path d="M122.613 49.3809L106.91 20.7599H114.42L125.072 42.8632L121.179 42.7281L130.942 20.7581H138.042L122.953 49.379H122.611L122.613 49.3809Z" fill="url(#paint3_radial_590_39)"/>
<path d="M157.297 49.2457C154.064 49.2457 151.289 48.6077 148.966 47.3315C146.645 46.0554 144.858 44.3082 143.607 42.0919C142.354 39.8756 141.731 37.3327 141.731 34.467C141.731 31.6014 142.436 29.2499 143.848 27.0092C145.259 24.7703 147.147 22.9781 149.514 21.6344C151.881 20.2907 154.52 19.6189 157.434 19.6189C161.167 19.6189 164.262 20.6942 166.72 22.843C169.179 24.9937 170.84 27.9494 171.704 31.7121L148.421 39.7742L146.918 36.0791L166.036 29.2255L164.67 30.0982C164.125 28.6194 163.213 27.3338 161.939 26.236C160.665 25.1382 159.004 24.5902 156.956 24.5902C155.226 24.5902 153.679 25.0049 152.314 25.8325C150.948 26.662 149.878 27.7917 149.104 29.2255C148.329 30.6593 147.942 32.2939 147.942 34.1292C147.942 36.0547 148.352 37.7474 149.171 39.2018C149.991 40.6581 151.116 41.7991 152.55 42.6286C153.984 43.4581 155.611 43.871 157.432 43.871C158.661 43.871 159.856 43.6476 161.016 43.1991C162.177 42.7525 163.257 42.1688 164.258 41.452L167.193 46.0873C165.782 47.0275 164.199 47.7894 162.448 48.3712C160.696 48.953 158.977 49.2438 157.293 49.2438L157.297 49.2457Z" fill="url(#paint4_radial_590_39)"/>
<path d="M185.359 20.7597L185.973 28.8218L185.632 27.7465C186.36 26.0443 187.417 24.6012 188.807 23.4132C190.196 22.2272 191.651 21.3076 193.177 20.6583C194.7 20.009 196.032 19.6843 197.17 19.6843L196.829 25.866C194.689 25.7309 192.81 26.1344 191.195 27.0746C189.58 28.0148 188.304 29.2703 187.371 30.8373C186.439 32.4062 185.971 34.0858 185.971 35.8761V48.5736H179.689V20.7597H185.355H185.359Z" fill="url(#paint5_radial_590_39)"/>
<path d="M213.282 49.1125C211.279 49.1125 209.332 48.7653 207.444 48.071C205.554 47.3766 203.996 46.3351 202.767 44.9463L205.43 41.3188C206.612 42.4391 207.831 43.278 209.082 43.8391C210.333 44.4002 211.575 44.678 212.803 44.678C213.713 44.678 214.554 44.5673 215.33 44.3421C216.104 44.1187 216.73 43.749 217.206 43.233C217.685 42.7188 217.924 42.0131 217.924 41.1161C217.924 40.1308 217.594 39.3464 216.934 38.7646C216.274 38.1829 215.431 37.7137 214.407 37.3534C213.383 36.9949 212.301 36.659 211.165 36.3456C208.844 35.5837 207.068 34.5309 205.84 33.1872C204.612 31.8435 203.996 30.2089 203.996 28.2835C203.996 26.8047 204.371 25.4291 205.123 24.1511C205.874 22.875 206.988 21.8334 208.468 21.0264C209.946 20.2195 211.779 19.8179 213.964 19.8179C215.921 19.8179 217.674 20.0525 219.222 20.5235C220.769 20.9945 222.226 21.7658 223.592 22.8412L221.065 26.7371C220.245 25.887 219.266 25.2583 218.13 24.8567C216.991 24.4532 215.967 24.2299 215.057 24.1849C214.283 24.1398 213.543 24.2524 212.837 24.5208C212.131 24.7891 211.55 25.1701 211.096 25.6637C210.64 26.1572 210.413 26.739 210.413 27.4108C210.413 28.351 210.732 29.113 211.369 29.6947C212.006 30.2765 212.837 30.7363 213.861 31.0722C214.885 31.4081 215.898 31.7553 216.899 32.1137C218.309 32.5172 219.562 33.054 220.655 33.7258C221.747 34.3976 222.623 35.2271 223.283 36.2124C223.943 37.1976 224.272 38.4287 224.272 39.9075C224.272 41.5646 223.874 43.0978 223.077 44.5091C222.28 45.9203 221.074 47.0407 219.459 47.8683C217.843 48.6959 215.782 49.1107 213.28 49.1107L213.282 49.1125Z" fill="url(#paint6_radial_590_39)"/>
<path d="M232.674 10.6821C232.674 9.69684 233.072 8.86735 233.868 8.19551C234.663 7.52367 235.54 7.18774 236.496 7.18774C237.451 7.18774 238.306 7.52367 239.055 8.19551C239.807 8.86735 240.182 9.69684 240.182 10.6821C240.182 11.6673 239.807 12.5531 239.055 13.2006C238.304 13.8499 237.451 14.1745 236.496 14.1745C235.54 14.1745 234.663 13.8386 233.868 13.1668C233.071 12.4949 232.674 11.6673 232.674 10.6802V10.6821ZM233.153 20.7597H239.501V48.5737H233.153V20.7597Z" fill="url(#paint7_radial_590_39)"/>
<path d="M253.223 8.53296H259.572V20.8945H267.355V25.7982H259.572V48.5734H253.223V25.7982H248.034V20.8945H253.223V8.53296Z" fill="url(#paint8_radial_590_39)"/>
<path d="M284.358 48.7759L270.771 20.7593H277.94L289.343 45.6175L284.36 48.7759H284.358ZM277.393 61.9445L296.031 20.7612H301.903L283.673 61.9445H277.391H277.393Z" fill="url(#paint9_radial_590_39)"/>
<path d="M31.4854 111.434C30.2743 113.728 29.0499 116.096 27.8103 118.536C29.6984 118.594 31.4625 118.999 33.1007 119.756C34.739 120.51 35.9844 121.773 36.8426 123.546C37.2564 124.389 37.4109 125.128 37.3079 125.768C37.2049 126.406 36.9837 126.872 36.6442 127.163C36.3048 127.452 35.9138 127.547 35.4713 127.446C35.0289 127.345 34.6589 126.988 34.3652 126.378C33.9513 125.449 33.5241 124.614 33.0817 123.873C32.6392 123.132 32.13 122.501 31.554 121.978C30.9781 121.454 30.3144 121.047 29.5611 120.758C28.8077 120.467 27.9304 120.292 26.9273 120.234C25.8936 122.238 24.8618 124.228 23.8281 126.202C22.7944 128.176 21.7322 130.057 20.6413 131.843C19.5485 133.63 18.4271 135.285 17.277 136.809C16.1251 138.333 14.937 139.663 13.7126 140.795C12.4882 141.928 11.2027 142.82 9.86009 143.475C8.51745 144.128 7.10806 144.469 5.63192 144.499C4.39226 144.528 3.41198 144.383 2.68726 144.064C1.96445 143.743 1.40374 143.33 1.00515 142.822C0.606551 142.313 0.349084 141.754 0.230841 141.144C0.112597 140.534 0.0401246 139.967 0.00961006 139.446C-0.0495119 138.196 0.16409 136.854 0.652323 135.416C1.13865 133.979 1.89198 132.526 2.9104 131.061C3.92882 129.593 5.17611 128.163 6.65034 126.771C8.12648 125.376 9.80097 124.113 11.6757 122.982C13.5504 121.848 15.6159 120.897 17.874 120.129C20.1321 119.36 22.5294 118.859 25.0678 118.626L25.7315 118.54C26.4982 117.117 27.2152 115.758 27.8789 114.467C28.5426 113.174 29.1701 111.919 29.7613 110.699C28.5808 111.686 27.3335 112.536 26.0214 113.247C24.7073 113.959 23.3571 114.467 21.9706 114.771C20.5821 115.075 19.1518 115.156 17.6756 115.011C16.1995 114.865 14.71 114.417 13.2052 113.66C11.5517 112.848 10.3865 111.547 9.70752 109.761C9.02857 107.974 8.74059 105.898 8.84357 103.532C8.94656 101.165 9.41191 98.5737 10.2377 95.7569C11.0635 92.94 12.1411 90.08 13.4703 87.1749C12.7914 87.1167 12.1048 87.0004 11.4125 86.8258C10.7183 86.6513 10.0317 86.5068 9.35469 86.3905C8.58801 86.2741 8.01968 85.9757 7.64969 85.4972C7.28161 85.0186 7.11187 84.51 7.14048 83.9733C7.17099 83.4366 7.42083 82.943 7.89381 82.4926C8.36678 82.0422 9.07434 81.7739 10.0184 81.6876C10.4017 81.7457 10.7851 81.9278 11.1703 82.2318C11.5536 82.5358 11.9294 82.8567 12.2993 83.1908C12.6674 83.5248 13.045 83.8382 13.4284 84.1272C13.8117 84.4181 14.2103 84.5776 14.6242 84.6058H14.7119C16.3349 81.4699 18.1791 78.4203 20.2465 75.457C22.3119 72.4957 24.4956 69.859 26.7976 67.5507C29.0995 65.2424 31.4682 63.362 33.9037 61.9094C36.3391 60.4569 38.7078 59.6593 41.0097 59.5129C42.4268 59.4266 43.6511 59.5786 44.6848 59.9708C45.7185 60.3631 46.5367 60.9298 47.1413 61.6692C47.7458 62.4105 48.1215 63.2813 48.2703 64.2834C48.4171 65.2855 48.3142 66.3684 47.9613 67.5282C47.5189 69.3879 46.6835 71.1445 45.4591 72.7997C44.2347 74.4549 42.7872 75.9806 41.1203 77.3731C39.4535 78.7675 37.6226 80.038 35.6315 81.1846C33.6386 82.3331 31.6475 83.3184 29.6545 84.146C27.6615 84.9736 25.7505 85.6417 23.9216 86.1503C22.0907 86.6588 20.483 86.9854 19.0965 87.1299C18.2402 87.2162 17.3838 87.2612 16.5294 87.2612C15.614 89.1492 14.8092 91.0296 14.1169 92.9025C13.4227 94.7754 12.8543 96.577 12.4119 98.3035C11.9694 100.032 11.6814 101.665 11.5479 103.203C11.4144 104.742 11.4602 106.137 11.6814 107.385C11.9027 108.633 12.3089 109.693 12.8982 110.566C13.4875 111.436 14.3 112.074 15.3336 112.482C17.0444 113.15 18.6902 113.367 20.2694 113.135C21.8485 112.902 23.3532 112.358 24.7855 111.502C26.2159 110.644 27.5814 109.556 28.8802 108.235C30.179 106.914 31.3881 105.491 32.5095 103.965C33.6309 102.442 34.6703 100.895 35.6315 99.3263C36.5908 97.7574 37.4472 96.3142 38.1986 94.9912C38.9519 93.67 39.608 92.5365 40.1687 91.5926C40.7294 90.6486 41.1871 90.0312 41.5418 89.7403C42.0739 89.0441 42.6194 88.4417 43.1801 87.9331C43.7408 87.4245 44.271 87.1993 44.7745 87.2575C45.3352 87.3157 45.7338 87.4827 45.9703 87.7586C46.2067 88.0344 46.3383 88.3534 46.3689 88.7175C46.3975 89.0816 46.3536 89.4513 46.2354 89.8285C46.1171 90.2057 45.9836 90.4966 45.8368 90.6993C45.7185 90.8738 45.461 91.1853 45.0624 91.6357C44.6639 92.0861 44.1985 92.6097 43.6683 93.2046C43.1362 93.7995 42.5908 94.4094 42.0301 95.0344C41.4694 95.6593 40.9678 96.2185 40.5253 96.7121C39.875 97.962 39.1159 99.2831 38.2463 100.676C37.3747 102.07 36.4097 103.464 35.3474 104.857L35.2596 105.031C33.9609 107.006 32.706 109.141 31.4968 111.434H31.4854ZM6.07438 142.58C7.52001 142.493 9.04764 141.78 10.6573 140.446C12.265 139.11 13.8747 137.389 15.4824 135.283C17.0901 133.177 18.6921 130.819 20.2865 128.204C21.8809 125.59 23.3857 122.963 24.8027 120.32C22.5599 120.553 20.4353 121.047 18.4271 121.801C16.4188 122.556 14.5593 123.456 12.8486 124.502C11.136 125.547 9.60072 126.709 8.24473 127.987C6.88683 129.265 5.73681 130.543 4.79086 131.821C3.84682 133.099 3.12972 134.332 2.6434 135.523C2.15707 136.713 1.92821 137.745 1.95682 138.616C2.01594 140.213 2.42217 141.288 3.17359 141.84C3.92692 142.392 4.89385 142.638 6.07247 142.581L6.07438 142.58ZM40.9601 61.9901C38.9233 62.281 36.8502 63.1011 34.7409 64.4523C32.6297 65.8035 30.5718 67.5094 28.5655 69.57C26.5573 71.6324 24.6406 73.9557 22.8097 76.5399C20.9788 79.1259 19.3272 81.8114 17.8511 84.5983C19.5923 84.4538 21.4289 84.1272 23.3628 83.6186C25.2947 83.1101 27.221 82.4495 29.1396 81.6369C31.0582 80.8243 32.9177 79.8803 34.718 78.805C36.5184 77.7316 38.1566 76.5549 39.6328 75.2769C41.1089 73.9989 42.3695 72.6421 43.4185 71.2045C44.4655 69.767 45.2112 68.2788 45.6537 66.74C45.7719 66.2764 45.8005 65.7378 45.7414 65.1279C45.6823 64.518 45.482 63.9512 45.1445 63.4295C44.805 62.9059 44.2958 62.5006 43.6168 62.2097C42.9379 61.9188 42.053 61.8475 40.9601 61.992V61.9901Z" fill="url(#paint10_linear_590_39)"/>
<path d="M52.6035 90.7854C52.6035 91.279 52.6626 91.6862 52.7809 92.0052C52.8991 92.3261 53.1871 92.4838 53.6448 92.4838C54.1025 92.4838 54.7738 92.2736 55.6588 91.8513C56.5437 91.431 57.7681 90.7122 59.3339 89.6951C60.1005 89.2015 60.6841 89.0926 61.0827 89.3685C61.4813 89.6444 61.7102 90.1023 61.7693 90.7403C61.8284 91.3803 61.7178 92.0991 61.4375 92.8966C61.1571 93.6961 60.7223 94.3848 60.1311 94.9666C58.8037 96.3328 57.6212 97.6465 56.5895 98.9094C55.5558 100.172 54.7223 101.327 54.0873 102.372C53.4522 103.417 53.0536 104.303 52.8915 105.029C52.7294 105.755 52.84 106.249 53.2233 106.51C53.6944 106.831 54.4782 106.814 55.5691 106.467C56.66 106.118 57.9969 105.421 59.5761 104.376C61.1552 103.331 62.9556 101.929 64.9771 100.172C66.9987 98.4159 69.1901 96.2878 71.5511 93.7899C71.7571 93.5872 72.0222 93.4409 72.3483 93.3545C72.6725 93.2682 72.9453 93.2682 73.1665 93.3545C73.3877 93.4409 73.506 93.6229 73.5212 93.8988C73.5365 94.1746 73.3362 94.5462 72.9243 95.0097C72.1557 95.8805 71.2784 96.832 70.2905 97.8641C69.3007 98.8944 68.246 99.9266 67.1246 100.957C66.0032 101.989 64.8303 102.982 63.6059 103.941C62.3815 104.9 61.1628 105.742 59.9537 106.467C58.7426 107.193 57.5564 107.758 56.3892 108.165C55.222 108.572 54.1235 108.732 53.0917 108.644C52.1172 108.557 51.3505 108.266 50.7898 107.773C50.2291 107.279 50.0517 106.487 50.2577 105.399C50.4637 104.31 51.1579 102.88 52.3384 101.109C53.5189 99.3373 55.3784 97.1454 57.9168 94.5312C58.2411 93.7768 58.4108 93.2889 58.426 93.0712C58.4413 92.8535 58.3231 92.7878 58.0713 92.876C57.8196 92.9623 57.4667 93.1519 57.009 93.4427C56.5513 93.7336 56.0192 94.017 55.4146 94.2929C54.8101 94.5687 54.1445 94.7864 53.4217 94.9459C52.6988 95.1055 51.9532 95.098 51.1865 94.9234C50.0937 94.6626 49.3632 94.2047 48.9951 93.5516C48.6252 92.8985 48.4783 92.2004 48.5527 91.461C48.6252 90.7197 48.8616 90.016 49.2602 89.3479C49.6588 88.6798 50.0937 88.1862 50.5666 87.8672C51.156 87.49 51.6518 87.5256 52.0504 87.976C52.449 88.4264 52.6321 89.3629 52.6035 90.7854Z" fill="url(#paint11_linear_590_39)"/>
<path d="M83.6347 86.0378C84.8439 85.9515 85.7956 86.0679 86.4898 86.3869C87.1821 86.7078 87.6913 87.1207 88.0174 87.6292C88.3416 88.1378 88.5342 88.6745 88.5934 89.2413C88.6525 89.808 88.6658 90.3091 88.6372 90.7445C88.5781 91.3263 88.3645 91.7466 87.9945 92.0075C87.6245 92.2683 87.2259 92.3997 86.7987 92.3997C86.3715 92.3997 85.9806 92.2909 85.6258 92.0732C85.2711 91.8555 85.0937 91.544 85.0937 91.1367C85.0937 90.904 85.1014 90.5925 85.1166 90.2003C85.1319 89.808 85.0937 89.4383 85.006 89.0893C84.9183 88.7402 84.7256 88.4794 84.43 88.3048C84.1344 88.1303 83.6614 88.1303 83.013 88.3048C81.2127 88.8284 79.5668 89.5547 78.0773 90.4836C76.5859 91.4126 75.289 92.4297 74.181 93.5332C73.0748 94.6367 72.1727 95.7552 71.4804 96.8868C70.7862 98.0203 70.3285 99.0581 70.1073 100.002C69.886 100.946 69.9146 101.73 70.195 102.354C70.4753 102.978 71.0437 103.32 71.9 103.378C72.6972 103.436 73.5592 103.307 74.4899 102.986C75.4187 102.667 76.3341 102.245 77.2343 101.723C78.1345 101.199 78.9679 100.634 79.7365 100.025C80.5032 99.4147 81.123 98.8629 81.596 98.3694C81.8611 97.7594 82.2158 97.1064 82.6583 96.4082C82.8356 96.001 83.0493 95.5525 83.301 95.0571C83.5508 94.5635 83.8464 94.1356 84.1859 93.7715C84.5254 93.4094 84.9164 93.1466 85.3588 92.9871C85.8013 92.8276 86.3029 92.8783 86.8636 93.1391C87.1573 93.2855 87.3575 93.46 87.4605 93.6627C87.5635 93.8654 87.5997 94.0699 87.5711 94.2726C87.6894 94.5635 87.6302 94.7962 87.3938 94.9689L86.9513 95.3611C86.0664 96.4646 85.1815 97.4667 84.2946 98.3675C83.7034 99.2383 83.3201 100.023 83.1427 100.721C82.9653 101.419 82.9138 102.014 82.9882 102.507C83.0607 103.001 83.2095 103.401 83.4307 103.705C83.6519 104.009 83.8808 104.178 84.1173 104.206C84.8839 104.352 85.7917 104.198 86.8407 103.748C87.8877 103.297 88.9881 102.688 90.1382 101.918C91.2901 101.149 92.4401 100.285 93.592 99.3265C94.744 98.3675 95.791 97.4536 96.735 96.5828C97.6791 95.712 98.4839 94.9557 99.1476 94.3177C99.8113 93.6796 100.233 93.3005 100.41 93.1842C100.942 92.8069 101.398 92.6756 101.783 92.7919C102.167 92.9083 102.21 93.2855 101.917 93.9254C101.768 94.2163 101.312 94.7681 100.544 95.5806C99.775 96.3932 98.8176 97.3241 97.6657 98.3694C96.5138 99.4147 95.2379 100.475 93.8361 101.55C92.4344 102.626 91.0326 103.562 89.6309 104.36C88.2291 105.159 86.8922 105.732 85.6239 106.081C84.3537 106.43 83.2781 106.385 82.3913 105.949C81.8001 105.688 81.329 105.202 80.9743 104.489C80.6195 103.778 80.4879 102.885 80.5757 101.809C79.1586 102.913 77.7416 103.755 76.3265 104.335C74.9095 104.917 73.4334 105.206 71.9 105.206C70.954 105.206 70.2026 105.105 69.6419 104.902C69.0812 104.699 68.6464 104.431 68.3355 104.097C68.0266 103.763 67.8187 103.393 67.7157 102.986C67.6127 102.579 67.5459 102.201 67.5173 101.852C67.4868 100.749 67.7157 99.5948 68.2039 98.39C68.6902 97.1852 69.3482 96.0085 70.174 94.8619C70.9998 93.7152 71.9667 92.6268 73.0729 91.5946C74.1791 90.5643 75.3386 89.6485 76.5477 88.8509C77.7569 88.0534 78.9756 87.3984 80.2 86.8898C81.4243 86.3813 82.5686 86.0998 83.6309 86.0397L83.6347 86.0378Z" fill="url(#paint12_linear_590_39)"/>
<path d="M110.817 85.2101C112.026 85.1237 113.024 85.2176 113.806 85.4934C114.588 85.7693 115.192 86.154 115.621 86.6476C116.049 87.1411 116.329 87.7004 116.463 88.3253C116.596 88.9502 116.646 89.5677 116.617 90.1776C116.586 90.7875 116.491 91.3467 116.329 91.8553C116.167 92.3639 115.997 92.7486 115.82 93.0095C115.555 93.4167 115.208 93.7282 114.779 93.9459C114.349 94.1636 113.953 94.2649 113.583 94.2499C113.213 94.2349 112.919 94.0698 112.698 93.7489C112.477 93.4298 112.454 92.9213 112.631 92.225C112.69 91.936 112.829 91.4837 113.053 90.8738C113.274 90.2639 113.4 89.6765 113.428 89.1098C113.457 88.543 113.31 88.087 112.986 87.7379C112.66 87.3889 111.983 87.3307 110.949 87.5634C109.946 87.7961 109.007 88.2108 108.138 88.8057C107.266 89.4006 106.463 90.0988 105.725 90.8963C104.987 91.6958 104.331 92.5365 103.755 93.4223C103.179 94.3081 102.685 95.1507 102.271 95.9483C101.857 96.7478 101.533 97.444 101.297 98.0389C101.06 98.6338 100.913 99.0486 100.854 99.2813C100.471 100.762 100.574 101.787 101.163 102.351C101.753 102.918 102.586 103.128 103.665 102.984C104.743 102.839 105.967 102.374 107.341 101.59C108.714 100.805 109.974 99.7898 111.126 98.54C111.746 97.8719 112.484 97.0874 113.341 96.1866C114.197 95.2877 115.097 94.3137 116.041 93.2684C116.897 90.7124 117.893 87.9913 119.03 85.1012C120.166 82.2112 121.375 79.3361 122.661 76.4761C123.944 73.6161 125.266 70.8724 126.624 68.2432C127.982 65.6159 129.302 63.3132 130.587 61.3389C131.87 59.3647 133.087 57.8033 134.239 56.6567C135.391 55.51 136.392 54.9658 137.249 55.024C138.046 55.1103 138.666 55.7146 139.108 56.8312C139.551 57.9497 139.697 59.3084 139.551 60.9036C139.345 62.9942 138.761 65.1655 137.802 67.4156C136.842 69.6676 135.677 71.8952 134.304 74.1021C132.931 76.3091 131.441 78.4447 129.832 80.5053C128.222 82.5677 126.658 84.4688 125.14 86.2122C123.62 87.9556 122.226 89.502 120.956 90.8513C119.686 92.2025 118.726 93.2403 118.078 93.9666C117.458 95.7963 116.956 97.474 116.573 98.9979C116.19 100.522 115.953 101.845 115.866 102.961C115.778 104.08 115.843 104.943 116.064 105.553C116.285 106.163 116.707 106.454 117.326 106.424C117.946 106.366 118.736 106.024 119.695 105.399C120.654 104.774 121.673 104.02 122.75 103.134C123.828 102.248 124.904 101.289 125.983 100.259C127.061 99.2287 128.041 98.2697 128.928 97.3839C129.813 96.4982 130.558 95.7362 131.163 95.0963C131.767 94.4582 132.115 94.0942 132.202 94.0078C132.851 93.3698 133.354 93.1577 133.707 93.3754C134.062 93.5931 133.972 94.1092 133.442 94.9218C133.324 95.0963 132.94 95.5542 132.29 96.2936C131.64 97.0349 130.822 97.9282 129.834 98.9735C128.844 100.019 127.738 101.122 126.513 102.284C125.289 103.446 124.063 104.521 122.838 105.508C121.614 106.495 120.441 107.308 119.319 107.948C118.198 108.586 117.239 108.907 116.442 108.907C115.734 108.907 115.179 108.768 114.782 108.492C114.384 108.216 114.088 107.882 113.897 107.49C113.705 107.098 113.571 106.692 113.499 106.27C113.424 105.85 113.373 105.493 113.344 105.202C113.257 104.592 113.306 103.721 113.499 102.588C113.69 101.454 113.993 100.12 114.407 98.5794C113.699 99.3638 112.894 100.156 111.994 100.953C111.094 101.753 110.135 102.472 109.116 103.11C108.098 103.75 107.035 104.264 105.929 104.656C104.823 105.048 103.723 105.2 102.632 105.114C101.863 105.056 101.179 104.926 100.574 104.722C99.9694 104.519 99.4678 104.192 99.0692 103.742C98.6706 103.292 98.3903 102.697 98.2282 101.955C98.0661 101.214 98.0584 100.278 98.2053 99.1461C98.3235 98.159 98.7584 96.9016 99.5117 95.3778C100.265 93.854 101.217 92.3507 102.367 90.8682C103.519 89.3875 104.823 88.102 106.284 87.0135C107.745 85.9251 109.257 85.3227 110.821 85.2063L110.817 85.2101ZM134.148 60.2054C132.908 62.1215 131.638 64.2421 130.341 66.5654C129.042 68.8888 127.766 71.3134 126.511 73.8413C125.256 76.3672 124.061 78.9233 122.926 81.5074C121.789 84.0934 120.763 86.5894 119.85 89.0009C121.797 86.794 123.767 84.4275 125.76 81.8996C127.753 79.3736 129.574 76.8533 131.228 74.3423C132.881 71.8314 134.245 69.3842 135.322 67.0027C136.4 64.6212 136.982 62.4724 137.071 60.5564C137.13 59.6575 137.1 59.0175 136.984 58.6403C136.865 58.2631 136.688 58.0736 136.451 58.0736C136.215 58.0736 135.868 58.2912 135.41 58.7266C134.952 59.162 134.531 59.6556 134.148 60.2073V60.2054Z" fill="url(#paint13_linear_590_39)"/>
<path d="M150.837 84.8179C151.398 84.7316 151.812 84.7822 152.077 84.9699C152.342 85.1594 152.519 85.4053 152.609 85.7112C152.697 86.0152 152.704 86.3436 152.632 86.6908C152.558 87.0399 152.462 87.3307 152.344 87.5616C152.048 88.0852 151.583 88.7026 150.95 89.4138C150.315 90.1251 149.651 90.8157 148.957 91.4838C148.263 92.1519 147.635 92.7543 147.075 93.291C146.514 93.8296 146.174 94.1843 146.056 94.3588C144.668 96.5658 143.703 98.3167 143.157 99.6079C142.61 100.901 142.389 101.83 142.494 102.397C142.597 102.963 142.959 103.217 143.579 103.158C144.199 103.1 144.973 102.839 145.904 102.374C146.832 101.911 147.866 101.278 149.003 100.479C150.139 99.681 151.266 98.8234 152.39 97.9076C153.511 96.9937 154.573 96.0704 155.577 95.1414C156.58 94.2125 157.406 93.3698 158.056 92.6154C158.233 92.4409 158.447 92.3621 158.699 92.3752C158.949 92.3902 159.177 92.469 159.385 92.6154C159.591 92.7618 159.74 92.942 159.828 93.1597C159.915 93.3773 159.872 93.5744 159.694 93.747C158.041 95.5186 156.366 97.1232 154.669 98.5607C152.971 99.9982 151.341 101.203 149.777 102.177C148.213 103.151 146.773 103.875 145.461 104.356C144.147 104.834 143.062 105.016 142.207 104.9C141.351 104.784 140.783 104.341 140.502 103.571C140.222 102.802 140.317 101.663 140.79 100.152C140.052 100.937 139.291 101.698 138.509 102.44C137.728 103.181 136.974 103.842 136.251 104.421C135.529 105.003 134.834 105.474 134.171 105.836C133.507 106.201 132.908 106.411 132.378 106.469C131.257 106.615 130.423 106.527 129.876 106.208C129.328 105.889 128.983 105.41 128.834 104.771C128.688 104.132 128.716 103.384 128.922 102.528C129.128 101.672 129.424 100.771 129.807 99.8274C130.19 98.8835 130.641 97.932 131.157 96.9749C131.674 96.0159 132.168 95.1301 132.641 94.3175C133.112 93.505 133.541 92.7937 133.925 92.1838C134.308 91.5739 134.56 91.1535 134.678 90.9208C135.061 90.1364 135.475 89.3819 135.918 88.6557C136.36 87.9294 136.818 87.2988 137.291 86.7602C137.762 86.2235 138.258 85.8088 138.775 85.5179C139.291 85.2289 139.814 85.1407 140.346 85.257C140.729 85.3434 140.958 85.5779 141.033 85.9533C141.105 86.3305 141.061 86.7659 140.899 87.2594C140.737 87.753 140.493 88.2541 140.169 88.7626C139.843 89.2712 139.505 89.6841 139.15 90.005C138.59 90.4985 137.991 91.131 137.358 91.9004C136.722 92.6698 136.095 93.505 135.475 94.4058C134.855 95.3065 134.251 96.2205 133.66 97.1494C133.068 98.0784 132.553 98.9567 132.111 99.7843C131.669 100.612 131.321 101.338 131.07 101.963C130.818 102.588 130.694 103.031 130.694 103.292C130.723 104.104 130.944 104.577 131.358 104.707C131.771 104.838 132.258 104.793 132.819 104.575C133.379 104.358 133.948 104.046 134.524 103.639C135.099 103.232 135.565 102.898 135.918 102.637C136.684 102.057 137.525 101.242 138.441 100.197C139.354 99.1518 140.256 98.0784 141.141 96.973C142.026 95.8695 142.831 94.8318 143.554 93.8578C144.277 92.8857 144.816 92.18 145.169 91.7446C145.347 91.4556 145.53 91.1723 145.722 90.8945C145.913 90.6187 146.127 90.3221 146.365 90.0012C146.808 89.3632 147.221 88.7382 147.605 88.1283C147.988 87.5184 148.358 86.9817 148.711 86.5163C149.066 86.0527 149.418 85.6661 149.773 85.3621C150.128 85.0581 150.481 84.8761 150.835 84.8179H150.837Z" fill="url(#paint14_linear_590_39)"/>
<path d="M170.624 86.0378C171.833 85.9515 172.785 86.0679 173.479 86.3869C174.172 86.7078 174.681 87.1207 175.007 87.6292C175.331 88.1378 175.524 88.6745 175.583 89.2413C175.642 89.808 175.655 90.3091 175.627 90.7445C175.568 91.3263 175.354 91.7466 174.984 92.0075C174.614 92.2683 174.215 92.3997 173.788 92.3997C173.361 92.3997 172.97 92.2909 172.615 92.0732C172.261 91.8555 172.083 91.544 172.083 91.1367C172.083 90.904 172.091 90.5925 172.106 90.2003C172.121 89.808 172.083 89.4383 171.996 89.0893C171.908 88.7402 171.715 88.4794 171.42 88.3048C171.124 88.1303 170.651 88.1303 170.003 88.3048C168.202 88.8284 166.556 89.5547 165.067 90.4836C163.575 91.4126 162.279 92.4297 161.17 93.5332C160.064 94.6367 159.162 95.7552 158.47 96.8868C157.776 98.0203 157.318 99.0581 157.097 100.002C156.876 100.946 156.904 101.73 157.184 102.354C157.465 102.978 158.033 103.32 158.889 103.378C159.687 103.436 160.551 103.307 161.479 102.986C162.41 102.667 163.324 102.245 164.224 101.723C165.124 101.199 165.957 100.634 166.726 100.025C167.493 99.4147 168.113 98.8629 168.585 98.3694C168.851 97.7594 169.205 97.1064 169.648 96.4082C169.825 96.001 170.039 95.5525 170.29 95.0571C170.54 94.5635 170.836 94.1356 171.175 93.7715C171.515 93.4094 171.906 93.1466 172.348 92.9871C172.791 92.8276 173.292 92.8783 173.853 93.1391C174.147 93.2855 174.347 93.46 174.45 93.6627C174.553 93.8654 174.589 94.0699 174.561 94.2726C174.679 94.5635 174.62 94.7962 174.383 94.9689L173.941 95.3611C173.056 96.4646 172.169 97.4667 171.284 98.3675C170.693 99.2383 170.31 100.023 170.132 100.721C169.955 101.419 169.903 102.014 169.978 102.507C170.05 103.001 170.199 103.401 170.42 103.705C170.641 104.009 170.87 104.178 171.107 104.206C171.873 104.352 172.781 104.198 173.83 103.748C174.877 103.297 175.978 102.688 177.128 101.918C178.28 101.149 179.43 100.285 180.582 99.3265C181.733 98.3675 182.78 97.4536 183.725 96.5828C184.669 95.712 185.473 94.9557 186.137 94.3177C186.801 93.6796 187.222 93.3005 187.4 93.1842C187.932 92.8069 188.388 92.6756 188.773 92.7919C189.156 92.9083 189.2 93.2855 188.906 93.9254C188.758 94.2163 188.302 94.7681 187.533 95.5806C186.765 96.3932 185.807 97.3241 184.655 98.3694C183.503 99.4147 182.227 100.475 180.826 101.55C179.424 102.626 178.022 103.562 176.62 104.36C175.219 105.159 173.882 105.732 172.613 106.081C171.343 106.43 170.268 106.385 169.381 105.949C168.79 105.688 168.318 105.202 167.964 104.489C167.609 103.778 167.477 102.885 167.565 101.809C166.148 102.913 164.731 103.755 163.316 104.335C161.899 104.917 160.423 105.206 158.889 105.206C157.944 105.206 157.192 105.105 156.631 104.902C156.071 104.699 155.636 104.431 155.325 104.097C155.016 103.763 154.808 103.393 154.705 102.986C154.602 102.579 154.535 102.201 154.507 101.852C154.476 100.749 154.705 99.5948 155.193 98.39C155.68 97.1852 156.338 96.0085 157.164 94.8619C157.989 93.7152 158.956 92.6268 160.062 91.5946C161.169 90.5643 162.326 89.6485 163.537 88.8509C164.746 88.0534 165.965 87.3984 167.189 86.8898C168.414 86.3813 169.558 86.0998 170.62 86.0397L170.624 86.0378Z" fill="url(#paint15_linear_590_39)"/>
<path d="M232.426 63.0356C233.784 63.122 234.897 63.3997 235.769 63.8632C236.639 64.3287 237.127 64.7922 237.23 65.2576C237.333 65.723 236.986 66.1227 236.188 66.4549C235.391 66.789 234.005 66.8697 232.027 66.6951C231.585 66.667 231.119 66.5638 230.633 66.3911C230.147 66.2166 229.666 66.042 229.195 65.8675C228.722 65.693 228.295 65.5335 227.911 65.389C227.528 65.2445 227.217 65.1563 226.981 65.1281C222.671 64.7509 218.614 64.6496 214.807 64.8241C211.001 64.9986 207.472 65.3177 204.226 65.7831C202.249 68.5999 200.366 71.5913 198.581 74.7573C196.794 77.9232 195.179 81.0516 193.733 84.1443C192.288 87.237 191.048 90.1853 190.014 92.9871C188.981 95.7909 188.235 98.2361 187.779 100.327C187.321 102.417 187.188 104.067 187.38 105.272C187.571 106.477 188.17 107.008 189.173 106.861C190.148 106.745 191.223 106.353 192.406 105.685C193.586 105.017 194.795 104.211 196.035 103.267C197.275 102.324 198.492 101.314 199.687 100.24C200.883 99.167 201.959 98.1573 202.92 97.2134C203.879 96.2694 204.684 95.4643 205.333 94.7962C205.981 94.1281 206.38 93.7228 206.528 93.5764C206.765 93.3737 206.971 93.2649 207.148 93.2499C207.326 93.2348 207.48 93.2724 207.613 93.3587C207.747 93.445 207.842 93.5614 207.901 93.7078C207.961 93.8541 207.989 93.9836 207.989 94.1C207.989 94.1863 207.663 94.6161 207.015 95.3855C206.364 96.1549 205.502 97.0989 204.425 98.2174C203.347 99.3359 202.115 100.533 200.729 101.811C199.34 103.089 197.895 104.273 196.39 105.362C194.885 106.45 193.378 107.366 191.874 108.105C190.369 108.847 188.981 109.216 187.712 109.216C186.679 109.216 185.925 108.824 185.454 108.04C184.981 107.255 184.739 106.174 184.724 104.795C184.709 103.416 184.907 101.789 185.321 99.9157C185.735 98.0428 186.295 96.0161 187.003 93.8391C187.71 91.6603 188.551 89.3821 189.526 87.0006C190.501 84.6191 191.563 82.2376 192.713 79.8561C193.865 77.4747 195.066 75.1438 196.321 72.8637C197.576 70.5836 198.852 68.4423 200.151 66.438C197.937 66.8453 195.938 67.2731 194.153 67.7235C192.366 68.1739 190.825 68.5887 189.526 68.9659C188.227 69.3431 187.201 69.6621 186.45 69.9249C185.696 70.1857 185.246 70.3321 185.099 70.3602C184.508 70.4466 184.073 70.3753 183.793 70.1425C183.513 69.9098 183.372 69.619 183.372 69.2718C183.372 68.9246 183.482 68.583 183.703 68.2471C183.925 67.9131 184.257 67.6747 184.699 67.5284C184.846 67.5002 185.334 67.3613 186.16 67.1136C186.986 66.8678 188.13 66.5694 189.591 66.2203C191.052 65.8713 192.801 65.5091 194.837 65.1319C196.874 64.7547 199.176 64.3906 201.743 64.0434C202.304 63.259 202.842 62.512 203.359 61.7989C203.875 61.0877 204.398 60.4271 204.93 59.8172C205.254 59.44 205.63 59.2298 206.059 59.1847C206.486 59.1416 206.862 59.2072 207.188 59.3799C207.512 59.5544 207.741 59.8097 207.875 60.1418C208.008 60.4759 207.942 60.8024 207.676 61.1214L205.817 63.5611C209.536 63.1539 213.615 62.8855 218.057 62.756C222.499 62.6246 227.288 62.7204 232.424 63.0394L232.426 63.0356Z" fill="url(#paint16_linear_590_39)"/>
<path d="M213.034 85.8634C213.566 85.9215 213.947 86.0886 214.186 86.3644C214.422 86.6403 214.554 86.9593 214.584 87.3234C214.613 87.6875 214.577 88.0497 214.474 88.4119C214.371 88.7759 214.245 89.0593 214.098 89.262C213.949 89.4947 213.617 89.8438 213.102 90.3073C212.586 90.7727 212.033 91.2513 211.443 91.7448C210.852 92.2384 210.314 92.7113 209.828 93.1598C209.341 93.6102 209.038 93.9368 208.92 94.1394C207.061 97.0145 205.798 99.2796 205.134 100.935C204.471 102.59 204.152 103.825 204.183 104.637C204.211 105.45 204.432 105.951 204.846 106.141C205.26 106.33 205.613 106.396 205.909 106.336C206.38 106.25 207.045 105.966 207.902 105.486C208.758 105.007 209.723 104.397 210.8 103.656C211.878 102.915 213.028 102.081 214.254 101.151C215.479 100.222 216.695 99.2552 217.907 98.2531C219.116 97.2509 220.275 96.2563 221.381 95.2692C222.488 94.2821 223.47 93.3531 224.326 92.4805C224.503 92.3059 224.673 92.2346 224.835 92.2628C224.997 92.2928 225.137 92.3791 225.257 92.5236C225.375 92.67 225.44 92.8502 225.455 93.0679C225.47 93.2856 225.404 93.4976 225.257 93.7003C224.961 94.1075 224.385 94.7381 223.531 95.5957C222.674 96.4534 221.641 97.4105 220.432 98.4708C219.221 99.5311 217.916 100.627 216.514 101.761C215.113 102.894 213.718 103.939 212.33 104.896C210.942 105.855 209.645 106.661 208.434 107.314C207.223 107.967 206.204 108.338 205.378 108.425C204.493 108.541 203.784 108.351 203.254 107.858C202.722 107.364 202.413 106.595 202.323 105.55C202.235 104.765 202.316 103.866 202.567 102.849C202.817 101.832 203.143 100.794 203.542 99.7338C203.94 98.6734 204.39 97.6281 204.892 96.5979C205.394 95.5676 205.88 94.6236 206.353 93.766C206.824 92.9102 207.23 92.1915 207.57 91.6097C207.909 91.0298 208.123 90.6507 208.212 90.4762C208.359 90.1872 208.596 89.7649 208.92 89.2132C209.244 88.6615 209.612 88.1322 210.026 87.6237C210.44 87.1151 210.903 86.6797 211.42 86.3175C211.937 85.9553 212.475 85.8014 213.036 85.8596L213.034 85.8634ZM219.232 78.0658C219.469 77.8913 219.757 77.7036 220.096 77.4991C220.435 77.2964 220.783 77.1369 221.137 77.0205C221.492 76.9042 221.824 76.861 222.133 76.8892C222.442 76.9192 222.671 77.0787 222.819 77.3677C222.938 77.6886 222.863 78.1372 222.598 78.7189C222.362 79.2125 221.986 79.7567 221.469 80.3516C220.952 80.9465 220.384 81.5133 219.764 82.05C219.144 82.5886 218.509 83.0596 217.861 83.465C217.21 83.8722 216.636 84.1181 216.135 84.2063C215.811 84.2926 215.559 84.3001 215.381 84.2288C215.204 84.1575 215.073 84.0543 214.983 83.9248C214.895 83.7934 214.849 83.6564 214.849 83.51V83.161C214.909 82.9001 215.078 82.5511 215.359 82.1157C215.639 81.6803 215.986 81.2224 216.4 80.7438C216.814 80.2653 217.264 79.7849 217.75 79.3063C218.236 78.8278 218.73 78.413 219.234 78.064L219.232 78.0658Z" fill="url(#paint17_linear_590_39)"/>
<path d="M223.704 92.2664C223.763 92.2083 223.91 92.0413 224.147 91.7654C224.383 91.4895 224.671 91.1705 225.01 90.8064C225.35 90.4442 225.718 90.0726 226.117 89.6954C226.515 89.3182 226.914 89.0142 227.312 88.7815C227.711 88.5488 228.079 88.4193 228.419 88.3893C228.758 88.3611 229.031 88.5056 229.237 88.8247C229.591 89.4064 229.651 89.9506 229.414 90.4592C229.178 90.9678 228.838 91.4257 228.396 91.8311C227.953 92.2383 227.495 92.5874 227.023 92.8764C226.55 93.1672 226.241 93.3849 226.092 93.5294C224.822 94.7211 223.849 95.8884 223.17 97.0369C222.491 98.1854 222.033 99.2514 221.797 100.239C221.62 100.935 221.553 101.59 221.599 102.2C221.642 102.81 221.805 103.333 222.085 103.768C222.365 104.204 222.764 104.53 223.281 104.748C223.798 104.966 224.454 105.045 225.251 104.988C226.933 104.842 228.504 104.275 229.965 103.284C231.426 102.295 232.702 101.102 233.795 99.7037C233.646 99.7037 233.455 99.6755 233.219 99.6173C232.185 99.4146 231.352 99.0562 230.719 98.5476C230.083 98.0391 229.597 97.4629 229.258 96.823C228.918 96.183 228.71 95.5281 228.638 94.8581C228.563 94.1881 228.571 93.5632 228.661 92.9796C228.779 92.3678 229.015 91.756 229.368 91.1461C229.723 90.5343 230.179 89.975 230.741 89.4646C231.302 88.956 231.951 88.5394 232.689 88.2204C233.427 87.9013 234.222 87.7118 235.078 87.6536C235.786 87.5954 236.465 87.6686 237.115 87.8713C237.764 88.074 238.311 88.423 238.753 88.9166C239.196 89.4102 239.499 90.0576 239.661 90.8552C239.823 91.6547 239.772 92.6193 239.507 93.7528C239.448 93.9855 239.381 94.2257 239.308 94.4715C239.234 94.7192 239.139 94.9876 239.02 95.2766C238.872 95.6838 238.694 96.0986 238.488 96.519C238.282 96.9412 238.059 97.3691 237.825 97.8045C238.887 97.6881 239.985 97.4779 241.122 97.172C242.259 96.868 243.365 96.4964 244.442 96.0611C245.52 95.6257 246.531 95.1396 247.475 94.601C248.419 94.0643 249.231 93.49 249.91 92.8801C250.147 92.6774 250.376 92.5836 250.597 92.5967C250.818 92.6118 250.988 92.6981 251.106 92.8576C251.224 93.0171 251.289 93.2217 251.304 93.4675C251.32 93.7152 251.238 93.9536 251.06 94.1863C250.618 94.7962 249.872 95.4061 248.825 96.016C247.776 96.6259 246.575 97.1927 245.217 97.7144C243.859 98.238 242.421 98.6809 240.901 99.0431C239.381 99.4071 237.956 99.6305 236.629 99.7187C235.979 100.648 235.248 101.533 234.438 102.376C233.625 103.219 232.733 103.973 231.76 104.641C230.785 105.309 229.746 105.846 228.64 106.253C227.534 106.66 226.359 106.878 225.121 106.906C224.118 106.906 223.218 106.779 222.421 106.523C221.623 106.268 220.96 105.876 220.428 105.347C219.895 104.819 219.535 104.14 219.342 103.312C219.152 102.485 219.159 101.52 219.365 100.415C219.602 99.1369 220.08 97.8007 220.803 96.4064C221.526 95.012 222.493 93.6327 223.702 92.2683L223.704 92.2664ZM230.61 94.053C230.579 95.3029 230.978 96.2243 231.806 96.8192C232.631 97.4141 233.709 97.7707 235.038 97.887C235.658 96.8699 236.129 95.9128 236.455 95.012C236.72 94.2857 236.905 93.612 237.008 92.9871C237.111 92.3622 237.119 91.8179 237.031 91.3525C236.944 90.889 236.751 90.5324 236.455 90.2847C236.16 90.0389 235.748 89.93 235.216 89.9582C234.508 90.0445 233.873 90.249 233.312 90.5681C232.752 90.889 232.271 91.2587 231.874 91.6791C231.476 92.1013 231.167 92.5292 230.944 92.9646C230.721 93.4 230.612 93.764 230.612 94.053H230.61Z" fill="url(#paint18_linear_590_39)"/>
<path d="M255.887 86.3415C256.772 86.3997 257.266 86.6249 257.371 87.0171C257.474 87.4093 257.371 87.8672 257.062 88.3889C256.753 88.9125 256.317 89.4417 255.756 89.9785C255.195 90.5171 254.694 90.9449 254.251 91.264C254.015 91.4667 253.639 91.9171 253.122 92.6152C252.605 93.3114 252.052 94.1259 251.461 95.0548C250.87 95.9838 250.28 96.9503 249.691 97.9524C249.1 98.9545 248.614 99.8403 248.23 100.61C247.847 101.379 247.603 101.961 247.5 102.353C247.397 102.745 247.536 102.796 247.921 102.505C249.575 100.792 251.123 99.2229 252.569 97.8004C253.189 97.1905 253.824 96.5806 254.472 95.9706C255.121 95.3607 255.741 94.794 256.332 94.2723C256.921 93.7487 257.461 93.2926 257.947 92.9004C258.434 92.5082 258.84 92.2248 259.164 92.0503C259.812 91.6731 260.419 91.4835 260.98 91.4835C261.54 91.4835 262.034 91.6224 262.463 91.8983C262.891 92.1742 263.23 92.5664 263.482 93.075C263.732 93.5835 263.888 94.1428 263.947 94.7527C263.976 94.9554 263.896 95.4283 263.703 96.1677C263.51 96.909 263.304 97.7647 263.083 98.7387C262.862 99.7127 262.654 100.735 262.463 101.809C262.271 102.884 262.183 103.864 262.198 104.75C262.214 105.635 262.36 106.377 262.641 106.972C262.921 107.567 263.415 107.85 264.124 107.822C264.508 107.822 265.069 107.597 265.807 107.146C266.545 106.696 267.386 106.101 268.33 105.36C269.274 104.618 270.292 103.77 271.385 102.811C272.476 101.852 273.561 100.844 274.639 99.784C275.716 98.7237 276.748 97.6578 277.738 96.5824C278.726 95.509 279.605 94.4918 280.372 93.5329C280.696 93.1256 281.007 92.9154 281.302 92.9004C281.596 92.8854 281.834 92.9736 282.01 93.1613C282.187 93.3508 282.275 93.6042 282.275 93.9232C282.275 94.2422 282.141 94.5331 281.876 94.794C281.846 94.824 281.462 95.2294 280.724 96.0138C279.986 96.7982 279.058 97.7722 277.936 98.932C276.815 100.094 275.552 101.344 274.15 102.678C272.749 104.014 271.368 105.256 270.012 106.403C268.654 107.55 267.378 108.501 266.182 109.256C264.987 110.01 264.02 110.374 263.283 110.344C261.956 110.314 261.048 109.894 260.56 109.081C260.074 108.268 259.822 107.266 259.807 106.075C259.791 104.885 259.925 103.607 260.205 102.241C260.486 100.876 260.737 99.6207 260.959 98.4722C261.18 97.3256 261.268 96.3966 261.224 95.6835C261.18 94.9723 260.833 94.6589 260.182 94.7471C259.591 94.8334 258.884 95.1543 258.058 95.706C257.232 96.2578 256.36 96.9183 255.445 97.6878C254.53 98.4572 253.614 99.2848 252.701 100.171C251.785 101.056 250.944 101.899 250.177 102.697C249.409 103.496 248.745 104.177 248.184 104.744C247.624 105.311 247.24 105.665 247.033 105.812C246.706 106.015 246.413 106.116 246.148 106.116C245.882 106.116 245.638 106.05 245.417 105.921C245.196 105.791 245.019 105.624 244.885 105.42C244.752 105.217 244.671 105.012 244.641 104.81C244.582 104.346 244.692 103.699 244.973 102.871C245.253 102.044 245.621 101.143 246.079 100.171C246.537 99.1985 247.053 98.1889 247.628 97.1436C248.204 96.0983 248.741 95.1337 249.243 94.246C249.744 93.3602 250.179 92.5908 250.549 91.9377C250.917 91.2846 251.146 90.8567 251.236 90.6522C251.354 90.3031 251.575 89.8828 251.9 89.3892C252.224 88.8956 252.6 88.4171 253.029 87.9517C253.456 87.4881 253.914 87.0959 254.402 86.775C254.888 86.456 255.382 86.3115 255.886 86.3396L255.887 86.3415Z" fill="url(#paint19_linear_590_39)"/>
<path d="M285.593 85.1647C286.391 84.4103 287.127 84.003 287.808 83.9449C288.487 83.8867 289.003 84.0105 289.356 84.3146C289.711 84.6186 289.835 85.0333 289.732 85.5569C289.629 86.0805 289.192 86.5309 288.425 86.9081C286.478 87.8671 285.082 88.7679 284.241 89.6086C283.4 90.4512 282.92 91.2488 282.803 92.0051C282.685 92.7614 282.855 93.5008 283.312 94.2271C283.77 94.9533 284.308 95.7021 284.928 96.4697C285.548 97.2391 286.167 98.0536 286.787 98.9093C287.407 99.767 287.834 100.688 288.071 101.676C289.162 101.415 290.291 101.096 291.458 100.717C292.623 100.339 293.783 99.8608 294.933 99.2791C296.085 98.6992 297.235 98.0085 298.387 97.2091C299.539 96.4115 300.673 95.46 301.795 94.3566C302.06 94.0957 302.327 93.9493 302.592 93.9212C302.857 93.893 303.078 93.9287 303.256 94.03C303.433 94.1314 303.528 94.3059 303.544 94.5536C303.559 94.8013 303.433 95.0697 303.168 95.3587C302.106 96.6086 300.969 97.697 299.76 98.626C298.549 99.5549 297.303 100.362 296.018 101.043C294.734 101.726 293.42 102.306 292.078 102.787C290.735 103.265 289.429 103.665 288.16 103.984C288.16 104.1 288.13 104.305 288.073 104.594C287.777 105.785 287.327 106.793 286.722 107.621C286.118 108.448 285.445 109.124 284.708 109.646C283.97 110.169 283.204 110.567 282.407 110.843C281.609 111.119 280.864 111.314 280.171 111.43C279.477 111.547 278.88 111.611 278.379 111.626C277.877 111.641 277.553 111.648 277.404 111.648C276.725 111.648 276.128 111.532 275.611 111.299C275.094 111.066 274.66 110.79 274.305 110.471C273.95 110.151 273.677 109.811 273.487 109.447C273.296 109.083 273.199 108.786 273.199 108.554C273.199 107.217 273.523 106.187 274.173 105.461C274.824 104.735 275.716 104.183 276.851 103.806C277.988 103.428 279.323 103.137 280.858 102.935C282.391 102.732 284.045 102.471 285.817 102.15C285.403 100.902 284.872 99.8496 284.222 98.9919C283.572 98.1362 282.952 97.3574 282.363 96.6611C281.771 95.9649 281.285 95.2818 280.902 94.6137C280.518 93.9456 280.385 93.1837 280.503 92.326C280.621 91.4703 281.064 90.4738 281.831 89.3421C282.597 88.2086 283.852 86.8162 285.593 85.1609V85.1647ZM277.183 109.342C278.127 109.486 279.058 109.421 279.971 109.147C280.885 108.871 281.735 108.486 282.517 107.992C283.299 107.499 283.978 106.94 284.554 106.315C285.13 105.69 285.55 105.087 285.817 104.507C284.34 104.828 282.961 105.089 281.678 105.292C280.394 105.495 279.273 105.714 278.314 105.945C277.354 106.178 276.601 106.446 276.056 106.75C275.51 107.054 275.237 107.454 275.237 107.947C275.237 108.702 275.888 109.167 277.185 109.342H277.183Z" fill="url(#paint20_linear_590_39)"/>
<path d="M162.233 111.682C165.877 115.302 169.52 118.922 173.164 122.544C165.925 129.317 158.685 136.09 151.446 142.863L146.449 140.265L141.441 142.844L142.409 137.366L138.37 133.476L143.964 132.687L146.476 127.707C151.728 122.366 156.98 117.025 162.233 111.686V111.682Z" fill="url(#paint21_linear_590_39)"/>
<path d="M173.164 148.021C169.52 151.681 165.877 155.34 162.232 159C158.22 154.211 154.207 149.423 150.194 144.634C148.899 143.178 147.604 141.721 146.309 140.263L141.301 142.842L142.27 137.364L138.231 133.473L143.824 132.685L146.336 127.705C155.279 134.477 164.221 141.25 173.166 148.023L173.164 148.021Z" fill="url(#paint22_linear_590_39)"/>
<path d="M119.689 148.021C123.334 151.681 126.977 155.34 130.621 159C134.634 154.211 138.647 149.423 142.659 144.634C143.954 143.178 145.249 141.721 146.544 140.263L151.552 142.842L150.583 137.364L154.623 133.473L149.029 132.685L146.517 127.705C137.575 134.477 128.632 141.25 119.688 148.023L119.689 148.021Z" fill="url(#paint23_linear_590_39)"/>
<path d="M130.692 111.682C127.047 115.302 123.405 118.922 119.76 122.544C127 129.317 134.239 136.09 141.479 142.863L146.476 140.265L151.484 142.844L150.515 137.366L154.554 133.476L148.961 132.687L146.449 127.707C141.196 122.366 135.944 117.025 130.692 111.686V111.682Z" fill="url(#paint24_linear_590_39)"/>
<path d="M105.147 135.149C105.147 139.407 108.654 142.859 112.982 142.86C122.504 142.86 132.027 142.86 141.549 142.86L146.546 140.263L151.554 142.842L150.587 137.364L154.627 133.473L149.033 132.685L146.521 127.705C135.223 127.729 123.923 127.753 112.625 127.778C108.494 127.787 105.149 131.084 105.149 135.151L105.147 135.149Z" fill="url(#paint25_linear_590_39)"/>
<path d="M187.847 135.872C187.847 139.73 184.668 142.86 180.745 142.86H151.443L146.447 140.263L141.438 142.842L142.407 137.364L138.368 133.473L143.962 132.685L146.473 127.705C157.527 127.729 168.581 127.753 179.635 127.776C184.172 127.785 187.845 131.407 187.845 135.874L187.847 135.872Z" fill="url(#paint26_linear_590_39)"/>
<path d="M257.381 132.15H34.8608C33.2156 132.15 31.8818 133.463 31.8818 135.082V135.483C31.8818 137.102 33.2156 138.415 34.8608 138.415H257.381C259.026 138.415 260.36 137.102 260.36 135.483V135.082C260.36 133.463 259.026 132.15 257.381 132.15Z" fill="url(#paint27_linear_590_39)"/>
<path d="M151.445 142.861L146.449 140.264L141.44 142.842L142.407 137.362L138.368 133.474L143.962 132.686L146.473 127.703L148.964 132.695L154.556 133.506L150.501 137.379L151.445 142.861Z" fill="url(#paint28_linear_590_39)"/>
<circle cx="318.5" cy="62.5" r="8.5" fill="#231F20"/>
<defs>
<radialGradient id="paint0_radial_590_39" cx="0" cy="0" r="1" gradientUnits="userSpaceOnUse" gradientTransform="translate(-91.246 62.778) scale(367.706 361.826)">
<stop offset="0.4" stop-color="#231F20"/>
<stop offset="0.44" stop-color="#242021"/>
<stop offset="0.45" stop-color="#2B2728"/>
<stop offset="0.46" stop-color="#363334"/>
<stop offset="0.47" stop-color="#454445"/>
<stop offset="0.48" stop-color="#737575"/>
<stop offset="0.49" stop-color="#B4BBBB"/>
<stop offset="0.5" stop-color="#B4BBBB"/>
<stop offset="0.51" stop-color="#737575"/>
<stop offset="0.52" stop-color="#454445"/>
<stop offset="0.53" stop-color="#2B2728"/>
<stop offset="0.54" stop-color="#242021"/>
<stop offset="0.57" stop-color="#231F20"/>
</radialGradient>
<radialGradient id="paint1_radial_590_39" cx="0" cy="0" r="1" gradientUnits="userSpaceOnUse" gradientTransform="translate(-91.2459 62.7777) scale(367.706 361.826)">
<stop offset="0.4" stop-color="#231F20"/>
<stop offset="0.44" stop-color="#242021"/>
<stop offset="0.45" stop-color="#2B2728"/>
<stop offset="0.46" stop-color="#363334"/>
<stop offset="0.47" stop-color="#454445"/>
<stop offset="0.48" stop-color="#737575"/>
<stop offset="0.49" stop-color="#B4BBBB"/>
<stop offset="0.5" stop-color="#B4BBBB"/>
<stop offset="0.51" stop-color="#737575"/>
<stop offset="0.52" stop-color="#454445"/>
<stop offset="0.53" stop-color="#2B2728"/>
<stop offset="0.54" stop-color="#242021"/>
<stop offset="0.57" stop-color="#231F20"/>
</radialGradient>
<radialGradient id="paint2_radial_590_39" cx="0" cy="0" r="1" gradientUnits="userSpaceOnUse" gradientTransform="translate(-91.2459 62.7781) scale(367.706 361.826)">
<stop offset="0.4" stop-color="#231F20"/>
<stop offset="0.44" stop-color="#242021"/>
<stop offset="0.45" stop-color="#2B2728"/>
<stop offset="0.46" stop-color="#363334"/>
<stop offset="0.47" stop-color="#454445"/>
<stop offset="0.48" stop-color="#737575"/>
<stop offset="0.49" stop-color="#B4BBBB"/>
<stop offset="0.5" stop-color="#B4BBBB"/>
<stop offset="0.51" stop-color="#737575"/>
<stop offset="0.52" stop-color="#454445"/>
<stop offset="0.53" stop-color="#2B2728"/>
<stop offset="0.54" stop-color="#242021"/>
<stop offset="0.57" stop-color="#231F20"/>
</radialGradient>
<radialGradient id="paint3_radial_590_39" cx="0" cy="0" r="1" gradientUnits="userSpaceOnUse" gradientTransform="translate(-91.2461 62.7784) scale(367.706 361.826)">
<stop offset="0.4" stop-color="#231F20"/>
<stop offset="0.44" stop-color="#242021"/>
<stop offset="0.45" stop-color="#2B2728"/>
<stop offset="0.46" stop-color="#363334"/>
<stop offset="0.47" stop-color="#454445"/>
<stop offset="0.48" stop-color="#737575"/>
<stop offset="0.49" stop-color="#B4BBBB"/>
<stop offset="0.5" stop-color="#B4BBBB"/>
<stop offset="0.51" stop-color="#737575"/>
<stop offset="0.52" stop-color="#454445"/>
<stop offset="0.53" stop-color="#2B2728"/>
<stop offset="0.54" stop-color="#242021"/>
<stop offset="0.57" stop-color="#231F20"/>
</radialGradient>
<radialGradient id="paint4_radial_590_39" cx="0" cy="0" r="1" gradientUnits="userSpaceOnUse" gradientTransform="translate(-91.246 62.7783) scale(367.706 361.826)">
<stop offset="0.4" stop-color="#231F20"/>
<stop offset="0.44" stop-color="#242021"/>
<stop offset="0.45" stop-color="#2B2728"/>
<stop offset="0.46" stop-color="#363334"/>
<stop offset="0.47" stop-color="#454445"/>
<stop offset="0.48" stop-color="#737575"/>
<stop offset="0.49" stop-color="#B4BBBB"/>
<stop offset="0.5" stop-color="#B4BBBB"/>
<stop offset="0.51" stop-color="#737575"/>
<stop offset="0.52" stop-color="#454445"/>
<stop offset="0.53" stop-color="#2B2728"/>
<stop offset="0.54" stop-color="#242021"/>
<stop offset="0.57" stop-color="#231F20"/>
</radialGradient>
<radialGradient id="paint5_radial_590_39" cx="0" cy="0" r="1" gradientUnits="userSpaceOnUse" gradientTransform="translate(-91.2457 62.7781) scale(367.706 361.826)">
<stop offset="0.4" stop-color="#231F20"/>
<stop offset="0.44" stop-color="#242021"/>
<stop offset="0.45" stop-color="#2B2728"/>
<stop offset="0.46" stop-color="#363334"/>
<stop offset="0.47" stop-color="#454445"/>
<stop offset="0.48" stop-color="#737575"/>
<stop offset="0.49" stop-color="#B4BBBB"/>
<stop offset="0.5" stop-color="#B4BBBB"/>
<stop offset="0.51" stop-color="#737575"/>
<stop offset="0.52" stop-color="#454445"/>
<stop offset="0.53" stop-color="#2B2728"/>
<stop offset="0.54" stop-color="#242021"/>
<stop offset="0.57" stop-color="#231F20"/>
</radialGradient>
<radialGradient id="paint6_radial_590_39" cx="0" cy="0" r="1" gradientUnits="userSpaceOnUse" gradientTransform="translate(-91.2462 62.7784) scale(367.706 361.826)">
<stop offset="0.4" stop-color="#231F20"/>
<stop offset="0.44" stop-color="#242021"/>
<stop offset="0.45" stop-color="#2B2728"/>
<stop offset="0.46" stop-color="#363334"/>
<stop offset="0.47" stop-color="#454445"/>
<stop offset="0.48" stop-color="#737575"/>
<stop offset="0.49" stop-color="#B4BBBB"/>
<stop offset="0.5" stop-color="#B4BBBB"/>
<stop offset="0.51" stop-color="#737575"/>
<stop offset="0.52" stop-color="#454445"/>
<stop offset="0.53" stop-color="#2B2728"/>
<stop offset="0.54" stop-color="#242021"/>
<stop offset="0.57" stop-color="#231F20"/>
</radialGradient>
<radialGradient id="paint7_radial_590_39" cx="0" cy="0" r="1" gradientUnits="userSpaceOnUse" gradientTransform="translate(-91.2458 62.7781) scale(367.706 361.826)">
<stop offset="0.4" stop-color="#231F20"/>
<stop offset="0.44" stop-color="#242021"/>
<stop offset="0.45" stop-color="#2B2728"/>
<stop offset="0.46" stop-color="#363334"/>
<stop offset="0.47" stop-color="#454445"/>
<stop offset="0.48" stop-color="#737575"/>
<stop offset="0.49" stop-color="#B4BBBB"/>
<stop offset="0.5" stop-color="#B4BBBB"/>
<stop offset="0.51" stop-color="#737575"/>
<stop offset="0.52" stop-color="#454445"/>
<stop offset="0.53" stop-color="#2B2728"/>
<stop offset="0.54" stop-color="#242021"/>
<stop offset="0.57" stop-color="#231F20"/>
</radialGradient>
<radialGradient id="paint8_radial_590_39" cx="0" cy="0" r="1" gradientUnits="userSpaceOnUse" gradientTransform="translate(-91.246 62.7778) scale(367.706 361.826)">
<stop offset="0.4" stop-color="#231F20"/>
<stop offset="0.44" stop-color="#242021"/>
<stop offset="0.45" stop-color="#2B2728"/>
<stop offset="0.46" stop-color="#363334"/>
<stop offset="0.47" stop-color="#454445"/>
<stop offset="0.48" stop-color="#737575"/>
<stop offset="0.49" stop-color="#B4BBBB"/>
<stop offset="0.5" stop-color="#B4BBBB"/>
<stop offset="0.51" stop-color="#737575"/>
<stop offset="0.52" stop-color="#454445"/>
<stop offset="0.53" stop-color="#2B2728"/>
<stop offset="0.54" stop-color="#242021"/>
<stop offset="0.57" stop-color="#231F20"/>
</radialGradient>
<radialGradient id="paint9_radial_590_39" cx="0" cy="0" r="1" gradientUnits="userSpaceOnUse" gradientTransform="translate(-91.2461 62.7777) scale(367.706 361.826)">
<stop offset="0.4" stop-color="#231F20"/>
<stop offset="0.44" stop-color="#242021"/>
<stop offset="0.45" stop-color="#2B2728"/>
<stop offset="0.46" stop-color="#363334"/>
<stop offset="0.47" stop-color="#454445"/>
<stop offset="0.48" stop-color="#737575"/>
<stop offset="0.49" stop-color="#B4BBBB"/>
<stop offset="0.5" stop-color="#B4BBBB"/>
<stop offset="0.51" stop-color="#737575"/>
<stop offset="0.52" stop-color="#454445"/>
<stop offset="0.53" stop-color="#2B2728"/>
<stop offset="0.54" stop-color="#242021"/>
<stop offset="0.57" stop-color="#231F20"/>
</radialGradient>
<linearGradient id="paint10_linear_590_39" x1="-70.6983" y1="135.737" x2="335.981" y2="44.332" gradientUnits="userSpaceOnUse">
<stop offset="0.42" stop-color="#231F20"/>
<stop offset="0.46" stop-color="#242021"/>
<stop offset="0.47" stop-color="#2B2728"/>
<stop offset="0.48" stop-color="#363334"/>
<stop offset="0.49" stop-color="#454445"/>
<stop offset="0.5" stop-color="#737575"/>
<stop offset="0.51" stop-color="#B4BBBB"/>
<stop offset="0.52" stop-color="#B4BBBB"/>
<stop offset="0.53" stop-color="#919695"/>
<stop offset="0.54" stop-color="#5A5A5A"/>
<stop offset="0.55" stop-color="#454445"/>
<stop offset="0.56" stop-color="#363334"/>
<stop offset="0.57" stop-color="#2B2728"/>
<stop offset="0.59" stop-color="#242021"/>
<stop offset="0.64" stop-color="#231F20"/>
</linearGradient>
<linearGradient id="paint11_linear_590_39" x1="-70.6982" y1="135.737" x2="335.981" y2="44.3318" gradientUnits="userSpaceOnUse">
<stop offset="0.42" stop-color="#231F20"/>
<stop offset="0.46" stop-color="#242021"/>
<stop offset="0.47" stop-color="#2B2728"/>
<stop offset="0.48" stop-color="#363334"/>
<stop offset="0.49" stop-color="#454445"/>
<stop offset="0.5" stop-color="#737575"/>
<stop offset="0.51" stop-color="#B4BBBB"/>
<stop offset="0.52" stop-color="#B4BBBB"/>
<stop offset="0.53" stop-color="#919695"/>
<stop offset="0.54" stop-color="#5A5A5A"/>
<stop offset="0.55" stop-color="#454445"/>
<stop offset="0.56" stop-color="#363334"/>
<stop offset="0.57" stop-color="#2B2728"/>
<stop offset="0.59" stop-color="#242021"/>
<stop offset="0.64" stop-color="#231F20"/>
</linearGradient>
<linearGradient id="paint12_linear_590_39" x1="-70.6983" y1="135.737" x2="335.981" y2="44.3322" gradientUnits="userSpaceOnUse">
<stop offset="0.42" stop-color="#231F20"/>
<stop offset="0.46" stop-color="#242021"/>
<stop offset="0.47" stop-color="#2B2728"/>
<stop offset="0.48" stop-color="#363334"/>
<stop offset="0.49" stop-color="#454445"/>
<stop offset="0.5" stop-color="#737575"/>
<stop offset="0.51" stop-color="#B4BBBB"/>
<stop offset="0.52" stop-color="#B4BBBB"/>
<stop offset="0.53" stop-color="#919695"/>
<stop offset="0.54" stop-color="#5A5A5A"/>
<stop offset="0.55" stop-color="#454445"/>
<stop offset="0.56" stop-color="#363334"/>
<stop offset="0.57" stop-color="#2B2728"/>
<stop offset="0.59" stop-color="#242021"/>
<stop offset="0.64" stop-color="#231F20"/>
</linearGradient>
<linearGradient id="paint13_linear_590_39" x1="-70.6985" y1="135.737" x2="335.981" y2="44.332" gradientUnits="userSpaceOnUse">
<stop offset="0.42" stop-color="#231F20"/>
<stop offset="0.46" stop-color="#242021"/>
<stop offset="0.47" stop-color="#2B2728"/>
<stop offset="0.48" stop-color="#363334"/>
<stop offset="0.49" stop-color="#454445"/>
<stop offset="0.5" stop-color="#737575"/>
<stop offset="0.51" stop-color="#B4BBBB"/>
<stop offset="0.52" stop-color="#B4BBBB"/>
<stop offset="0.53" stop-color="#919695"/>
<stop offset="0.54" stop-color="#5A5A5A"/>
<stop offset="0.55" stop-color="#454445"/>
<stop offset="0.56" stop-color="#363334"/>
<stop offset="0.57" stop-color="#2B2728"/>
<stop offset="0.59" stop-color="#242021"/>
<stop offset="0.64" stop-color="#231F20"/>
</linearGradient>
<linearGradient id="paint14_linear_590_39" x1="-70.6983" y1="135.737" x2="335.981" y2="44.3321" gradientUnits="userSpaceOnUse">
<stop offset="0.42" stop-color="#231F20"/>
<stop offset="0.46" stop-color="#242021"/>
<stop offset="0.47" stop-color="#2B2728"/>
<stop offset="0.48" stop-color="#363334"/>
<stop offset="0.49" stop-color="#454445"/>
<stop offset="0.5" stop-color="#737575"/>
<stop offset="0.51" stop-color="#B4BBBB"/>
<stop offset="0.52" stop-color="#B4BBBB"/>
<stop offset="0.53" stop-color="#919695"/>
<stop offset="0.54" stop-color="#5A5A5A"/>
<stop offset="0.55" stop-color="#454445"/>
<stop offset="0.56" stop-color="#363334"/>
<stop offset="0.57" stop-color="#2B2728"/>
<stop offset="0.59" stop-color="#242021"/>
<stop offset="0.64" stop-color="#231F20"/>
</linearGradient>
<linearGradient id="paint15_linear_590_39" x1="-70.6982" y1="135.737" x2="335.981" y2="44.3322" gradientUnits="userSpaceOnUse">
<stop offset="0.42" stop-color="#231F20"/>
<stop offset="0.46" stop-color="#242021"/>
<stop offset="0.47" stop-color="#2B2728"/>
<stop offset="0.48" stop-color="#363334"/>
<stop offset="0.49" stop-color="#454445"/>
<stop offset="0.5" stop-color="#737575"/>
<stop offset="0.51" stop-color="#B4BBBB"/>
<stop offset="0.52" stop-color="#B4BBBB"/>
<stop offset="0.53" stop-color="#919695"/>
<stop offset="0.54" stop-color="#5A5A5A"/>
<stop offset="0.55" stop-color="#454445"/>
<stop offset="0.56" stop-color="#363334"/>
<stop offset="0.57" stop-color="#2B2728"/>
<stop offset="0.59" stop-color="#242021"/>
<stop offset="0.64" stop-color="#231F20"/>
</linearGradient>
<linearGradient id="paint16_linear_590_39" x1="-70.6984" y1="135.737" x2="335.981" y2="44.3322" gradientUnits="userSpaceOnUse">
<stop offset="0.42" stop-color="#231F20"/>
<stop offset="0.46" stop-color="#242021"/>
<stop offset="0.47" stop-color="#2B2728"/>
<stop offset="0.48" stop-color="#363334"/>
<stop offset="0.49" stop-color="#454445"/>
<stop offset="0.5" stop-color="#737575"/>
<stop offset="0.51" stop-color="#B4BBBB"/>
<stop offset="0.52" stop-color="#B4BBBB"/>
<stop offset="0.53" stop-color="#919695"/>
<stop offset="0.54" stop-color="#5A5A5A"/>
<stop offset="0.55" stop-color="#454445"/>
<stop offset="0.56" stop-color="#363334"/>
<stop offset="0.57" stop-color="#2B2728"/>
<stop offset="0.59" stop-color="#242021"/>
<stop offset="0.64" stop-color="#231F20"/>
</linearGradient>
<linearGradient id="paint17_linear_590_39" x1="-70.6983" y1="135.737" x2="335.981" y2="44.3322" gradientUnits="userSpaceOnUse">
<stop offset="0.42" stop-color="#231F20"/>
<stop offset="0.46" stop-color="#242021"/>
<stop offset="0.47" stop-color="#2B2728"/>
<stop offset="0.48" stop-color="#363334"/>
<stop offset="0.49" stop-color="#454445"/>
<stop offset="0.5" stop-color="#737575"/>
<stop offset="0.51" stop-color="#B4BBBB"/>
<stop offset="0.52" stop-color="#B4BBBB"/>
<stop offset="0.53" stop-color="#919695"/>
<stop offset="0.54" stop-color="#5A5A5A"/>
<stop offset="0.55" stop-color="#454445"/>
<stop offset="0.56" stop-color="#363334"/>
<stop offset="0.57" stop-color="#2B2728"/>
<stop offset="0.59" stop-color="#242021"/>
<stop offset="0.64" stop-color="#231F20"/>
</linearGradient>
<linearGradient id="paint18_linear_590_39" x1="-70.6984" y1="135.737" x2="335.981" y2="44.3321" gradientUnits="userSpaceOnUse">
<stop offset="0.42" stop-color="#231F20"/>
<stop offset="0.46" stop-color="#242021"/>
<stop offset="0.47" stop-color="#2B2728"/>
<stop offset="0.48" stop-color="#363334"/>
<stop offset="0.49" stop-color="#454445"/>
<stop offset="0.5" stop-color="#737575"/>
<stop offset="0.51" stop-color="#B4BBBB"/>
<stop offset="0.52" stop-color="#B4BBBB"/>
<stop offset="0.53" stop-color="#919695"/>
<stop offset="0.54" stop-color="#5A5A5A"/>
<stop offset="0.55" stop-color="#454445"/>
<stop offset="0.56" stop-color="#363334"/>
<stop offset="0.57" stop-color="#2B2728"/>
<stop offset="0.59" stop-color="#242021"/>
<stop offset="0.64" stop-color="#231F20"/>
</linearGradient>
<linearGradient id="paint19_linear_590_39" x1="-70.6983" y1="135.737" x2="335.981" y2="44.3319" gradientUnits="userSpaceOnUse">
<stop offset="0.42" stop-color="#231F20"/>
<stop offset="0.46" stop-color="#242021"/>
<stop offset="0.47" stop-color="#2B2728"/>
<stop offset="0.48" stop-color="#363334"/>
<stop offset="0.49" stop-color="#454445"/>
<stop offset="0.5" stop-color="#737575"/>
<stop offset="0.51" stop-color="#B4BBBB"/>
<stop offset="0.52" stop-color="#B4BBBB"/>
<stop offset="0.53" stop-color="#919695"/>
<stop offset="0.54" stop-color="#5A5A5A"/>
<stop offset="0.55" stop-color="#454445"/>
<stop offset="0.56" stop-color="#363334"/>
<stop offset="0.57" stop-color="#2B2728"/>
<stop offset="0.59" stop-color="#242021"/>
<stop offset="0.64" stop-color="#231F20"/>
</linearGradient>
<linearGradient id="paint20_linear_590_39" x1="-70.6984" y1="135.737" x2="335.981" y2="44.3317" gradientUnits="userSpaceOnUse">
<stop offset="0.42" stop-color="#231F20"/>
<stop offset="0.46" stop-color="#242021"/>
<stop offset="0.47" stop-color="#2B2728"/>
<stop offset="0.48" stop-color="#363334"/>
<stop offset="0.49" stop-color="#454445"/>
<stop offset="0.5" stop-color="#737575"/>
<stop offset="0.51" stop-color="#B4BBBB"/>
<stop offset="0.52" stop-color="#B4BBBB"/>
<stop offset="0.53" stop-color="#919695"/>
<stop offset="0.54" stop-color="#5A5A5A"/>
<stop offset="0.55" stop-color="#454445"/>
<stop offset="0.56" stop-color="#363334"/>
<stop offset="0.57" stop-color="#2B2728"/>
<stop offset="0.59" stop-color="#242021"/>
<stop offset="0.64" stop-color="#231F20"/>
</linearGradient>
<linearGradient id="paint21_linear_590_39" x1="139.778" y1="140.813" x2="337.316" y2="-21.1191" gradientUnits="userSpaceOnUse">
<stop offset="0.04" stop-color="#AE8625"/>
<stop offset="0.13" stop-color="#D0B754"/>
<stop offset="0.23" stop-color="#F7EF8A"/>
<stop offset="0.3" stop-color="#D2AC47"/>
<stop offset="0.45" stop-color="#D4AE49"/>
<stop offset="0.54" stop-color="#EDC967"/>
<stop offset="0.55" stop-color="#EDC967"/>
<stop offset="0.68" stop-color="#EDC967"/>
<stop offset="0.73" stop-color="#F7EF8A"/>
</linearGradient>
<linearGradient id="paint22_linear_590_39" x1="146.506" y1="149.192" x2="259.307" y2="56.7235" gradientUnits="userSpaceOnUse">
<stop offset="0.04" stop-color="#AE8625"/>
<stop offset="0.13" stop-color="#D0B754"/>
<stop offset="0.23" stop-color="#F7EF8A"/>
<stop offset="0.3" stop-color="#D2AC47"/>
<stop offset="0.45" stop-color="#D4AE49"/>
<stop offset="0.54" stop-color="#EDC967"/>
<stop offset="0.55" stop-color="#EDC967"/>
<stop offset="0.68" stop-color="#EDC967"/>
<stop offset="0.73" stop-color="#F7EF8A"/>
</linearGradient>
<linearGradient id="paint23_linear_590_39" x1="146.346" y1="149.192" x2="33.5468" y2="56.7235" gradientUnits="userSpaceOnUse">
<stop offset="0.04" stop-color="#AE8625"/>
<stop offset="0.13" stop-color="#D0B754"/>
<stop offset="0.23" stop-color="#F7EF8A"/>
<stop offset="0.3" stop-color="#D2AC47"/>
<stop offset="0.45" stop-color="#D4AE49"/>
<stop offset="0.54" stop-color="#EDC967"/>
<stop offset="0.55" stop-color="#EDC967"/>
<stop offset="0.68" stop-color="#EDC967"/>
<stop offset="0.73" stop-color="#F7EF8A"/>
</linearGradient>
<linearGradient id="paint24_linear_590_39" x1="153.147" y1="140.813" x2="-44.3913" y2="-21.1192" gradientUnits="userSpaceOnUse">
<stop offset="0.04" stop-color="#AE8625"/>
<stop offset="0.13" stop-color="#D0B754"/>
<stop offset="0.23" stop-color="#F7EF8A"/>
<stop offset="0.3" stop-color="#D2AC47"/>
<stop offset="0.45" stop-color="#D4AE49"/>
<stop offset="0.54" stop-color="#EDC967"/>
<stop offset="0.55" stop-color="#EDC967"/>
<stop offset="0.68" stop-color="#EDC967"/>
<stop offset="0.73" stop-color="#F7EF8A"/>
</linearGradient>
<linearGradient id="paint25_linear_590_39" x1="146.334" y1="149.209" x2="-77.6841" y2="-34.4312" gradientUnits="userSpaceOnUse">
<stop offset="0.04" stop-color="#AE8625"/>
<stop offset="0.13" stop-color="#D0B754"/>
<stop offset="0.23" stop-color="#F7EF8A"/>
<stop offset="0.3" stop-color="#D2AC47"/>
<stop offset="0.45" stop-color="#D4AE49"/>
<stop offset="0.54" stop-color="#EDC967"/>
<stop offset="0.55" stop-color="#EDC967"/>
<stop offset="0.68" stop-color="#EDC967"/>
<stop offset="0.73" stop-color="#F7EF8A"/>
</linearGradient>
<linearGradient id="paint26_linear_590_39" x1="146.756" y1="149.324" x2="369.211" y2="-33.0348" gradientUnits="userSpaceOnUse">
<stop offset="0.04" stop-color="#AE8625"/>
<stop offset="0.13" stop-color="#D0B754"/>
<stop offset="0.23" stop-color="#F7EF8A"/>
<stop offset="0.3" stop-color="#D2AC47"/>
<stop offset="0.45" stop-color="#D4AE49"/>
<stop offset="0.54" stop-color="#EDC967"/>
<stop offset="0.55" stop-color="#EDC967"/>
<stop offset="0.68" stop-color="#EDC967"/>
<stop offset="0.73" stop-color="#F7EF8A"/>
</linearGradient>
<linearGradient id="paint27_linear_590_39" x1="70.334" y1="195.439" x2="460.673" y2="-124.544" gradientUnits="userSpaceOnUse">
<stop offset="0.04" stop-color="#AE8625"/>
<stop offset="0.13" stop-color="#D0B754"/>
<stop offset="0.23" stop-color="#F7EF8A"/>
<stop offset="0.3" stop-color="#D2AC47"/>
<stop offset="0.45" stop-color="#D4AE49"/>
<stop offset="0.54" stop-color="#EDC967"/>
<stop offset="0.55" stop-color="#EDC967"/>
<stop offset="0.68" stop-color="#EDC967"/>
<stop offset="0.73" stop-color="#F7EF8A"/>
</linearGradient>
<linearGradient id="paint28_linear_590_39" x1="140.462" y1="141.696" x2="217.468" y2="78.5692" gradientUnits="userSpaceOnUse">
<stop offset="0.04" stop-color="#AE8625"/>
<stop offset="0.13" stop-color="#D0B754"/>
<stop offset="0.23" stop-color="#F7EF8A"/>
<stop offset="0.3" stop-color="#D2AC47"/>
<stop offset="0.45" stop-color="#D4AE49"/>
<stop offset="0.54" stop-color="#EDC967"/>
<stop offset="0.55" stop-color="#EDC967"/>
<stop offset="0.68" stop-color="#EDC967"/>
<stop offset="0.73" stop-color="#F7EF8A"/>
</linearGradient>
</defs>
</svg>
