<svg width="313" height="341" viewBox="0 0 313 341" fill="none" xmlns="http://www.w3.org/2000/svg">
<rect width="313" height="341" rx="62" fill="white"/>
<path d="M95.8121 44.39C102.012 38.79 109.392 34.47 117.512 31.85C112.402 33.61 103.922 37.2 95.8121 44.39Z" fill="url(#paint0_linear_573_24)"/>
<path d="M158.962 33.84C161.182 34.79 163.332 35.88 165.412 37.1C163.132 35.78 160.952 34.71 158.962 33.84Z" fill="url(#paint1_linear_573_24)"/>
<path d="M166.842 37.95C166.372 37.66 165.882 37.38 165.402 37.1C165.882 37.37 166.352 37.66 166.842 37.95Z" fill="url(#paint2_linear_573_24)"/>
<path d="M157.642 33.28C158.072 33.46 158.512 33.65 158.962 33.84C158.522 33.65 158.092 33.46 157.642 33.28Z" fill="url(#paint3_linear_573_24)"/>
<path d="M195.362 89.04V237.8C184.802 248.41 174.252 259.03 163.702 269.64V89.04C163.732 88.9 163.752 88.75 163.782 88.6H163.552C166.462 68.85 151.172 52.52 135.582 52.53C120.002 52.54 104.752 68.87 107.672 88.6H107.602C107.632 88.75 107.652 88.89 107.682 89.04V269.64C97.1321 259.03 86.5721 248.41 76.0121 237.8V89.04C76.0121 88.9 76.0121 88.75 76.0121 88.6C76.0121 88.48 76.0121 88.36 76.0121 88.23C76.1121 71.01 83.6821 55.42 95.6221 44.56C95.6821 44.5 95.7521 44.44 95.8121 44.39C103.922 37.2 112.392 33.61 117.512 31.85C117.612 31.82 117.712 31.78 117.802 31.75C123.432 29.96 129.422 29 135.612 29C141.802 29 147.942 29.99 153.632 31.82C154.852 32.21 156.052 32.64 157.232 33.11C157.362 33.16 157.502 33.21 157.632 33.27C160.342 34.39 163.502 35.9 166.832 37.94C171.602 40.85 176.722 44.84 181.382 50.31C188.032 58.1 190.982 65.65 191.852 68.02C195.052 76.7 195.452 84.33 195.352 89.04H195.362Z" fill="url(#paint4_linear_573_24)"/>
<path d="M95.6221 44.56C83.6821 55.42 76.1121 71.01 76.0021 88.24C75.9621 83.49 76.4821 76.23 79.5021 68.03C80.3721 65.66 83.3321 58.11 89.9821 50.32C91.8021 48.18 93.6921 46.27 95.6021 44.57L95.6221 44.56Z" fill="url(#paint5_linear_573_24)"/>
<path d="M157.242 33.11C156.062 32.64 154.862 32.21 153.642 31.82C153.622 31.79 153.602 31.77 153.582 31.75C154.652 32.12 155.892 32.56 157.252 33.12L157.242 33.11Z" fill="url(#paint6_linear_573_24)"/>
<path d="M217.072 296.49C210.872 302.09 203.492 306.41 195.372 309.03C200.482 307.27 208.962 303.68 217.072 296.49Z" fill="url(#paint7_linear_573_24)"/>
<path d="M153.922 307.04C151.702 306.09 149.552 305 147.472 303.78C149.752 305.1 151.932 306.17 153.922 307.04Z" fill="url(#paint8_linear_573_24)"/>
<path d="M146.042 302.93C146.512 303.22 147.002 303.5 147.482 303.78C147.002 303.51 146.532 303.22 146.042 302.93Z" fill="url(#paint9_linear_573_24)"/>
<path d="M155.242 307.61C154.812 307.43 154.372 307.24 153.922 307.05C154.362 307.24 154.792 307.43 155.242 307.61Z" fill="url(#paint10_linear_573_24)"/>
<path d="M117.522 251.84V103.08C128.082 92.47 138.632 81.85 149.182 71.24V251.84C149.152 251.98 149.132 252.13 149.102 252.28H149.332C146.422 272.03 161.712 288.36 177.302 288.35C192.882 288.34 208.132 272.01 205.212 252.28H205.282C205.252 252.13 205.232 251.99 205.202 251.84V71.24C215.762 81.86 226.312 92.47 236.872 103.08V251.84C236.872 251.98 236.872 252.13 236.872 252.28C236.872 252.4 236.872 252.52 236.872 252.65C236.772 269.88 229.202 285.47 217.262 296.33C217.202 296.39 217.132 296.45 217.072 296.5C208.962 303.69 200.492 307.28 195.372 309.04C195.272 309.07 195.172 309.11 195.082 309.14C189.452 310.93 183.462 311.89 177.272 311.89C171.082 311.89 164.942 310.9 159.252 309.07C158.032 308.68 156.832 308.25 155.652 307.78C155.522 307.73 155.382 307.68 155.252 307.62C152.542 306.5 149.382 304.99 146.052 302.95C141.282 300.04 136.162 296.05 131.502 290.58C124.852 282.79 121.902 275.24 121.032 272.87C117.832 264.19 117.432 256.56 117.532 251.85L117.522 251.84Z" fill="url(#paint11_linear_573_24)"/>
<path d="M217.262 296.32C229.202 285.46 236.772 269.87 236.872 252.64C236.912 257.39 236.392 264.65 233.372 272.85C232.502 275.22 229.542 282.77 222.892 290.56C221.072 292.7 219.182 294.61 217.272 296.31L217.262 296.32Z" fill="url(#paint12_linear_573_24)"/>
<path d="M155.642 307.77C156.822 308.24 158.022 308.67 159.242 309.06C159.262 309.09 159.282 309.11 159.302 309.13C158.232 308.76 156.992 308.32 155.632 307.76L155.642 307.77Z" fill="url(#paint13_linear_573_24)"/>
<defs>
<linearGradient id="paint0_linear_573_24" x1="95.2221" y1="43.1" x2="117.932" y2="32.79" gradientUnits="userSpaceOnUse">
<stop offset="0.04" stop-color="#AE872E"/>
<stop offset="0.54" stop-color="#AF882F"/>
<stop offset="0.72" stop-color="#B48F34"/>
<stop offset="0.85" stop-color="#BC9B3E"/>
<stop offset="0.95" stop-color="#C9AC4B"/>
<stop offset="1" stop-color="#D1B754"/>
</linearGradient>
<linearGradient id="paint1_linear_573_24" x1="160.122" y1="36.4" x2="164.242" y2="34.53" gradientUnits="userSpaceOnUse">
<stop offset="0.04" stop-color="#AE872E"/>
<stop offset="0.54" stop-color="#AF882F"/>
<stop offset="0.72" stop-color="#B48F34"/>
<stop offset="0.85" stop-color="#BC9B3E"/>
<stop offset="0.95" stop-color="#C9AC4B"/>
<stop offset="1" stop-color="#D1B754"/>
</linearGradient>
<linearGradient id="paint2_linear_573_24" x1="165.692" y1="37.72" x2="166.562" y2="37.33" gradientUnits="userSpaceOnUse">
<stop offset="0.04" stop-color="#AE872E"/>
<stop offset="0.54" stop-color="#AF882F"/>
<stop offset="0.72" stop-color="#B48F34"/>
<stop offset="0.85" stop-color="#BC9B3E"/>
<stop offset="0.95" stop-color="#C9AC4B"/>
<stop offset="1" stop-color="#D1B754"/>
</linearGradient>
<linearGradient id="paint3_linear_573_24" x1="157.862" y1="33.76" x2="158.742" y2="33.36" gradientUnits="userSpaceOnUse">
<stop offset="0.04" stop-color="#AE872E"/>
<stop offset="0.54" stop-color="#AF882F"/>
<stop offset="0.72" stop-color="#B48F34"/>
<stop offset="0.85" stop-color="#BC9B3E"/>
<stop offset="0.95" stop-color="#C9AC4B"/>
<stop offset="1" stop-color="#D1B754"/>
</linearGradient>
<linearGradient id="paint4_linear_573_24" x1="54.2221" y1="189.8" x2="214.302" y2="117.12" gradientUnits="userSpaceOnUse">
<stop offset="0.04" stop-color="#AE872E"/>
<stop offset="0.54" stop-color="#AF882F"/>
<stop offset="0.72" stop-color="#B48F34"/>
<stop offset="0.85" stop-color="#BC9B3E"/>
<stop offset="0.95" stop-color="#C9AC4B"/>
<stop offset="1" stop-color="#D1B754"/>
</linearGradient>
<linearGradient id="paint5_linear_573_24" x1="69.4621" y1="73.83" x2="102.162" y2="58.98" gradientUnits="userSpaceOnUse">
<stop offset="0.04" stop-color="#AE872E"/>
<stop offset="0.54" stop-color="#AF882F"/>
<stop offset="0.72" stop-color="#B48F34"/>
<stop offset="0.85" stop-color="#BC9B3E"/>
<stop offset="0.95" stop-color="#C9AC4B"/>
<stop offset="1" stop-color="#D1B754"/>
</linearGradient>
<linearGradient id="paint6_linear_573_24" x1="154.142" y1="33" x2="156.672" y2="31.86" gradientUnits="userSpaceOnUse">
<stop offset="0.04" stop-color="#AE872E"/>
<stop offset="0.54" stop-color="#AF882F"/>
<stop offset="0.72" stop-color="#B48F34"/>
<stop offset="0.85" stop-color="#BC9B3E"/>
<stop offset="0.95" stop-color="#C9AC4B"/>
<stop offset="1" stop-color="#D1B754"/>
</linearGradient>
<linearGradient id="paint7_linear_573_24" x1="194.952" y1="308.09" x2="217.662" y2="297.78" gradientUnits="userSpaceOnUse">
<stop offset="0.04" stop-color="#AE872E"/>
<stop offset="0.54" stop-color="#AF882F"/>
<stop offset="0.72" stop-color="#B48F34"/>
<stop offset="0.85" stop-color="#BC9B3E"/>
<stop offset="0.95" stop-color="#C9AC4B"/>
<stop offset="1" stop-color="#D1B754"/>
</linearGradient>
<linearGradient id="paint8_linear_573_24" x1="148.642" y1="306.35" x2="152.762" y2="304.48" gradientUnits="userSpaceOnUse">
<stop offset="0.04" stop-color="#AE872E"/>
<stop offset="0.54" stop-color="#AF882F"/>
<stop offset="0.72" stop-color="#B48F34"/>
<stop offset="0.85" stop-color="#BC9B3E"/>
<stop offset="0.95" stop-color="#C9AC4B"/>
<stop offset="1" stop-color="#D1B754"/>
</linearGradient>
<linearGradient id="paint9_linear_573_24" x1="146.322" y1="303.56" x2="147.192" y2="303.16" gradientUnits="userSpaceOnUse">
<stop offset="0.04" stop-color="#AE872E"/>
<stop offset="0.54" stop-color="#AF882F"/>
<stop offset="0.72" stop-color="#B48F34"/>
<stop offset="0.85" stop-color="#BC9B3E"/>
<stop offset="0.95" stop-color="#C9AC4B"/>
<stop offset="1" stop-color="#D1B754"/>
</linearGradient>
<linearGradient id="paint10_linear_573_24" x1="154.142" y1="307.53" x2="155.022" y2="307.13" gradientUnits="userSpaceOnUse">
<stop offset="0.04" stop-color="#AE872E"/>
<stop offset="0.54" stop-color="#AF882F"/>
<stop offset="0.72" stop-color="#B48F34"/>
<stop offset="0.85" stop-color="#BC9B3E"/>
<stop offset="0.95" stop-color="#C9AC4B"/>
<stop offset="1" stop-color="#D1B754"/>
</linearGradient>
<linearGradient id="paint11_linear_573_24" x1="98.5721" y1="223.77" x2="258.662" y2="151.08" gradientUnits="userSpaceOnUse">
<stop offset="0.04" stop-color="#AE872E"/>
<stop offset="0.54" stop-color="#AF882F"/>
<stop offset="0.72" stop-color="#B48F34"/>
<stop offset="0.85" stop-color="#BC9B3E"/>
<stop offset="0.95" stop-color="#C9AC4B"/>
<stop offset="1" stop-color="#D1B754"/>
</linearGradient>
<linearGradient id="paint12_linear_573_24" x1="210.722" y1="281.91" x2="243.422" y2="267.06" gradientUnits="userSpaceOnUse">
<stop offset="0.04" stop-color="#AE872E"/>
<stop offset="0.54" stop-color="#AF882F"/>
<stop offset="0.72" stop-color="#B48F34"/>
<stop offset="0.85" stop-color="#BC9B3E"/>
<stop offset="0.95" stop-color="#C9AC4B"/>
<stop offset="1" stop-color="#D1B754"/>
</linearGradient>
<linearGradient id="paint13_linear_573_24" x1="156.212" y1="309.03" x2="158.742" y2="307.88" gradientUnits="userSpaceOnUse">
<stop offset="0.04" stop-color="#AE872E"/>
<stop offset="0.54" stop-color="#AF882F"/>
<stop offset="0.72" stop-color="#B48F34"/>
<stop offset="0.85" stop-color="#BC9B3E"/>
<stop offset="0.95" stop-color="#C9AC4B"/>
<stop offset="1" stop-color="#D1B754"/>
</linearGradient>
</defs>
</svg>
