<svg width="159" height="85" viewBox="0 0 159 85" fill="none" xmlns="http://www.w3.org/2000/svg">
<path d="M7.14781 16.6108C7.14781 17.7732 7.42753 18.8105 7.98796 19.7225C8.54839 20.6356 9.29364 21.3529 10.2237 21.8745C11.1538 22.3961 12.2027 22.6574 13.3705 22.6574C14.5383 22.6574 15.6712 22.3971 16.6252 21.8745C17.5783 21.3529 18.3295 20.6356 18.878 19.7225C19.4264 18.8105 19.7001 17.7722 19.7001 16.6108V0H23.0977V16.7171C23.0977 18.5909 22.6621 20.2262 21.792 21.6251C20.9219 23.024 19.7531 24.103 18.2876 24.862C16.821 25.6211 15.1817 26.0006 13.3695 26.0006C11.5574 26.0006 9.924 25.6221 8.46947 24.862C7.01494 24.103 5.85911 23.025 4.99998 21.6251C4.14185 20.2262 3.71228 18.5899 3.71228 16.7171V0H7.14581V16.6108H7.14781Z" fill="url(#paint0_radial_321_22)"/>
<path d="M32.3254 10.9902L32.6111 14.5828L32.4683 14.0135C32.9448 12.9236 33.72 12.0513 34.7929 11.3995C35.8658 10.7478 37.1056 10.4219 38.5122 10.4219C39.9188 10.4219 41.0696 10.8312 41.9637 11.6489C42.8578 12.4666 43.3163 13.5286 43.3403 14.8321V25.7162H39.9787V16.0065C39.9547 15.2007 39.7219 14.543 39.2814 14.0324C38.8398 13.5227 38.1545 13.2673 37.2255 13.2673C36.3673 13.2673 35.5921 13.5048 34.9008 13.9787C34.2095 14.4536 33.6671 15.1054 33.2735 15.935C32.8799 16.7656 32.6831 17.7253 32.6831 18.8162V25.7162H29.3574V10.9902H32.3254Z" fill="url(#paint1_radial_321_22)"/>
<path d="M48.8837 5.65512C48.8837 5.13352 49.0925 4.69438 49.51 4.3387C49.9266 3.98302 50.3862 3.80518 50.8866 3.80518C51.3871 3.80518 51.8347 3.98302 52.2273 4.3387C52.6209 4.69438 52.8177 5.13352 52.8177 5.65512C52.8177 6.17673 52.6209 6.64567 52.2273 6.98943C51.8337 7.33319 51.3871 7.50507 50.8866 7.50507C50.3862 7.50507 49.9266 7.32723 49.51 6.97155C49.0925 6.61587 48.8837 6.17772 48.8837 5.65512ZM49.1344 10.9904H52.4601V25.7154H49.1344V10.9904Z" fill="url(#paint2_radial_321_22)"/>
<path d="M64.2262 26.1425L56.0005 10.9903H59.9345L65.5139 22.692L63.4749 22.6205L68.5888 10.9893H72.308L64.404 26.1415H64.2252L64.2262 26.1425Z" fill="url(#paint3_radial_321_22)"/>
<path d="M82.3937 26.0711C80.7005 26.0711 79.2469 25.7333 78.0302 25.0577C76.8134 24.3821 75.8783 23.4571 75.223 22.2837C74.5667 21.1104 74.24 19.7641 74.24 18.247C74.24 16.7299 74.6096 15.485 75.3489 14.2987C76.0881 13.1135 77.0771 12.1646 78.3169 11.4533C79.5566 10.7419 80.9392 10.3862 82.4657 10.3862C84.4207 10.3862 86.0421 10.9555 87.3298 12.0931C88.6175 13.2317 89.4876 14.7965 89.9401 16.7885L77.7444 21.0567L76.9572 19.1005L86.9711 15.4721L86.2558 15.9341C85.9701 15.1512 85.4926 14.4706 84.8253 13.8884C84.158 13.3072 83.2878 13.0171 82.2149 13.0171C81.3088 13.0171 80.4987 13.2367 79.7834 13.6748C79.0681 14.1139 78.5077 14.7121 78.1021 15.4711C77.6965 16.2302 77.4937 17.0955 77.4937 18.0672C77.4937 19.0866 77.7085 19.9827 78.137 20.7527C78.5656 21.5237 79.156 22.1277 79.9073 22.5669C80.6585 23.006 81.5106 23.2246 82.4647 23.2246C83.108 23.2246 83.7344 23.1064 84.3418 22.8689C84.9502 22.6325 85.5156 22.3235 86.0401 21.9439L87.5775 24.398C86.8383 24.8957 86.0091 25.2991 85.092 25.6071C84.174 25.9151 83.2739 26.0691 82.3917 26.0691L82.3937 26.0711Z" fill="url(#paint4_radial_321_22)"/>
<path d="M97.093 10.9907L97.4147 15.2589L97.2359 14.6896C97.6165 13.7885 98.1709 13.0244 98.8992 12.3955C99.6265 11.7676 100.389 11.2808 101.188 10.937C101.986 10.5933 102.683 10.4214 103.28 10.4214L103.101 13.6941C101.98 13.6225 100.996 13.8361 100.151 14.3339C99.3048 14.8317 98.6365 15.4963 98.148 16.3259C97.6594 17.1565 97.4147 18.0457 97.4147 18.9935V25.7158H94.124V10.9907H97.092H97.093Z" fill="url(#paint5_radial_321_22)"/>
<path d="M111.72 26.0007C110.671 26.0007 109.651 25.8169 108.662 25.4493C107.672 25.0817 106.856 24.5302 106.213 23.795L107.607 21.8745C108.227 22.4677 108.865 22.9118 109.52 23.2089C110.176 23.5059 110.826 23.653 111.469 23.653C111.946 23.653 112.387 23.5943 112.793 23.4751C113.199 23.3569 113.526 23.1612 113.777 22.8879C114.028 22.6157 114.153 22.2422 114.153 21.7672C114.153 21.2456 113.98 20.8303 113.634 20.5224C113.289 20.2144 112.847 19.966 112.31 19.7752C111.774 19.5855 111.208 19.4076 110.612 19.2417C109.396 18.8383 108.466 18.281 107.823 17.5696C107.18 16.8582 106.857 15.9929 106.857 14.9735C106.857 14.1906 107.054 13.4614 107.447 12.7858C107.841 12.1102 108.424 11.5587 109.2 11.1315C109.974 10.7043 110.934 10.4917 112.079 10.4917C113.104 10.4917 114.022 10.6159 114.833 10.8653C115.643 11.1146 116.406 11.523 117.122 12.0923L115.798 14.1548C115.368 13.7048 114.856 13.3719 114.261 13.1593C113.664 12.9457 113.128 12.8275 112.651 12.8036C112.246 12.7808 111.858 12.8394 111.489 12.9815C111.12 13.1236 110.815 13.3252 110.577 13.5865C110.338 13.8478 110.22 14.1558 110.22 14.5115C110.22 15.0093 110.386 15.4126 110.72 15.7206C111.054 16.0286 111.489 16.272 112.026 16.4499C112.562 16.6277 113.093 16.8115 113.617 17.0013C114.355 17.2149 115.012 17.4991 115.584 17.8547C116.157 18.2104 116.615 18.6496 116.961 19.1712C117.306 19.6928 117.479 20.3445 117.479 21.1274C117.479 22.0047 117.27 22.8174 116.853 23.5635C116.435 24.3107 115.804 24.9038 114.958 25.342C114.112 25.7801 113.032 25.9997 111.721 25.9997L111.72 26.0007Z" fill="url(#paint6_radial_321_22)"/>
<path d="M121.877 5.65512C121.877 5.13352 122.086 4.69438 122.502 4.3387C122.919 3.98302 123.378 3.80518 123.879 3.80518C124.379 3.80518 124.827 3.98302 125.22 4.3387C125.613 4.69438 125.81 5.13352 125.81 5.65512C125.81 6.17673 125.613 6.64567 125.22 6.98943C124.826 7.33319 124.379 7.50507 123.879 7.50507C123.378 7.50507 122.919 7.32723 122.502 6.97155C122.085 6.61587 121.877 6.17772 121.877 5.65512ZM122.128 10.9904H125.453V25.7154H122.128V10.9904Z" fill="url(#paint7_radial_321_22)"/>
<path d="M132.641 4.51758H135.967V11.0619H140.044V13.658H135.967V25.7155H132.641V13.658H129.923V11.0619H132.641V4.51758Z" fill="url(#paint8_radial_321_22)"/>
<path d="M148.95 25.8226L141.833 10.9902H145.588L151.561 24.1505L148.951 25.8226H148.95ZM145.301 32.7942L155.064 10.9912H158.14L148.591 32.7942H145.3H145.301Z" fill="url(#paint9_radial_321_22)"/>
<path d="M16.4924 58.994C15.858 60.2081 15.2167 61.462 14.5673 62.7535C15.5563 62.7843 16.4804 62.9989 17.3385 63.3993C18.1967 63.7987 18.849 64.4674 19.2985 65.4053C19.5153 65.8514 19.5962 66.2428 19.5423 66.5816C19.4883 66.9194 19.3725 67.1658 19.1946 67.3198C19.0168 67.4728 18.812 67.5235 18.5803 67.4698C18.3485 67.4162 18.1547 67.2274 18.0009 66.9045C17.7841 66.4127 17.5603 65.9706 17.3285 65.5781C17.0968 65.1857 16.83 64.8519 16.5283 64.5747C16.2266 64.2975 15.879 64.0829 15.4844 63.9289C15.0898 63.7749 14.6303 63.6825 14.1048 63.6517C13.5633 64.7128 13.0229 65.7659 12.4814 66.8111C11.94 67.8563 11.3835 68.8518 10.8121 69.7977C10.2397 70.7435 9.65229 71.6198 9.04989 72.4265C8.4475 73.2333 7.82413 73.9367 7.18278 74.5368C6.54143 75.1369 5.86811 75.6088 5.16482 75.9555C4.46153 76.3023 3.72328 76.4821 2.95006 76.498C2.30071 76.5129 1.78723 76.4364 1.40762 76.2675C1.029 76.0986 0.735296 75.879 0.526507 75.6098C0.317718 75.3405 0.182854 75.0445 0.120917 74.7216C0.0589793 74.3987 0.0210177 74.0986 0.00503385 73.8224C-0.0259349 73.1607 0.0859521 72.4504 0.341694 71.6893C0.596436 70.9283 0.991037 70.1593 1.5245 69.3833C2.05796 68.6064 2.7113 67.8493 3.48352 67.1121C4.25674 66.374 5.13385 65.7053 6.11586 65.1052C7.09787 64.5051 8.17977 64.0014 9.36258 63.5951C10.5454 63.1877 11.8011 62.9224 13.1308 62.7992L13.4784 62.7535C13.88 62.0004 14.2556 61.2811 14.6033 60.5976C14.9509 59.913 15.2796 59.2484 15.5893 58.6026C14.9709 59.1252 14.3176 59.5752 13.6303 59.9518C12.942 60.3283 12.2347 60.5976 11.5084 60.7585C10.7811 60.9195 10.0319 60.9622 9.25868 60.8857C8.48546 60.8082 7.70525 60.5708 6.91705 60.1704C6.05092 59.7402 5.44054 59.0517 5.0849 58.1058C4.72926 57.16 4.57841 56.0611 4.63236 54.8083C4.6863 53.5555 4.93006 52.1834 5.36262 50.6921C5.79518 49.2008 6.35961 47.6867 7.05591 46.1487C6.70027 46.1179 6.34063 46.0563 5.978 45.9639C5.61437 45.8715 5.25473 45.795 4.90009 45.7334C4.49849 45.6718 4.20079 45.5138 4.00699 45.2605C3.81418 45.0071 3.72527 44.7379 3.74026 44.4538C3.75624 44.1696 3.88711 43.9083 4.13486 43.6699C4.38261 43.4314 4.75324 43.2893 5.24774 43.2436C5.44853 43.2744 5.64933 43.3708 5.85113 43.5318C6.05192 43.6927 6.24872 43.8626 6.44253 44.0395C6.63533 44.2163 6.83313 44.3822 7.03393 44.5352C7.23473 44.6892 7.44352 44.7737 7.6603 44.7886H7.70625C8.55639 43.1284 9.52242 41.5139 10.6053 39.9451C11.6872 38.3773 12.8311 36.9814 14.0369 35.7594C15.2426 34.5374 16.4834 33.5418 17.7591 32.7728C19.0348 32.0039 20.2756 31.5816 21.4813 31.5041C22.2236 31.4584 22.8649 31.5389 23.4064 31.7465C23.9478 31.9542 24.3764 32.2542 24.6931 32.6457C25.0098 33.0381 25.2066 33.4991 25.2845 34.0297C25.3614 34.5602 25.3075 35.1335 25.1227 35.7475C24.8909 36.7321 24.4533 37.662 23.812 38.5383C23.1706 39.4146 22.4124 40.2223 21.5393 40.9595C20.6662 41.6977 19.7071 42.3703 18.6642 42.9774C17.6202 43.5854 16.5773 44.107 15.5333 44.5452C14.4894 44.9833 13.4884 45.337 12.5304 45.6062C11.5713 45.8755 10.7292 46.0484 10.0029 46.1249C9.55438 46.1706 9.10584 46.1944 8.65829 46.1944C8.17877 47.1939 7.7572 48.1894 7.39457 49.181C7.03093 50.1725 6.73324 51.1263 6.50147 52.0403C6.2697 52.9554 6.11886 53.8197 6.04893 54.6344C5.979 55.4491 6.00297 56.1873 6.11886 56.848C6.23474 57.5087 6.44752 58.0701 6.75621 58.531C7.0649 58.992 7.49047 59.3298 8.03192 59.5454C8.92802 59.8991 9.79015 60.0144 10.6173 59.8912C11.4445 59.768 12.2327 59.4799 12.9829 59.0258C13.7322 58.5718 14.4474 57.9955 15.1278 57.2961C15.8081 56.5966 16.4414 55.8436 17.0288 55.0358C17.6162 54.2291 18.1607 53.4104 18.6642 52.5798C19.1667 51.7492 19.6152 50.9852 20.0088 50.2848C20.4034 49.5853 20.7471 48.9852 21.0408 48.4855C21.3345 47.9857 21.5742 47.6589 21.7601 47.5049C22.0388 47.1363 22.3245 46.8174 22.6182 46.5481C22.9119 46.2789 23.1896 46.1596 23.4533 46.1904C23.747 46.2212 23.9558 46.3097 24.0797 46.4557C24.2036 46.6018 24.2725 46.7707 24.2885 46.9634C24.3035 47.1561 24.2805 47.3519 24.2186 47.5516C24.1566 47.7513 24.0867 47.9053 24.0098 48.0126C23.9478 48.105 23.813 48.2699 23.6042 48.5083C23.3954 48.7468 23.1516 49.024 22.8739 49.3389C22.5952 49.6539 22.3095 49.9768 22.0158 50.3076C21.7221 50.6385 21.4594 50.9345 21.2276 51.1958C20.8869 51.8575 20.4893 52.557 20.0338 53.2942C19.5773 54.0324 19.0718 54.7705 18.5153 55.5077L18.4694 55.6001C17.7891 56.6453 17.1317 57.776 16.4984 58.9901L16.4924 58.994ZM3.18182 75.4836C3.93906 75.4379 4.73925 75.0604 5.5824 74.354C6.42455 73.6466 7.2677 72.7355 8.10984 71.6208C8.95199 70.506 9.79115 69.2572 10.6263 67.8732C11.4615 66.4892 12.2497 65.0973 12.9919 63.6994C11.8171 63.8226 10.7042 64.0839 9.65229 64.4833C8.60035 64.8827 7.62633 65.3596 6.73024 65.913C5.83314 66.4664 5.02896 67.0813 4.31867 67.7579C3.60739 68.4345 3.005 69.1111 2.5095 69.7877C2.015 70.4643 1.63938 71.1171 1.38464 71.748C1.1299 72.3778 1.01002 72.9243 1.025 73.3853C1.05597 74.2308 1.26876 74.8001 1.66236 75.0922C2.05696 75.3843 2.56345 75.5144 3.18082 75.4846L3.18182 75.4836ZM21.4554 32.8185C20.3884 32.9725 19.3025 33.4067 18.1977 34.1211C17.0918 34.8364 16.0139 35.7395 14.9629 36.8304C13.911 37.9223 12.907 39.1523 11.948 40.5204C10.9889 41.8895 10.1238 43.3112 9.35059 44.7866C10.2627 44.7101 11.2247 44.5372 12.2377 44.268C13.2497 43.9987 14.2586 43.649 15.2636 43.2188C16.2686 42.7886 17.2426 42.2889 18.1857 41.7196C19.1287 41.1513 19.9868 40.5283 20.7601 39.8517C21.5333 39.1751 22.1936 38.4568 22.7431 37.6958C23.2915 36.9347 23.6821 36.1469 23.9139 35.3322C23.9758 35.0868 23.9908 34.8016 23.9598 34.4787C23.9289 34.1558 23.824 33.8558 23.6471 33.5796C23.4693 33.3024 23.2026 33.0878 22.847 32.9338C22.4913 32.7808 22.0278 32.742 21.4554 32.8185Z" fill="url(#paint10_linear_321_22)"/>
<path d="M27.5543 48.063C27.5543 48.3243 27.5853 48.5399 27.6472 48.7088C27.7091 48.8777 27.86 48.9622 28.0997 48.9622C28.3395 48.9622 28.6911 48.8509 29.1547 48.6274C29.6182 48.4048 30.2595 48.0243 31.0797 47.4858C31.4813 47.2245 31.787 47.1669 31.9958 47.3129C32.2046 47.459 32.3245 47.7014 32.3554 48.0392C32.3864 48.378 32.3285 48.7585 32.1816 49.1808C32.0348 49.604 31.807 49.9686 31.4973 50.2766C30.802 50.9999 30.1826 51.6954 29.6422 52.364C29.1007 53.0327 28.6642 53.6437 28.3315 54.1971C27.9988 54.7505 27.79 55.2194 27.7051 55.6039C27.6202 55.9884 27.6782 56.2497 27.879 56.3878C28.1257 56.5567 28.5363 56.5488 29.1077 56.365C29.6791 56.1802 30.3794 55.8116 31.2066 55.2582C32.0338 54.7048 32.9768 53.9626 34.0357 53.0327C35.0947 52.1027 36.2425 50.9761 37.4793 49.6537C37.5871 49.5464 37.726 49.4689 37.8968 49.4232C38.0667 49.3775 38.2095 49.3775 38.3254 49.4232C38.4413 49.4689 38.5032 49.5653 38.5112 49.7113C38.5192 49.8574 38.4143 50.0541 38.1985 50.2995C37.7959 50.7605 37.3364 51.2642 36.8189 51.8096C36.3004 52.3561 35.748 52.9015 35.1606 53.447C34.5732 53.9924 33.9588 54.519 33.3175 55.0267C32.6761 55.5344 32.0378 55.9805 31.4044 56.364C30.77 56.7485 30.1487 57.0475 29.5373 57.2631C28.9259 57.4787 28.3505 57.5632 27.81 57.5165C27.2995 57.4708 26.8979 57.3168 26.6042 57.0555C26.3105 56.7942 26.2176 56.3749 26.3255 55.7987C26.4334 55.2224 26.797 54.4653 27.4154 53.5274C28.0338 52.5896 29.0078 51.4291 30.3375 50.0451C30.5073 49.6457 30.5962 49.3874 30.6042 49.2722C30.6122 49.1569 30.5503 49.1221 30.4184 49.1688C30.2865 49.2145 30.1017 49.3149 29.862 49.4689C29.6222 49.6229 29.3435 49.7729 29.0268 49.919C28.7101 50.065 28.3615 50.1803 27.9828 50.2647C27.6042 50.3492 27.2136 50.3452 26.812 50.2528C26.2396 50.1147 25.857 49.8723 25.6642 49.5265C25.4704 49.1808 25.3935 48.8112 25.4324 48.4197C25.4704 48.0273 25.5943 47.6547 25.8031 47.301C26.0118 46.9473 26.2396 46.686 26.4874 46.5171C26.7961 46.3174 27.0558 46.3363 27.2646 46.5747C27.4734 46.8132 27.5693 47.309 27.5543 48.0621V48.063Z" fill="url(#paint11_linear_321_22)"/>
<path d="M43.8087 45.5493C44.4421 45.5036 44.9406 45.5652 45.3042 45.7341C45.6669 45.903 45.9336 46.1225 46.1044 46.3918C46.2743 46.661 46.3752 46.9452 46.4061 47.2452C46.4371 47.5453 46.4441 47.8105 46.4291 48.041C46.3981 48.349 46.2862 48.5716 46.0924 48.7097C45.8986 48.8478 45.6898 48.9173 45.4661 48.9173C45.2423 48.9173 45.0375 48.8597 44.8517 48.7445C44.6659 48.6292 44.573 48.4643 44.573 48.2487C44.573 48.1255 44.577 47.9606 44.585 47.7529C44.593 47.5453 44.573 47.3495 44.527 47.1647C44.4811 46.9799 44.3802 46.8418 44.2253 46.7495C44.0705 46.6571 43.8227 46.6571 43.4831 46.7495C42.54 47.0266 41.6779 47.4111 40.8977 47.9029C40.1165 48.3947 39.4372 48.9332 38.8568 49.5174C38.2773 50.1016 37.8048 50.6938 37.4422 51.2929C37.0785 51.8929 36.8388 52.4424 36.7229 52.9421C36.607 53.4419 36.622 53.8571 36.7689 54.188C36.9157 54.5188 37.2134 54.6997 37.662 54.7295C38.0795 54.7603 38.5311 54.6917 39.0186 54.5218C39.5051 54.3529 39.9846 54.1294 40.4561 53.8532C40.9277 53.576 41.3642 53.2769 41.7668 52.954C42.1684 52.6311 42.4931 52.339 42.7408 52.0777C42.8797 51.7548 43.0655 51.4091 43.2973 51.0395C43.3902 50.8239 43.5021 50.5865 43.6339 50.3242C43.7648 50.0629 43.9196 49.8363 44.0975 49.6436C44.2753 49.4518 44.4801 49.3128 44.7118 49.2283C44.9436 49.1439 45.2063 49.1707 45.5 49.3088C45.6539 49.3863 45.7588 49.4777 45.8127 49.586C45.8667 49.6933 45.8857 49.8016 45.8707 49.9089C45.9326 50.0629 45.9016 50.1861 45.7778 50.2775L45.546 50.4851C45.0825 51.0693 44.6189 51.5998 44.1544 52.0767C43.8447 52.5377 43.6439 52.953 43.551 53.3216C43.4581 53.6902 43.4311 54.0062 43.4701 54.2675C43.5081 54.5288 43.586 54.7404 43.7019 54.9013C43.8177 55.0623 43.9376 55.1517 44.0615 55.1666C44.4631 55.2441 44.9386 55.1626 45.4881 54.9242C46.0365 54.6858 46.6129 54.3629 47.2153 53.9555C47.8187 53.5482 48.4211 53.0901 49.0245 52.5834C49.6279 52.0758 50.1763 51.5919 50.6708 51.1309C51.1653 50.6699 51.5869 50.2695 51.9345 49.9317C52.2822 49.5939 52.503 49.3932 52.5959 49.3316C52.8746 49.1319 53.1133 49.0624 53.3151 49.124C53.5159 49.1856 53.5389 49.3853 53.3851 49.7241C53.3072 49.8781 53.0684 50.1702 52.6658 50.6004C52.2632 51.0306 51.7617 51.5233 51.1583 52.0767C50.5549 52.6301 49.8866 53.1915 49.1523 53.7608C48.4181 54.3301 47.6838 54.8258 46.9496 55.2481C46.2153 55.6713 45.515 55.9744 44.8507 56.1592C44.1854 56.3439 43.6219 56.3201 43.1574 56.0896C42.8477 55.9515 42.601 55.6942 42.4152 55.3166C42.2293 54.9401 42.1604 54.4672 42.2064 53.8979C41.4641 54.4821 40.7219 54.9282 39.9806 55.2352C39.2384 55.5432 38.4651 55.6962 37.662 55.6962C37.1665 55.6962 36.7729 55.6425 36.4792 55.5352C36.1855 55.4279 35.9577 55.2858 35.7948 55.109C35.633 54.9321 35.5241 54.7364 35.4702 54.5208C35.4162 54.3052 35.3813 54.1055 35.3663 53.9207C35.3503 53.3365 35.4702 52.7255 35.7259 52.0877C35.9807 51.4498 36.3253 50.8269 36.7579 50.2198C37.1904 49.6128 37.6969 49.0366 38.2763 48.4901C38.8558 47.9447 39.4631 47.4598 40.0965 47.0376C40.7299 46.6153 41.3682 46.2686 42.0096 45.9993C42.6509 45.7301 43.2503 45.5811 43.8068 45.5493H43.8087Z" fill="url(#paint12_linear_321_22)"/>
<path d="M58.0474 45.11C58.6808 45.0643 59.2032 45.114 59.6128 45.2601C60.0224 45.4061 60.3391 45.6098 60.5639 45.8711C60.7876 46.1324 60.9345 46.4285 61.0044 46.7593C61.0743 47.0901 61.1003 47.417 61.0853 47.7399C61.0693 48.0628 61.0194 48.3589 60.9345 48.6281C60.8496 48.8974 60.7607 49.101 60.6677 49.2391C60.5289 49.4547 60.3471 49.6197 60.1223 49.7349C59.8975 49.8502 59.6897 49.9048 59.4959 49.8959C59.3021 49.8879 59.1483 49.8005 59.0324 49.6306C58.9165 49.4617 58.9045 49.1925 58.9974 48.8239C59.0284 48.6708 59.1013 48.4314 59.2182 48.1085C59.3341 47.7856 59.4 47.4746 59.415 47.1746C59.43 46.8746 59.3531 46.6321 59.1832 46.4483C59.0124 46.2635 58.6578 46.2327 58.1163 46.3559C57.5909 46.4791 57.0994 46.6987 56.6438 47.0136C56.1873 47.3286 55.7667 47.6982 55.3801 48.1204C54.9935 48.5437 54.6498 48.9888 54.3481 49.4577C54.0464 49.9267 53.7877 50.3728 53.5709 50.795C53.3541 51.2183 53.1843 51.5869 53.0604 51.9018C52.9366 52.2168 52.8596 52.4363 52.8287 52.5595C52.6279 53.3434 52.6818 53.8859 52.9905 54.1859C53.2992 54.486 53.7358 54.5972 54.3012 54.5207C54.8656 54.4442 55.507 54.1978 56.2262 53.7825C56.9455 53.3673 57.6058 52.8298 58.2092 52.1681C58.5339 51.8144 58.9205 51.3991 59.3691 50.9232C59.8176 50.4473 60.2891 49.9316 60.7836 49.3782C61.2322 48.0251 61.7537 46.5844 62.3491 45.0544C62.9444 43.5244 63.5778 42.0023 64.2511 40.4882C64.9234 38.974 65.6158 37.5215 66.327 36.1295C67.0383 34.7386 67.7296 33.5195 68.4029 32.4744C69.0753 31.4292 69.7126 30.6026 70.316 29.9955C70.9194 29.3885 71.4439 29.1003 71.8924 29.1311C72.31 29.1768 72.6347 29.4968 72.8664 30.0879C73.0982 30.68 73.1751 31.3994 73.0982 32.2439C72.9903 33.3507 72.6846 34.5002 72.1821 35.6914C71.6796 36.8826 71.0692 38.063 70.35 39.2313C69.6307 40.3997 68.8505 41.5304 68.0073 42.6213C67.1642 43.7131 66.345 44.7196 65.5498 45.6426C64.7536 46.5656 64.0234 47.3842 63.358 48.0986C62.6927 48.8139 62.1902 49.3633 61.8506 49.7478C61.5259 50.7165 61.2631 51.6047 61.0624 52.4115C60.8616 53.2182 60.7377 53.9187 60.6917 54.5098C60.6458 55.102 60.6797 55.559 60.7956 55.8819C60.9115 56.2048 61.1323 56.3588 61.457 56.3429C61.7816 56.3121 62.1952 56.1313 62.6977 55.8004C63.2002 55.4696 63.7337 55.0702 64.2981 54.6012C64.8625 54.1323 65.4259 53.6246 65.9914 53.0791C66.5558 52.5337 67.0693 52.026 67.5338 51.557C67.9973 51.0881 68.3879 50.6847 68.7046 50.3459C69.0213 50.0081 69.2031 49.8154 69.2491 49.7697C69.5887 49.4319 69.8525 49.3196 70.0373 49.4349C70.2231 49.5501 70.1761 49.8233 69.8984 50.2535C69.8365 50.3459 69.6357 50.5884 69.295 50.9798C68.9544 51.3722 68.5258 51.8442 68.0083 52.3986C67.4899 52.952 66.9104 53.5362 66.2691 54.1511C65.6277 54.7661 64.9854 55.3354 64.344 55.858C63.7027 56.3806 63.0883 56.8108 62.5009 57.1496C61.9135 57.4874 61.411 57.6573 60.9934 57.6573C60.6228 57.6573 60.3321 57.5838 60.1243 57.4377C59.9155 57.2917 59.7607 57.1148 59.6608 56.9072C59.5599 56.6996 59.4899 56.4849 59.452 56.2614C59.413 56.0389 59.386 55.8501 59.3711 55.6961C59.3251 55.3732 59.3511 54.9122 59.452 54.3121C59.5519 53.712 59.7107 53.0056 59.9275 52.1899C59.5569 52.6052 59.1353 53.0245 58.6638 53.4467C58.1922 53.87 57.6898 54.2505 57.1563 54.5883C56.6228 54.9271 56.0664 55.1993 55.487 55.407C54.9076 55.6146 54.3312 55.6951 53.7597 55.6494C53.3571 55.6186 52.9985 55.55 52.6818 55.4417C52.3651 55.3344 52.1024 55.1616 51.8936 54.9231C51.6848 54.6847 51.538 54.3697 51.4531 53.9773C51.3681 53.5848 51.3642 53.0891 51.4411 52.49C51.503 51.9674 51.7308 51.3027 52.1254 50.495C52.52 49.6882 53.0185 48.8924 53.6209 48.1085C54.2243 47.3246 54.9076 46.6441 55.6728 46.0678C56.438 45.4916 57.2302 45.1726 58.0494 45.111L58.0474 45.11ZM70.2681 31.8723C69.6187 32.8867 68.9534 34.0094 68.2741 35.2393C67.5938 36.4693 66.9254 37.753 66.2681 39.0913C65.6108 40.4285 64.9844 41.7817 64.39 43.1498C63.7946 44.5179 63.2571 45.8403 62.7786 47.117C63.7986 45.9486 64.8305 44.6957 65.8745 43.3575C66.9184 42.0202 67.8725 40.6859 68.7386 39.3565C69.6047 38.0272 70.319 36.7316 70.8834 35.4708C71.4479 34.2101 71.7525 33.0725 71.7995 32.0581C71.8305 31.5822 71.8145 31.2434 71.7535 31.0437C71.6916 30.844 71.5987 30.7436 71.4748 30.7436C71.351 30.7436 71.1691 30.8589 70.9294 31.0894C70.6896 31.3199 70.4688 31.5812 70.2681 31.8733V31.8723Z" fill="url(#paint13_linear_321_22)"/>
<path d="M79.0102 44.9034C79.3039 44.8577 79.5207 44.8846 79.6596 44.9839C79.7984 45.0843 79.8913 45.2144 79.9383 45.3764C79.9842 45.5373 79.9882 45.7112 79.9503 45.895C79.9113 46.0798 79.8613 46.2338 79.7994 46.356C79.6446 46.6332 79.4008 46.959 79.0691 47.3366C78.7365 47.7131 78.3888 48.0788 78.0252 48.4324C77.6616 48.7861 77.3329 49.1051 77.0392 49.3892C76.7455 49.6744 76.5677 49.8621 76.5057 49.9545C75.7785 51.1229 75.273 52.0499 74.9873 52.7334C74.7006 53.418 74.5847 53.9098 74.6396 54.2098C74.6936 54.5099 74.8834 54.644 75.2081 54.6132C75.5327 54.5824 75.9383 54.4443 76.4258 54.1979C76.9123 53.9525 77.4538 53.6177 78.0492 53.1944C78.6446 52.7722 79.235 52.3181 79.8234 51.8333C80.4108 51.3485 80.9672 50.8606 81.4927 50.3688C82.0182 49.877 82.4507 49.4309 82.7914 49.0315C82.8843 48.9391 82.9962 48.8974 83.128 48.9044C83.2589 48.9123 83.3788 48.954 83.4877 49.0315C83.5956 49.109 83.6735 49.2044 83.7194 49.3197C83.7654 49.4349 83.7424 49.5392 83.6495 49.6306C82.7834 50.5685 81.9063 51.418 81.0172 52.179C80.1281 52.9401 79.2739 53.5779 78.4548 54.0936C77.6356 54.6092 76.8814 54.9927 76.1941 55.2471C75.5058 55.5004 74.9373 55.5968 74.4898 55.5352C74.0412 55.4736 73.7435 55.2391 73.5967 54.8318C73.4498 54.4244 73.4998 53.8213 73.7475 53.0215C73.3609 53.4368 72.9623 53.8402 72.5527 54.2327C72.1432 54.6251 71.7485 54.9748 71.3699 55.2818C70.9913 55.5898 70.6277 55.8392 70.28 56.0309C69.9324 56.2237 69.6187 56.335 69.341 56.3658C68.7536 56.4433 68.317 56.3966 68.0303 56.2277C67.7436 56.0588 67.5628 55.8054 67.4849 55.4666C67.4079 55.1288 67.4229 54.7324 67.5308 54.2794C67.6387 53.8263 67.7935 53.3494 67.9943 52.8497C68.1951 52.3499 68.4309 51.8462 68.7016 51.3395C68.9724 50.8318 69.2311 50.3629 69.4788 49.9327C69.7256 49.5025 69.9504 49.1259 70.1512 48.803C70.352 48.4801 70.4838 48.2576 70.5458 48.1344C70.7466 47.7191 70.9633 47.3197 71.1951 46.9352C71.4269 46.5507 71.6666 46.2169 71.9144 45.9317C72.1611 45.6476 72.4209 45.428 72.6916 45.274C72.9623 45.12 73.236 45.0743 73.5148 45.1359C73.7156 45.1816 73.8354 45.3048 73.8744 45.5045C73.9124 45.7042 73.8894 45.9347 73.8045 46.196C73.7196 46.4573 73.5917 46.7226 73.4219 46.9918C73.251 47.2611 73.0742 47.4797 72.8884 47.6495C72.5947 47.9108 72.281 48.2457 71.9493 48.653C71.6167 49.0604 71.288 49.5025 70.9633 49.9794C70.6387 50.4563 70.322 50.9401 70.0123 51.4319C69.7026 51.9237 69.4329 52.3887 69.2011 52.8268C68.9694 53.265 68.7875 53.6495 68.6557 53.9803C68.5238 54.3112 68.4589 54.5456 68.4589 54.6837C68.4739 55.1139 68.5897 55.3643 68.8065 55.4328C69.0233 55.5024 69.278 55.4785 69.5717 55.3633C69.8654 55.248 70.1631 55.0831 70.4648 54.8675C70.7665 54.6519 71.0103 54.4751 71.1951 54.337C71.5967 54.03 72.0373 53.5988 72.5168 53.0454C72.9953 52.492 73.4678 51.9237 73.9313 51.3385C74.3949 50.7543 74.8165 50.2049 75.1951 49.6893C75.5737 49.1746 75.8564 48.801 76.0412 48.5705C76.1341 48.4175 76.23 48.2675 76.3309 48.1205C76.4308 47.9744 76.5427 47.8175 76.6676 47.6476C76.8993 47.3098 77.1161 46.9789 77.3169 46.656C77.5177 46.3331 77.7115 46.049 77.8963 45.8026C78.0821 45.5572 78.267 45.3525 78.4528 45.1916C78.6386 45.0306 78.8234 44.9342 79.0092 44.9034H79.0102Z" fill="url(#paint14_linear_321_22)"/>
<path d="M89.3747 45.5493C90.008 45.5036 90.5065 45.5652 90.8702 45.7341C91.2328 45.903 91.4995 46.1225 91.6703 46.3918C91.8402 46.661 91.9411 46.9452 91.972 47.2452C92.003 47.5453 92.01 47.8105 91.995 48.041C91.964 48.349 91.8522 48.5716 91.6584 48.7097C91.4646 48.8478 91.2558 48.9173 91.032 48.9173C90.8082 48.9173 90.6034 48.8597 90.4176 48.7445C90.2318 48.6292 90.1389 48.4643 90.1389 48.2487C90.1389 48.1255 90.1429 47.9606 90.1509 47.7529C90.1589 47.5453 90.1389 47.3495 90.0929 47.1647C90.047 46.9799 89.9461 46.8418 89.7912 46.7495C89.6364 46.6571 89.3887 46.6571 89.049 46.7495C88.1059 47.0266 87.2438 47.4111 86.4636 47.9029C85.6824 48.3947 85.0031 48.9332 84.4227 49.5174C83.8433 50.1016 83.3707 50.6938 83.0081 51.2929C82.6445 51.8929 82.4047 52.4424 82.2888 52.9421C82.1729 53.4419 82.1879 53.8571 82.3348 54.188C82.4816 54.5188 82.7793 54.6997 83.2279 54.7295C83.6455 54.7603 84.098 54.6917 84.5845 54.5218C85.072 54.3529 85.5505 54.1294 86.0221 53.8532C86.4936 53.576 86.9301 53.2769 87.3327 52.954C87.7343 52.6311 88.059 52.339 88.3067 52.0777C88.4456 51.7548 88.6314 51.4091 88.8632 51.0395C88.9561 50.8239 89.068 50.5865 89.1998 50.3242C89.3307 50.0629 89.4855 49.8363 89.6634 49.6436C89.8412 49.4518 90.046 49.3128 90.2778 49.2283C90.5095 49.1439 90.7723 49.1707 91.066 49.3088C91.2198 49.3863 91.3247 49.4777 91.3786 49.586C91.4326 49.6933 91.4516 49.8016 91.4366 49.9089C91.4985 50.0629 91.4675 50.1861 91.3437 50.2775L91.1119 50.4851C90.6484 51.0693 90.1838 51.5998 89.7203 52.0767C89.4106 52.5377 89.2098 52.953 89.1169 53.3216C89.024 53.6902 88.997 54.0062 89.036 54.2675C89.074 54.5288 89.1519 54.7404 89.2678 54.9013C89.3837 55.0623 89.5035 55.1517 89.6274 55.1666C90.029 55.2441 90.5045 55.1626 91.054 54.9242C91.6024 54.6858 92.1788 54.3629 92.7812 53.9555C93.3846 53.5482 93.987 53.0901 94.5904 52.5834C95.1938 52.0758 95.7422 51.5919 96.2367 51.1309C96.7312 50.6699 97.1528 50.2695 97.5005 49.9317C97.8481 49.5939 98.0689 49.3932 98.1618 49.3316C98.4405 49.1319 98.6793 49.0624 98.8811 49.124C99.0819 49.1856 99.1048 49.3853 98.951 49.7241C98.8731 49.8781 98.6343 50.1702 98.2317 50.6004C97.8291 51.0306 97.3276 51.5233 96.7242 52.0767C96.1208 52.6301 95.4525 53.1915 94.7183 53.7608C93.984 54.3301 93.2497 54.8258 92.5155 55.2481C91.7812 55.6713 91.0809 55.9744 90.4166 56.1592C89.7513 56.3439 89.1879 56.3201 88.7233 56.0896C88.4136 55.9515 88.1669 55.6942 87.9811 55.3166C87.7953 54.9401 87.7263 54.4672 87.7723 53.8979C87.03 54.4821 86.2878 54.9282 85.5465 55.2352C84.8043 55.5432 84.0311 55.6962 83.2279 55.6962C82.7324 55.6962 82.3388 55.6425 82.0451 55.5352C81.7514 55.4279 81.5236 55.2858 81.3608 55.109C81.1989 54.9321 81.09 54.7364 81.0361 54.5208C80.9821 54.3052 80.9472 54.1055 80.9322 53.9207C80.9162 53.3365 81.0361 52.7255 81.2918 52.0877C81.5466 51.4498 81.8912 50.8269 82.3238 50.2198C82.7564 49.6128 83.2628 49.0366 83.8423 48.4901C84.4217 47.9447 85.0281 47.4598 85.6624 47.0376C86.2958 46.6153 86.9341 46.2686 87.5755 45.9993C88.2168 45.7301 88.8162 45.5811 89.3727 45.5493H89.3747Z" fill="url(#paint15_linear_321_22)"/>
<path d="M121.747 33.3717C122.458 33.4174 123.042 33.5644 123.498 33.8098C123.954 34.0562 124.21 34.3016 124.263 34.548C124.317 34.7944 124.136 35.006 123.718 35.1819C123.3 35.3587 122.574 35.4015 121.538 35.3091C121.306 35.2942 121.063 35.2395 120.808 35.1481C120.553 35.0557 120.301 34.9633 120.055 34.8709C119.807 34.7785 119.583 34.6941 119.382 34.6176C119.182 34.5411 119.019 34.4944 118.895 34.4795C116.637 34.2798 114.512 34.2261 112.518 34.3185C110.524 34.4109 108.676 34.5798 106.976 34.8262C105.94 36.3175 104.954 37.9012 104.019 39.5773C103.083 41.2533 102.237 42.9095 101.48 44.5469C100.722 46.1842 100.073 47.745 99.5315 49.2284C98.99 50.7127 98.5994 52.0073 98.3607 53.1141C98.1209 54.2209 98.051 55.0942 98.1519 55.732C98.2518 56.3699 98.5655 56.651 99.0909 56.5735C99.6014 56.5119 100.165 56.3043 100.784 55.9506C101.403 55.5969 102.036 55.1707 102.685 54.6709C103.335 54.1712 103.972 53.6367 104.598 53.0684C105.225 52.5001 105.788 51.9656 106.292 51.4658C106.794 50.9661 107.216 50.5398 107.555 50.1861C107.895 49.8324 108.104 49.6178 108.182 49.5403C108.306 49.433 108.414 49.3754 108.506 49.3675C108.599 49.3595 108.68 49.3794 108.75 49.4251C108.82 49.4708 108.87 49.5324 108.901 49.6099C108.932 49.6874 108.947 49.7559 108.947 49.8175C108.947 49.8632 108.776 50.0908 108.436 50.4981C108.096 50.9055 107.644 51.4052 107.08 51.9973C106.515 52.5895 105.87 53.2234 105.144 53.8999C104.417 54.5765 103.659 55.2035 102.871 55.7797C102.083 56.3559 101.294 56.8408 100.506 57.2322C99.7173 57.6237 98.99 57.8204 98.3257 57.8204C97.7843 57.8204 97.3896 57.6128 97.1429 57.1975C96.8951 56.7822 96.7683 56.2099 96.7603 55.4797C96.7523 54.7494 96.8562 53.888 97.073 52.8965C97.2898 51.9049 97.5835 50.8319 97.9541 49.6794C98.3247 48.526 98.7653 47.3198 99.2757 46.059C99.7862 44.7982 100.343 43.5375 100.945 42.2767C101.548 41.0159 102.178 39.7819 102.835 38.5748C103.492 37.3676 104.161 36.234 104.841 35.1729C103.681 35.3885 102.634 35.6151 101.699 35.8535C100.763 36.092 99.9561 36.3115 99.2757 36.5112C98.5954 36.7109 98.058 36.8798 97.6644 37.0189C97.2698 37.157 97.034 37.2345 96.9571 37.2494C96.6474 37.2951 96.4196 37.2574 96.2728 37.1342C96.1259 37.011 96.052 36.857 96.052 36.6732C96.052 36.4894 96.1099 36.3085 96.2258 36.1307C96.3417 35.9539 96.5155 35.8277 96.7473 35.7502C96.8242 35.7353 97.08 35.6618 97.5125 35.5306C97.9451 35.4005 98.5445 35.2425 99.3097 35.0577C100.075 34.8729 100.991 34.6811 102.058 34.4814C103.125 34.2817 104.331 34.089 105.675 33.9052C105.969 33.4899 106.251 33.0945 106.521 32.7179C106.792 32.3414 107.066 31.9917 107.345 31.6688C107.514 31.4691 107.711 31.3578 107.936 31.334C108.16 31.3111 108.357 31.3459 108.527 31.4373C108.697 31.5297 108.817 31.6638 108.887 31.8407C108.957 32.0175 108.922 32.1904 108.783 32.3593L107.809 33.6509C109.757 33.4353 111.894 33.2932 114.221 33.2246C116.547 33.1551 119.056 33.2058 121.746 33.3747L121.747 33.3717Z" fill="url(#paint16_linear_321_22)"/>
<path d="M111.589 45.4571C111.868 45.4879 112.068 45.5763 112.193 45.7224C112.317 45.8684 112.385 46.0373 112.401 46.2301C112.416 46.4228 112.397 46.6146 112.343 46.8063C112.29 46.9991 112.224 47.1491 112.147 47.2564C112.069 47.3796 111.895 47.5644 111.625 47.8098C111.354 48.0562 111.065 48.3095 110.756 48.5708C110.446 48.8321 110.165 49.0825 109.91 49.32C109.655 49.5584 109.496 49.7313 109.434 49.8386C108.46 51.3607 107.799 52.5598 107.451 53.4361C107.104 54.3124 106.937 54.9662 106.953 55.3964C106.968 55.8266 107.084 56.0918 107.301 56.1922C107.517 56.2925 107.702 56.3273 107.857 56.2955C108.104 56.2498 108.452 56.0998 108.901 55.8454C109.35 55.5921 109.855 55.2692 110.419 54.8768C110.984 54.4843 111.586 54.0432 112.229 53.5504C112.87 53.0586 113.507 52.5469 114.142 52.0164C114.775 51.4858 115.382 50.9593 115.962 50.4367C116.541 49.9141 117.056 49.4223 117.504 48.9603C117.597 48.8679 117.686 48.8301 117.771 48.845C117.856 48.8609 117.929 48.9066 117.992 48.9831C118.054 49.0606 118.088 49.156 118.096 49.2713C118.104 49.3865 118.069 49.4978 117.992 49.6061C117.837 49.8217 117.535 50.1555 117.088 50.6096C116.639 51.0636 116.098 51.5703 115.464 52.1316C114.83 52.693 114.147 53.2732 113.412 53.8733C112.678 54.4734 111.948 55.0268 111.221 55.5335C110.493 56.0412 109.814 56.4674 109.18 56.8131C108.545 57.1589 108.012 57.3556 107.579 57.4013C107.116 57.4629 106.744 57.3626 106.466 57.1013C106.188 56.84 106.026 56.4326 105.979 55.8792C105.933 55.4639 105.975 54.988 106.107 54.4495C106.238 53.911 106.408 53.3616 106.617 52.8003C106.826 52.2389 107.062 51.6855 107.325 51.1401C107.587 50.5946 107.842 50.0949 108.09 49.6409C108.337 49.1878 108.549 48.8073 108.727 48.4993C108.905 48.1923 109.017 47.9916 109.064 47.8992C109.141 47.7452 109.265 47.5227 109.434 47.2306C109.604 46.9385 109.797 46.6583 110.014 46.389C110.231 46.1198 110.473 45.8893 110.744 45.6975C111.015 45.5058 111.297 45.4243 111.59 45.4551L111.589 45.4571ZM114.836 41.329C114.96 41.2366 115.111 41.1373 115.289 41.029C115.466 40.9217 115.648 40.8372 115.834 40.7756C116.02 40.714 116.194 40.6912 116.355 40.7061C116.517 40.722 116.637 40.8064 116.715 40.9594C116.777 41.1283 116.738 41.3668 116.599 41.6748C116.475 41.9361 116.279 42.2242 116.008 42.5391C115.737 42.8541 115.439 43.1541 115.115 43.4383C114.79 43.7234 114.457 43.9728 114.118 44.1874C113.777 44.403 113.476 44.5331 113.214 44.5798C113.044 44.6255 112.912 44.6295 112.819 44.5918C112.726 44.554 112.657 44.4994 112.61 44.4308C112.564 44.3613 112.54 44.2887 112.54 44.2112V44.0264C112.571 43.8883 112.66 43.7035 112.807 43.473C112.954 43.2425 113.136 43.0001 113.352 42.7468C113.569 42.4934 113.805 42.2391 114.06 41.9857C114.314 41.7324 114.573 41.5128 114.837 41.328L114.836 41.329Z" fill="url(#paint17_linear_321_22)"/>
<path d="M117.179 48.8469C117.21 48.8161 117.287 48.7277 117.41 48.5816C117.534 48.4356 117.685 48.2667 117.863 48.0739C118.041 47.8822 118.234 47.6854 118.442 47.4857C118.651 47.286 118.86 47.1251 119.069 47.0009C119.278 46.8777 119.47 46.8092 119.648 46.7933C119.826 46.7784 119.969 46.8549 120.077 47.0238C120.263 47.3317 120.293 47.6199 120.17 47.8881C120.046 48.1574 119.868 48.3998 119.636 48.6144C119.404 48.83 119.165 49.0148 118.917 49.1678C118.669 49.3218 118.507 49.437 118.429 49.5135C117.764 50.1444 117.255 50.7624 116.899 51.3704C116.543 51.9775 116.304 52.5428 116.18 53.0654C116.087 53.434 116.052 53.7807 116.076 54.1036C116.099 54.4265 116.184 54.7037 116.33 54.9342C116.477 55.1647 116.686 55.3376 116.957 55.4528C117.228 55.5681 117.571 55.6098 117.989 55.58C118.87 55.5025 119.693 55.2025 120.458 54.6789C121.224 54.1553 121.892 53.5224 122.464 52.7832C122.386 52.7832 122.286 52.7683 122.163 52.7375C121.621 52.6302 121.185 52.4415 120.853 52.1712C120.52 51.902 120.266 51.597 120.088 51.2582C119.91 50.9194 119.801 50.5726 119.763 50.2179C119.724 49.8633 119.728 49.5324 119.775 49.2234C119.837 48.8995 119.961 48.5756 120.146 48.2528C120.331 47.9289 120.57 47.6328 120.865 47.3625C121.159 47.0933 121.498 46.8727 121.885 46.7038C122.271 46.5349 122.688 46.4346 123.137 46.4038C123.507 46.373 123.863 46.4117 124.204 46.519C124.543 46.6263 124.83 46.8111 125.062 47.0724C125.293 47.3337 125.452 47.6765 125.537 48.0988C125.622 48.522 125.595 49.0327 125.456 49.6328C125.425 49.756 125.39 49.8831 125.352 50.0133C125.313 50.1444 125.263 50.2865 125.202 50.4395C125.124 50.6551 125.031 50.8737 124.923 51.0972C124.815 51.3208 124.698 51.5473 124.575 51.7778C125.132 51.7162 125.707 51.6049 126.302 51.443C126.898 51.282 127.477 51.0853 128.042 50.8548C128.606 50.6243 129.136 50.367 129.63 50.0818C130.125 49.7977 130.55 49.4937 130.906 49.1708C131.03 49.0635 131.15 49.0138 131.265 49.0207C131.381 49.0287 131.47 49.0744 131.532 49.1588C131.594 49.2433 131.628 49.3516 131.636 49.4817C131.644 49.6129 131.601 49.7391 131.508 49.8623C131.276 50.1852 130.886 50.5081 130.337 50.831C129.788 51.1539 129.159 51.4539 128.447 51.7301C127.736 52.0073 126.983 52.2418 126.187 52.4335C125.39 52.6263 124.644 52.7445 123.949 52.7912C123.608 53.283 123.226 53.7519 122.801 54.198C122.375 54.6441 121.908 55.0435 121.398 55.3972C120.888 55.7509 120.343 56.0351 119.764 56.2506C119.185 56.4662 118.569 56.5815 117.921 56.5964C117.395 56.5964 116.924 56.5288 116.506 56.3937C116.089 56.2586 115.741 56.051 115.462 55.7708C115.184 55.4916 114.995 55.1319 114.894 54.6938C114.794 54.2556 114.798 53.745 114.906 53.1598C115.03 52.4832 115.281 51.7758 115.659 51.0376C116.038 50.2994 116.544 49.5692 117.178 48.8469H117.179ZM120.796 49.7927C120.78 50.4544 120.989 50.9422 121.422 51.2572C121.855 51.5721 122.419 51.7609 123.116 51.8225C123.44 51.284 123.687 50.7773 123.858 50.3004C123.997 49.9159 124.094 49.5592 124.148 49.2284C124.202 48.8975 124.206 48.6094 124.16 48.364C124.114 48.1186 124.013 47.9299 123.858 47.7987C123.703 47.6686 123.487 47.6109 123.209 47.6258C122.838 47.6715 122.505 47.7798 122.212 47.9487C121.918 48.1176 121.666 48.3143 121.458 48.5369C121.25 48.7604 121.088 48.987 120.971 49.2175C120.854 49.448 120.797 49.6407 120.797 49.7937L120.796 49.7927Z" fill="url(#paint18_linear_321_22)"/>
<path d="M134.037 45.7103C134.5 45.7411 134.759 45.8604 134.814 46.068C134.868 46.2757 134.814 46.5181 134.652 46.7943C134.49 47.0715 134.261 47.3516 133.968 47.6358C133.674 47.9209 133.411 48.1475 133.179 48.3164C133.056 48.4237 132.859 48.6621 132.588 49.0317C132.317 49.4003 132.028 49.8315 131.718 50.3233C131.408 50.8151 131.1 51.3267 130.791 51.8573C130.481 52.3878 130.226 52.8568 130.026 53.2641C129.825 53.6715 129.697 53.9795 129.643 54.1871C129.589 54.3948 129.662 54.4216 129.864 54.2676C130.73 53.3605 131.541 52.5299 132.298 51.7768C132.623 51.4539 132.956 51.131 133.295 50.8081C133.635 50.4852 133.96 50.1852 134.269 49.909C134.578 49.6318 134.861 49.3904 135.115 49.1827C135.37 48.9751 135.583 48.825 135.753 48.7326C136.093 48.5329 136.41 48.4326 136.704 48.4326C136.998 48.4326 137.256 48.5061 137.481 48.6522C137.705 48.7982 137.883 49.0059 138.015 49.2751C138.145 49.5444 138.227 49.8404 138.258 50.1633C138.273 50.2706 138.231 50.521 138.13 50.9124C138.03 51.3049 137.922 51.7579 137.806 52.2736C137.69 52.7892 137.581 53.3307 137.481 53.899C137.38 54.4683 137.334 54.9869 137.342 55.4558C137.35 55.9248 137.427 56.3172 137.574 56.6322C137.721 56.9471 137.98 57.0972 138.351 57.0822C138.552 57.0822 138.846 56.963 139.232 56.7246C139.619 56.4861 140.059 56.1712 140.554 55.7787C141.048 55.3863 141.582 54.9372 142.154 54.4295C142.726 53.9218 143.294 53.3883 143.859 52.827C144.423 52.2656 144.964 51.7013 145.482 51.132C146 50.5637 146.46 50.0252 146.862 49.5175C147.031 49.3019 147.194 49.1907 147.349 49.1827C147.503 49.1748 147.628 49.2215 147.72 49.3208C147.813 49.4212 147.859 49.5553 147.859 49.7242C147.859 49.8931 147.789 50.0471 147.65 50.1852C147.634 50.2011 147.433 50.4157 147.046 50.831C146.66 51.2463 146.173 51.7609 145.586 52.3759C144.999 52.9909 144.337 53.6526 143.603 54.359C142.869 55.0664 142.145 55.7241 141.435 56.3311C140.724 56.9382 140.056 57.4419 139.429 57.8413C138.803 58.2407 138.296 58.4334 137.911 58.4176C137.215 58.4017 136.74 58.1791 136.484 57.7489C136.229 57.3187 136.098 56.7882 136.09 56.1573C136.082 55.5274 136.151 54.8508 136.298 54.1275C136.445 53.4052 136.577 52.7405 136.693 52.1325C136.809 51.5254 136.855 51.0337 136.832 50.6561C136.809 50.2796 136.627 50.1136 136.286 50.1603C135.977 50.206 135.606 50.3759 135.173 50.668C134.741 50.9601 134.284 51.3099 133.805 51.7172C133.325 52.1245 132.846 52.5627 132.367 53.0316C131.888 53.5006 131.447 53.9467 131.046 54.3689C130.643 54.7922 130.295 55.1528 130.002 55.4529C129.708 55.7529 129.507 55.9407 129.398 56.0182C129.227 56.1255 129.074 56.1791 128.935 56.1791C128.796 56.1791 128.668 56.1444 128.552 56.0758C128.436 56.0073 128.343 55.9188 128.273 55.8105C128.203 55.7032 128.162 55.5949 128.146 55.4876C128.115 55.2422 128.173 54.8995 128.319 54.4613C128.466 54.0232 128.659 53.5463 128.899 53.0316C129.139 52.517 129.409 51.9825 129.71 51.4291C130.011 50.8757 130.293 50.365 130.556 49.8951C130.819 49.4261 131.047 49.0188 131.24 48.673C131.433 48.3273 131.553 48.1008 131.6 47.9925C131.662 47.8077 131.778 47.5851 131.948 47.3238C132.118 47.0625 132.314 46.8092 132.539 46.5628C132.763 46.3174 133.003 46.1097 133.258 45.9398C133.513 45.7709 133.772 45.6944 134.036 45.7093L134.037 45.7103Z" fill="url(#paint19_linear_321_22)"/>
<path d="M149.597 45.0873C150.014 44.6879 150.4 44.4723 150.757 44.4415C151.112 44.4107 151.383 44.4762 151.568 44.6372C151.754 44.7981 151.819 45.0177 151.765 45.2949C151.711 45.5721 151.482 45.8106 151.08 46.0102C150.06 46.5179 149.329 46.9948 148.889 47.4399C148.448 47.886 148.196 48.3083 148.135 48.7087C148.073 49.1091 148.162 49.5005 148.402 49.885C148.642 50.2695 148.923 50.6659 149.248 51.0723C149.573 51.4796 149.898 51.9108 150.222 52.3639C150.547 52.8179 150.771 53.3057 150.894 53.8283C151.466 53.6902 152.057 53.5213 152.669 53.3206C153.279 53.1209 153.886 52.8676 154.489 52.5596C155.092 52.2526 155.695 51.887 156.298 51.4637C156.901 51.0415 157.496 50.5378 158.083 49.9536C158.222 49.8155 158.362 49.738 158.501 49.7231C158.64 49.7082 158.756 49.727 158.848 49.7807C158.941 49.8343 158.991 49.9267 158.999 50.0579C159.007 50.189 158.941 50.3311 158.803 50.4841C158.246 51.1458 157.651 51.722 157.017 52.2138C156.383 52.7056 155.731 53.1328 155.057 53.4935C154.385 53.8551 153.697 54.1621 152.993 54.4165C152.29 54.6698 151.606 54.8815 150.941 55.0504C150.941 55.112 150.925 55.2193 150.895 55.3733C150.741 56.0041 150.505 56.5377 150.188 56.9758C149.872 57.414 149.519 57.7716 149.133 58.0478C148.747 58.325 148.345 58.5357 147.927 58.6817C147.51 58.8278 147.119 58.9311 146.757 58.9927C146.393 59.0543 146.08 59.0881 145.818 59.096C145.555 59.104 145.385 59.1079 145.307 59.1079C144.952 59.1079 144.639 59.0463 144.368 58.9231C144.097 58.7999 143.87 58.6539 143.684 58.485C143.498 58.3161 143.355 58.1353 143.255 57.9435C143.155 57.7508 143.104 57.5938 143.104 57.4706C143.104 56.7632 143.274 56.2178 143.615 55.8333C143.956 55.4488 144.423 55.1567 145.017 54.957C145.613 54.7573 146.312 54.6033 147.116 54.496C147.92 54.3887 148.786 54.2506 149.714 54.0807C149.497 53.42 149.219 52.8626 148.879 52.4086C148.538 51.9555 148.213 51.5442 147.905 51.1746C147.595 50.806 147.34 50.4444 147.139 50.0907C146.938 49.737 146.869 49.3336 146.931 48.8796C146.992 48.4265 147.224 47.8989 147.626 47.2998C148.027 46.6998 148.685 45.9626 149.597 45.0863V45.0873ZM145.191 57.8869C145.686 57.9634 146.173 57.9286 146.652 57.7836C147.13 57.6375 147.576 57.4338 147.985 57.1725C148.395 56.9112 148.751 56.6152 149.052 56.2843C149.354 55.9535 149.574 55.6346 149.714 55.3276C148.94 55.4965 148.218 55.6355 147.546 55.7428C146.874 55.8501 146.286 55.9654 145.784 56.0886C145.281 56.2118 144.887 56.3539 144.601 56.5148C144.315 56.6758 144.172 56.8874 144.172 57.1487C144.172 57.5481 144.513 57.7945 145.192 57.8869H145.191Z" fill="url(#paint20_linear_321_22)"/>
<path d="M84.9791 59.126C86.8882 61.0425 88.7962 62.959 90.7053 64.8765C86.9131 68.4622 83.121 72.0478 79.3288 75.6334L76.7115 74.2584L74.0881 75.6235L74.5956 72.7234L72.4797 70.6638L75.4098 70.2465L76.7254 67.6097C79.4767 64.7821 82.2279 61.9546 84.9791 59.128V59.126Z" fill="url(#paint21_linear_321_22)"/>
<path d="M90.7054 78.3643C88.7963 80.3017 86.8882 82.2391 84.9792 84.1765C82.8773 81.641 80.7754 79.1065 78.6735 76.571C77.9952 75.8 77.3169 75.0291 76.6386 74.2571L74.0152 75.6222L74.5227 72.7221L72.4069 70.6625L75.3369 70.2452L76.6526 67.6084C81.3368 71.194 86.0211 74.7797 90.7064 78.3653L90.7054 78.3643Z" fill="url(#paint22_linear_321_22)"/>
<path d="M62.6947 78.3643C64.6038 80.3017 66.5119 82.2391 68.4209 84.1765C70.5228 81.641 72.6247 79.1065 74.7266 76.571C75.4049 75.8 76.0832 75.0291 76.7615 74.2571L79.3849 75.6222L78.8774 72.7221L80.9932 70.6625L78.0632 70.2452L76.7475 67.6084C72.0633 71.194 67.379 74.7797 62.6937 78.3653L62.6947 78.3643Z" fill="url(#paint23_linear_321_22)"/>
<path d="M68.4579 59.126C66.5488 61.0425 64.6408 62.959 62.7317 64.8765C66.5239 68.4622 70.316 72.0478 74.1082 75.6334L76.7256 74.2584L79.3489 75.6235L78.8414 72.7234L80.9573 70.6638L78.0272 70.2465L76.7116 67.6097C73.9603 64.7821 71.2091 61.9546 68.4579 59.128V59.126Z" fill="url(#paint24_linear_321_22)"/>
<path d="M55.0774 71.5497C55.0774 73.804 56.9145 75.6311 59.1812 75.6321C64.1692 75.6321 69.1572 75.6321 74.1451 75.6321L76.7625 74.2571L79.3858 75.6222L78.8793 72.7221L80.9952 70.6625L78.0652 70.2452L76.7495 67.6084C70.8315 67.6213 64.9124 67.6342 58.9944 67.6471C56.8306 67.6521 55.0784 69.3977 55.0784 71.5507L55.0774 71.5497Z" fill="url(#paint25_linear_321_22)"/>
<path d="M98.3966 71.9322C98.3966 73.9749 96.7312 75.6321 94.6763 75.6321H79.3278L76.7105 74.2571L74.0871 75.6222L74.5946 72.7221L72.4788 70.6625L75.4088 70.2452L76.7245 67.6084C82.5146 67.6213 88.3048 67.6342 94.0949 67.6462C96.4715 67.6511 98.3956 69.5686 98.3956 71.9332L98.3966 71.9322Z" fill="url(#paint26_linear_321_22)"/>
<path d="M134.819 69.9624H18.2606C17.3988 69.9624 16.7002 70.6572 16.7002 71.5143V71.7269C16.7002 72.584 17.3988 73.2788 18.2606 73.2788H134.819C135.681 73.2788 136.379 72.584 136.379 71.7269V71.5143C136.379 70.6572 135.681 69.9624 134.819 69.9624Z" fill="url(#paint27_linear_321_22)"/>
<path d="M79.3288 75.6321L76.7115 74.2571L74.0881 75.6222L74.5946 72.7211L72.4788 70.6625L75.4088 70.2452L76.7245 67.6074L78.0292 70.2502L80.9582 70.6794L78.8343 72.7301L79.3288 75.6321Z" fill="url(#paint28_linear_321_22)"/>
<defs>
<radialGradient id="paint0_radial_321_22" cx="0" cy="0" r="1" gradientUnits="userSpaceOnUse" gradientTransform="translate(-47.7957 33.2355) scale(244.922 243.583)">
<stop stop-color="#323031"/>
<stop offset="0.03" stop-color="#595959"/>
<stop offset="0.06" stop-color="#7C7E7F"/>
<stop offset="0.08" stop-color="#9A9F9F"/>
<stop offset="0.11" stop-color="#B3BABA"/>
<stop offset="0.15" stop-color="#C8D0CF"/>
<stop offset="0.19" stop-color="#D7E1E0"/>
<stop offset="0.24" stop-color="#E2EDEC"/>
<stop offset="0.31" stop-color="#E9F4F3"/>
<stop offset="0.5" stop-color="#EBF6F5"/>
<stop offset="0.69" stop-color="#E9F4F3"/>
<stop offset="0.76" stop-color="#E2EDEC"/>
<stop offset="0.81" stop-color="#D7E1E0"/>
<stop offset="0.85" stop-color="#C8D0CF"/>
<stop offset="0.89" stop-color="#B3BABA"/>
<stop offset="0.92" stop-color="#9A9F9F"/>
<stop offset="0.94" stop-color="#7C7E7F"/>
<stop offset="0.97" stop-color="#595959"/>
<stop offset="0.99" stop-color="#323031"/>
<stop offset="1" stop-color="#231F20"/>
</radialGradient>
<radialGradient id="paint1_radial_321_22" cx="0" cy="0" r="1" gradientUnits="userSpaceOnUse" gradientTransform="translate(-47.7956 33.2353) scale(244.922 243.583)">
<stop stop-color="#323031"/>
<stop offset="0.03" stop-color="#595959"/>
<stop offset="0.06" stop-color="#7C7E7F"/>
<stop offset="0.08" stop-color="#9A9F9F"/>
<stop offset="0.11" stop-color="#B3BABA"/>
<stop offset="0.15" stop-color="#C8D0CF"/>
<stop offset="0.19" stop-color="#D7E1E0"/>
<stop offset="0.24" stop-color="#E2EDEC"/>
<stop offset="0.31" stop-color="#E9F4F3"/>
<stop offset="0.5" stop-color="#EBF6F5"/>
<stop offset="0.69" stop-color="#E9F4F3"/>
<stop offset="0.76" stop-color="#E2EDEC"/>
<stop offset="0.81" stop-color="#D7E1E0"/>
<stop offset="0.85" stop-color="#C8D0CF"/>
<stop offset="0.89" stop-color="#B3BABA"/>
<stop offset="0.92" stop-color="#9A9F9F"/>
<stop offset="0.94" stop-color="#7C7E7F"/>
<stop offset="0.97" stop-color="#595959"/>
<stop offset="0.99" stop-color="#323031"/>
<stop offset="1" stop-color="#231F20"/>
</radialGradient>
<radialGradient id="paint2_radial_321_22" cx="0" cy="0" r="1" gradientUnits="userSpaceOnUse" gradientTransform="translate(-47.7957 33.2355) scale(244.923 243.583)">
<stop stop-color="#323031"/>
<stop offset="0.03" stop-color="#595959"/>
<stop offset="0.06" stop-color="#7C7E7F"/>
<stop offset="0.08" stop-color="#9A9F9F"/>
<stop offset="0.11" stop-color="#B3BABA"/>
<stop offset="0.15" stop-color="#C8D0CF"/>
<stop offset="0.19" stop-color="#D7E1E0"/>
<stop offset="0.24" stop-color="#E2EDEC"/>
<stop offset="0.31" stop-color="#E9F4F3"/>
<stop offset="0.5" stop-color="#EBF6F5"/>
<stop offset="0.69" stop-color="#E9F4F3"/>
<stop offset="0.76" stop-color="#E2EDEC"/>
<stop offset="0.81" stop-color="#D7E1E0"/>
<stop offset="0.85" stop-color="#C8D0CF"/>
<stop offset="0.89" stop-color="#B3BABA"/>
<stop offset="0.92" stop-color="#9A9F9F"/>
<stop offset="0.94" stop-color="#7C7E7F"/>
<stop offset="0.97" stop-color="#595959"/>
<stop offset="0.99" stop-color="#323031"/>
<stop offset="1" stop-color="#231F20"/>
</radialGradient>
<radialGradient id="paint3_radial_321_22" cx="0" cy="0" r="1" gradientUnits="userSpaceOnUse" gradientTransform="translate(-47.7956 33.2353) scale(244.923 243.583)">
<stop stop-color="#323031"/>
<stop offset="0.03" stop-color="#595959"/>
<stop offset="0.06" stop-color="#7C7E7F"/>
<stop offset="0.08" stop-color="#9A9F9F"/>
<stop offset="0.11" stop-color="#B3BABA"/>
<stop offset="0.15" stop-color="#C8D0CF"/>
<stop offset="0.19" stop-color="#D7E1E0"/>
<stop offset="0.24" stop-color="#E2EDEC"/>
<stop offset="0.31" stop-color="#E9F4F3"/>
<stop offset="0.5" stop-color="#EBF6F5"/>
<stop offset="0.69" stop-color="#E9F4F3"/>
<stop offset="0.76" stop-color="#E2EDEC"/>
<stop offset="0.81" stop-color="#D7E1E0"/>
<stop offset="0.85" stop-color="#C8D0CF"/>
<stop offset="0.89" stop-color="#B3BABA"/>
<stop offset="0.92" stop-color="#9A9F9F"/>
<stop offset="0.94" stop-color="#7C7E7F"/>
<stop offset="0.97" stop-color="#595959"/>
<stop offset="0.99" stop-color="#323031"/>
<stop offset="1" stop-color="#231F20"/>
</radialGradient>
<radialGradient id="paint4_radial_321_22" cx="0" cy="0" r="1" gradientUnits="userSpaceOnUse" gradientTransform="translate(-47.7957 33.2354) scale(244.922 243.583)">
<stop stop-color="#323031"/>
<stop offset="0.03" stop-color="#595959"/>
<stop offset="0.06" stop-color="#7C7E7F"/>
<stop offset="0.08" stop-color="#9A9F9F"/>
<stop offset="0.11" stop-color="#B3BABA"/>
<stop offset="0.15" stop-color="#C8D0CF"/>
<stop offset="0.19" stop-color="#D7E1E0"/>
<stop offset="0.24" stop-color="#E2EDEC"/>
<stop offset="0.31" stop-color="#E9F4F3"/>
<stop offset="0.5" stop-color="#EBF6F5"/>
<stop offset="0.69" stop-color="#E9F4F3"/>
<stop offset="0.76" stop-color="#E2EDEC"/>
<stop offset="0.81" stop-color="#D7E1E0"/>
<stop offset="0.85" stop-color="#C8D0CF"/>
<stop offset="0.89" stop-color="#B3BABA"/>
<stop offset="0.92" stop-color="#9A9F9F"/>
<stop offset="0.94" stop-color="#7C7E7F"/>
<stop offset="0.97" stop-color="#595959"/>
<stop offset="0.99" stop-color="#323031"/>
<stop offset="1" stop-color="#231F20"/>
</radialGradient>
<radialGradient id="paint5_radial_321_22" cx="0" cy="0" r="1" gradientUnits="userSpaceOnUse" gradientTransform="translate(-47.7955 33.2358) scale(244.922 243.583)">
<stop stop-color="#323031"/>
<stop offset="0.03" stop-color="#595959"/>
<stop offset="0.06" stop-color="#7C7E7F"/>
<stop offset="0.08" stop-color="#9A9F9F"/>
<stop offset="0.11" stop-color="#B3BABA"/>
<stop offset="0.15" stop-color="#C8D0CF"/>
<stop offset="0.19" stop-color="#D7E1E0"/>
<stop offset="0.24" stop-color="#E2EDEC"/>
<stop offset="0.31" stop-color="#E9F4F3"/>
<stop offset="0.5" stop-color="#EBF6F5"/>
<stop offset="0.69" stop-color="#E9F4F3"/>
<stop offset="0.76" stop-color="#E2EDEC"/>
<stop offset="0.81" stop-color="#D7E1E0"/>
<stop offset="0.85" stop-color="#C8D0CF"/>
<stop offset="0.89" stop-color="#B3BABA"/>
<stop offset="0.92" stop-color="#9A9F9F"/>
<stop offset="0.94" stop-color="#7C7E7F"/>
<stop offset="0.97" stop-color="#595959"/>
<stop offset="0.99" stop-color="#323031"/>
<stop offset="1" stop-color="#231F20"/>
</radialGradient>
<radialGradient id="paint6_radial_321_22" cx="0" cy="0" r="1" gradientUnits="userSpaceOnUse" gradientTransform="translate(-47.7958 33.2355) scale(244.923 243.583)">
<stop stop-color="#323031"/>
<stop offset="0.03" stop-color="#595959"/>
<stop offset="0.06" stop-color="#7C7E7F"/>
<stop offset="0.08" stop-color="#9A9F9F"/>
<stop offset="0.11" stop-color="#B3BABA"/>
<stop offset="0.15" stop-color="#C8D0CF"/>
<stop offset="0.19" stop-color="#D7E1E0"/>
<stop offset="0.24" stop-color="#E2EDEC"/>
<stop offset="0.31" stop-color="#E9F4F3"/>
<stop offset="0.5" stop-color="#EBF6F5"/>
<stop offset="0.69" stop-color="#E9F4F3"/>
<stop offset="0.76" stop-color="#E2EDEC"/>
<stop offset="0.81" stop-color="#D7E1E0"/>
<stop offset="0.85" stop-color="#C8D0CF"/>
<stop offset="0.89" stop-color="#B3BABA"/>
<stop offset="0.92" stop-color="#9A9F9F"/>
<stop offset="0.94" stop-color="#7C7E7F"/>
<stop offset="0.97" stop-color="#595959"/>
<stop offset="0.99" stop-color="#323031"/>
<stop offset="1" stop-color="#231F20"/>
</radialGradient>
<radialGradient id="paint7_radial_321_22" cx="0" cy="0" r="1" gradientUnits="userSpaceOnUse" gradientTransform="translate(-47.7956 33.2355) scale(244.922 243.583)">
<stop stop-color="#323031"/>
<stop offset="0.03" stop-color="#595959"/>
<stop offset="0.06" stop-color="#7C7E7F"/>
<stop offset="0.08" stop-color="#9A9F9F"/>
<stop offset="0.11" stop-color="#B3BABA"/>
<stop offset="0.15" stop-color="#C8D0CF"/>
<stop offset="0.19" stop-color="#D7E1E0"/>
<stop offset="0.24" stop-color="#E2EDEC"/>
<stop offset="0.31" stop-color="#E9F4F3"/>
<stop offset="0.5" stop-color="#EBF6F5"/>
<stop offset="0.69" stop-color="#E9F4F3"/>
<stop offset="0.76" stop-color="#E2EDEC"/>
<stop offset="0.81" stop-color="#D7E1E0"/>
<stop offset="0.85" stop-color="#C8D0CF"/>
<stop offset="0.89" stop-color="#B3BABA"/>
<stop offset="0.92" stop-color="#9A9F9F"/>
<stop offset="0.94" stop-color="#7C7E7F"/>
<stop offset="0.97" stop-color="#595959"/>
<stop offset="0.99" stop-color="#323031"/>
<stop offset="1" stop-color="#231F20"/>
</radialGradient>
<radialGradient id="paint8_radial_321_22" cx="0" cy="0" r="1" gradientUnits="userSpaceOnUse" gradientTransform="translate(-47.7955 33.2355) scale(244.922 243.583)">
<stop stop-color="#323031"/>
<stop offset="0.03" stop-color="#595959"/>
<stop offset="0.06" stop-color="#7C7E7F"/>
<stop offset="0.08" stop-color="#9A9F9F"/>
<stop offset="0.11" stop-color="#B3BABA"/>
<stop offset="0.15" stop-color="#C8D0CF"/>
<stop offset="0.19" stop-color="#D7E1E0"/>
<stop offset="0.24" stop-color="#E2EDEC"/>
<stop offset="0.31" stop-color="#E9F4F3"/>
<stop offset="0.5" stop-color="#EBF6F5"/>
<stop offset="0.69" stop-color="#E9F4F3"/>
<stop offset="0.76" stop-color="#E2EDEC"/>
<stop offset="0.81" stop-color="#D7E1E0"/>
<stop offset="0.85" stop-color="#C8D0CF"/>
<stop offset="0.89" stop-color="#B3BABA"/>
<stop offset="0.92" stop-color="#9A9F9F"/>
<stop offset="0.94" stop-color="#7C7E7F"/>
<stop offset="0.97" stop-color="#595959"/>
<stop offset="0.99" stop-color="#323031"/>
<stop offset="1" stop-color="#231F20"/>
</radialGradient>
<radialGradient id="paint9_radial_321_22" cx="0" cy="0" r="1" gradientUnits="userSpaceOnUse" gradientTransform="translate(-47.7956 33.2353) scale(244.923 243.583)">
<stop stop-color="#323031"/>
<stop offset="0.03" stop-color="#595959"/>
<stop offset="0.06" stop-color="#7C7E7F"/>
<stop offset="0.08" stop-color="#9A9F9F"/>
<stop offset="0.11" stop-color="#B3BABA"/>
<stop offset="0.15" stop-color="#C8D0CF"/>
<stop offset="0.19" stop-color="#D7E1E0"/>
<stop offset="0.24" stop-color="#E2EDEC"/>
<stop offset="0.31" stop-color="#E9F4F3"/>
<stop offset="0.5" stop-color="#EBF6F5"/>
<stop offset="0.69" stop-color="#E9F4F3"/>
<stop offset="0.76" stop-color="#E2EDEC"/>
<stop offset="0.81" stop-color="#D7E1E0"/>
<stop offset="0.85" stop-color="#C8D0CF"/>
<stop offset="0.89" stop-color="#B3BABA"/>
<stop offset="0.92" stop-color="#9A9F9F"/>
<stop offset="0.94" stop-color="#7C7E7F"/>
<stop offset="0.97" stop-color="#595959"/>
<stop offset="0.99" stop-color="#323031"/>
<stop offset="1" stop-color="#231F20"/>
</radialGradient>
<linearGradient id="paint10_linear_321_22" x1="-37.0325" y1="71.8612" x2="176.206" y2="24.4408" gradientUnits="userSpaceOnUse">
<stop stop-color="#323031"/>
<stop offset="0.03" stop-color="#595959"/>
<stop offset="0.06" stop-color="#7C7E7F"/>
<stop offset="0.09" stop-color="#9A9F9F"/>
<stop offset="0.12" stop-color="#B3BABA"/>
<stop offset="0.15" stop-color="#C8D0CF"/>
<stop offset="0.19" stop-color="#D7E1E0"/>
<stop offset="0.25" stop-color="#E2EDEC"/>
<stop offset="0.32" stop-color="#E9F4F3"/>
<stop offset="0.52" stop-color="#EBF6F5"/>
<stop offset="0.7" stop-color="#E9F4F3"/>
<stop offset="0.77" stop-color="#E2EDEC"/>
<stop offset="0.82" stop-color="#D7E1E0"/>
<stop offset="0.86" stop-color="#C8D0CF"/>
<stop offset="0.89" stop-color="#B3BABA"/>
<stop offset="0.92" stop-color="#9A9F9F"/>
<stop offset="0.95" stop-color="#7C7E7F"/>
<stop offset="0.97" stop-color="#595959"/>
<stop offset="0.99" stop-color="#323031"/>
<stop offset="1" stop-color="#231F20"/>
</linearGradient>
<linearGradient id="paint11_linear_321_22" x1="-37.0324" y1="71.861" x2="176.206" y2="24.4406" gradientUnits="userSpaceOnUse">
<stop stop-color="#323031"/>
<stop offset="0.03" stop-color="#595959"/>
<stop offset="0.06" stop-color="#7C7E7F"/>
<stop offset="0.09" stop-color="#9A9F9F"/>
<stop offset="0.12" stop-color="#B3BABA"/>
<stop offset="0.15" stop-color="#C8D0CF"/>
<stop offset="0.19" stop-color="#D7E1E0"/>
<stop offset="0.25" stop-color="#E2EDEC"/>
<stop offset="0.32" stop-color="#E9F4F3"/>
<stop offset="0.52" stop-color="#EBF6F5"/>
<stop offset="0.7" stop-color="#E9F4F3"/>
<stop offset="0.77" stop-color="#E2EDEC"/>
<stop offset="0.82" stop-color="#D7E1E0"/>
<stop offset="0.86" stop-color="#C8D0CF"/>
<stop offset="0.89" stop-color="#B3BABA"/>
<stop offset="0.92" stop-color="#9A9F9F"/>
<stop offset="0.95" stop-color="#7C7E7F"/>
<stop offset="0.97" stop-color="#595959"/>
<stop offset="0.99" stop-color="#323031"/>
<stop offset="1" stop-color="#231F20"/>
</linearGradient>
<linearGradient id="paint12_linear_321_22" x1="-37.0326" y1="71.8609" x2="176.206" y2="24.4405" gradientUnits="userSpaceOnUse">
<stop stop-color="#323031"/>
<stop offset="0.03" stop-color="#595959"/>
<stop offset="0.06" stop-color="#7C7E7F"/>
<stop offset="0.09" stop-color="#9A9F9F"/>
<stop offset="0.12" stop-color="#B3BABA"/>
<stop offset="0.15" stop-color="#C8D0CF"/>
<stop offset="0.19" stop-color="#D7E1E0"/>
<stop offset="0.25" stop-color="#E2EDEC"/>
<stop offset="0.32" stop-color="#E9F4F3"/>
<stop offset="0.52" stop-color="#EBF6F5"/>
<stop offset="0.7" stop-color="#E9F4F3"/>
<stop offset="0.77" stop-color="#E2EDEC"/>
<stop offset="0.82" stop-color="#D7E1E0"/>
<stop offset="0.86" stop-color="#C8D0CF"/>
<stop offset="0.89" stop-color="#B3BABA"/>
<stop offset="0.92" stop-color="#9A9F9F"/>
<stop offset="0.95" stop-color="#7C7E7F"/>
<stop offset="0.97" stop-color="#595959"/>
<stop offset="0.99" stop-color="#323031"/>
<stop offset="1" stop-color="#231F20"/>
</linearGradient>
<linearGradient id="paint13_linear_321_22" x1="-37.0325" y1="71.8608" x2="176.206" y2="24.4404" gradientUnits="userSpaceOnUse">
<stop stop-color="#323031"/>
<stop offset="0.03" stop-color="#595959"/>
<stop offset="0.06" stop-color="#7C7E7F"/>
<stop offset="0.09" stop-color="#9A9F9F"/>
<stop offset="0.12" stop-color="#B3BABA"/>
<stop offset="0.15" stop-color="#C8D0CF"/>
<stop offset="0.19" stop-color="#D7E1E0"/>
<stop offset="0.25" stop-color="#E2EDEC"/>
<stop offset="0.32" stop-color="#E9F4F3"/>
<stop offset="0.52" stop-color="#EBF6F5"/>
<stop offset="0.7" stop-color="#E9F4F3"/>
<stop offset="0.77" stop-color="#E2EDEC"/>
<stop offset="0.82" stop-color="#D7E1E0"/>
<stop offset="0.86" stop-color="#C8D0CF"/>
<stop offset="0.89" stop-color="#B3BABA"/>
<stop offset="0.92" stop-color="#9A9F9F"/>
<stop offset="0.95" stop-color="#7C7E7F"/>
<stop offset="0.97" stop-color="#595959"/>
<stop offset="0.99" stop-color="#323031"/>
<stop offset="1" stop-color="#231F20"/>
</linearGradient>
<linearGradient id="paint14_linear_321_22" x1="-37.0325" y1="71.8608" x2="176.206" y2="24.4405" gradientUnits="userSpaceOnUse">
<stop stop-color="#323031"/>
<stop offset="0.03" stop-color="#595959"/>
<stop offset="0.06" stop-color="#7C7E7F"/>
<stop offset="0.09" stop-color="#9A9F9F"/>
<stop offset="0.12" stop-color="#B3BABA"/>
<stop offset="0.15" stop-color="#C8D0CF"/>
<stop offset="0.19" stop-color="#D7E1E0"/>
<stop offset="0.25" stop-color="#E2EDEC"/>
<stop offset="0.32" stop-color="#E9F4F3"/>
<stop offset="0.52" stop-color="#EBF6F5"/>
<stop offset="0.7" stop-color="#E9F4F3"/>
<stop offset="0.77" stop-color="#E2EDEC"/>
<stop offset="0.82" stop-color="#D7E1E0"/>
<stop offset="0.86" stop-color="#C8D0CF"/>
<stop offset="0.89" stop-color="#B3BABA"/>
<stop offset="0.92" stop-color="#9A9F9F"/>
<stop offset="0.95" stop-color="#7C7E7F"/>
<stop offset="0.97" stop-color="#595959"/>
<stop offset="0.99" stop-color="#323031"/>
<stop offset="1" stop-color="#231F20"/>
</linearGradient>
<linearGradient id="paint15_linear_321_22" x1="-37.0326" y1="71.8609" x2="176.206" y2="24.4405" gradientUnits="userSpaceOnUse">
<stop stop-color="#323031"/>
<stop offset="0.03" stop-color="#595959"/>
<stop offset="0.06" stop-color="#7C7E7F"/>
<stop offset="0.09" stop-color="#9A9F9F"/>
<stop offset="0.12" stop-color="#B3BABA"/>
<stop offset="0.15" stop-color="#C8D0CF"/>
<stop offset="0.19" stop-color="#D7E1E0"/>
<stop offset="0.25" stop-color="#E2EDEC"/>
<stop offset="0.32" stop-color="#E9F4F3"/>
<stop offset="0.52" stop-color="#EBF6F5"/>
<stop offset="0.7" stop-color="#E9F4F3"/>
<stop offset="0.77" stop-color="#E2EDEC"/>
<stop offset="0.82" stop-color="#D7E1E0"/>
<stop offset="0.86" stop-color="#C8D0CF"/>
<stop offset="0.89" stop-color="#B3BABA"/>
<stop offset="0.92" stop-color="#9A9F9F"/>
<stop offset="0.95" stop-color="#7C7E7F"/>
<stop offset="0.97" stop-color="#595959"/>
<stop offset="0.99" stop-color="#323031"/>
<stop offset="1" stop-color="#231F20"/>
</linearGradient>
<linearGradient id="paint16_linear_321_22" x1="-37.0325" y1="71.8609" x2="176.206" y2="24.4405" gradientUnits="userSpaceOnUse">
<stop stop-color="#323031"/>
<stop offset="0.03" stop-color="#595959"/>
<stop offset="0.06" stop-color="#7C7E7F"/>
<stop offset="0.09" stop-color="#9A9F9F"/>
<stop offset="0.12" stop-color="#B3BABA"/>
<stop offset="0.15" stop-color="#C8D0CF"/>
<stop offset="0.19" stop-color="#D7E1E0"/>
<stop offset="0.25" stop-color="#E2EDEC"/>
<stop offset="0.32" stop-color="#E9F4F3"/>
<stop offset="0.52" stop-color="#EBF6F5"/>
<stop offset="0.7" stop-color="#E9F4F3"/>
<stop offset="0.77" stop-color="#E2EDEC"/>
<stop offset="0.82" stop-color="#D7E1E0"/>
<stop offset="0.86" stop-color="#C8D0CF"/>
<stop offset="0.89" stop-color="#B3BABA"/>
<stop offset="0.92" stop-color="#9A9F9F"/>
<stop offset="0.95" stop-color="#7C7E7F"/>
<stop offset="0.97" stop-color="#595959"/>
<stop offset="0.99" stop-color="#323031"/>
<stop offset="1" stop-color="#231F20"/>
</linearGradient>
<linearGradient id="paint17_linear_321_22" x1="-37.0326" y1="71.8611" x2="176.206" y2="24.4407" gradientUnits="userSpaceOnUse">
<stop stop-color="#323031"/>
<stop offset="0.03" stop-color="#595959"/>
<stop offset="0.06" stop-color="#7C7E7F"/>
<stop offset="0.09" stop-color="#9A9F9F"/>
<stop offset="0.12" stop-color="#B3BABA"/>
<stop offset="0.15" stop-color="#C8D0CF"/>
<stop offset="0.19" stop-color="#D7E1E0"/>
<stop offset="0.25" stop-color="#E2EDEC"/>
<stop offset="0.32" stop-color="#E9F4F3"/>
<stop offset="0.52" stop-color="#EBF6F5"/>
<stop offset="0.7" stop-color="#E9F4F3"/>
<stop offset="0.77" stop-color="#E2EDEC"/>
<stop offset="0.82" stop-color="#D7E1E0"/>
<stop offset="0.86" stop-color="#C8D0CF"/>
<stop offset="0.89" stop-color="#B3BABA"/>
<stop offset="0.92" stop-color="#9A9F9F"/>
<stop offset="0.95" stop-color="#7C7E7F"/>
<stop offset="0.97" stop-color="#595959"/>
<stop offset="0.99" stop-color="#323031"/>
<stop offset="1" stop-color="#231F20"/>
</linearGradient>
<linearGradient id="paint18_linear_321_22" x1="-37.0325" y1="71.861" x2="176.206" y2="24.4406" gradientUnits="userSpaceOnUse">
<stop stop-color="#323031"/>
<stop offset="0.03" stop-color="#595959"/>
<stop offset="0.06" stop-color="#7C7E7F"/>
<stop offset="0.09" stop-color="#9A9F9F"/>
<stop offset="0.12" stop-color="#B3BABA"/>
<stop offset="0.15" stop-color="#C8D0CF"/>
<stop offset="0.19" stop-color="#D7E1E0"/>
<stop offset="0.25" stop-color="#E2EDEC"/>
<stop offset="0.32" stop-color="#E9F4F3"/>
<stop offset="0.52" stop-color="#EBF6F5"/>
<stop offset="0.7" stop-color="#E9F4F3"/>
<stop offset="0.77" stop-color="#E2EDEC"/>
<stop offset="0.82" stop-color="#D7E1E0"/>
<stop offset="0.86" stop-color="#C8D0CF"/>
<stop offset="0.89" stop-color="#B3BABA"/>
<stop offset="0.92" stop-color="#9A9F9F"/>
<stop offset="0.95" stop-color="#7C7E7F"/>
<stop offset="0.97" stop-color="#595959"/>
<stop offset="0.99" stop-color="#323031"/>
<stop offset="1" stop-color="#231F20"/>
</linearGradient>
<linearGradient id="paint19_linear_321_22" x1="-37.0325" y1="71.861" x2="176.206" y2="24.4406" gradientUnits="userSpaceOnUse">
<stop stop-color="#323031"/>
<stop offset="0.03" stop-color="#595959"/>
<stop offset="0.06" stop-color="#7C7E7F"/>
<stop offset="0.09" stop-color="#9A9F9F"/>
<stop offset="0.12" stop-color="#B3BABA"/>
<stop offset="0.15" stop-color="#C8D0CF"/>
<stop offset="0.19" stop-color="#D7E1E0"/>
<stop offset="0.25" stop-color="#E2EDEC"/>
<stop offset="0.32" stop-color="#E9F4F3"/>
<stop offset="0.52" stop-color="#EBF6F5"/>
<stop offset="0.7" stop-color="#E9F4F3"/>
<stop offset="0.77" stop-color="#E2EDEC"/>
<stop offset="0.82" stop-color="#D7E1E0"/>
<stop offset="0.86" stop-color="#C8D0CF"/>
<stop offset="0.89" stop-color="#B3BABA"/>
<stop offset="0.92" stop-color="#9A9F9F"/>
<stop offset="0.95" stop-color="#7C7E7F"/>
<stop offset="0.97" stop-color="#595959"/>
<stop offset="0.99" stop-color="#323031"/>
<stop offset="1" stop-color="#231F20"/>
</linearGradient>
<linearGradient id="paint20_linear_321_22" x1="-37.0326" y1="71.8608" x2="176.206" y2="24.4405" gradientUnits="userSpaceOnUse">
<stop stop-color="#323031"/>
<stop offset="0.03" stop-color="#595959"/>
<stop offset="0.06" stop-color="#7C7E7F"/>
<stop offset="0.09" stop-color="#9A9F9F"/>
<stop offset="0.12" stop-color="#B3BABA"/>
<stop offset="0.15" stop-color="#C8D0CF"/>
<stop offset="0.19" stop-color="#D7E1E0"/>
<stop offset="0.25" stop-color="#E2EDEC"/>
<stop offset="0.32" stop-color="#E9F4F3"/>
<stop offset="0.52" stop-color="#EBF6F5"/>
<stop offset="0.7" stop-color="#E9F4F3"/>
<stop offset="0.77" stop-color="#E2EDEC"/>
<stop offset="0.82" stop-color="#D7E1E0"/>
<stop offset="0.86" stop-color="#C8D0CF"/>
<stop offset="0.89" stop-color="#B3BABA"/>
<stop offset="0.92" stop-color="#9A9F9F"/>
<stop offset="0.95" stop-color="#7C7E7F"/>
<stop offset="0.97" stop-color="#595959"/>
<stop offset="0.99" stop-color="#323031"/>
<stop offset="1" stop-color="#231F20"/>
</linearGradient>
<linearGradient id="paint21_linear_321_22" x1="73.217" y1="74.5485" x2="177.572" y2="-10.092" gradientUnits="userSpaceOnUse">
<stop offset="0.04" stop-color="#AE8625"/>
<stop offset="0.13" stop-color="#D0B754"/>
<stop offset="0.23" stop-color="#F7EF8A"/>
<stop offset="0.3" stop-color="#D2AC47"/>
<stop offset="0.45" stop-color="#D4AE49"/>
<stop offset="0.54" stop-color="#EDC967"/>
<stop offset="0.55" stop-color="#EDC967"/>
<stop offset="0.68" stop-color="#EDC967"/>
<stop offset="0.73" stop-color="#F7EF8A"/>
</linearGradient>
<linearGradient id="paint22_linear_321_22" x1="76.7415" y1="78.9843" x2="136.332" y2="30.6517" gradientUnits="userSpaceOnUse">
<stop offset="0.04" stop-color="#AE8625"/>
<stop offset="0.13" stop-color="#D0B754"/>
<stop offset="0.23" stop-color="#F7EF8A"/>
<stop offset="0.3" stop-color="#D2AC47"/>
<stop offset="0.45" stop-color="#D4AE49"/>
<stop offset="0.54" stop-color="#EDC967"/>
<stop offset="0.55" stop-color="#EDC967"/>
<stop offset="0.68" stop-color="#EDC967"/>
<stop offset="0.73" stop-color="#F7EF8A"/>
</linearGradient>
<linearGradient id="paint23_linear_321_22" x1="76.6586" y1="78.9843" x2="17.0681" y2="30.6517" gradientUnits="userSpaceOnUse">
<stop offset="0.04" stop-color="#AE8625"/>
<stop offset="0.13" stop-color="#D0B754"/>
<stop offset="0.23" stop-color="#F7EF8A"/>
<stop offset="0.3" stop-color="#D2AC47"/>
<stop offset="0.45" stop-color="#D4AE49"/>
<stop offset="0.54" stop-color="#EDC967"/>
<stop offset="0.55" stop-color="#EDC967"/>
<stop offset="0.68" stop-color="#EDC967"/>
<stop offset="0.73" stop-color="#F7EF8A"/>
</linearGradient>
<linearGradient id="paint24_linear_321_22" x1="80.22" y1="74.5485" x2="-24.1355" y2="-10.092" gradientUnits="userSpaceOnUse">
<stop offset="0.04" stop-color="#AE8625"/>
<stop offset="0.13" stop-color="#D0B754"/>
<stop offset="0.23" stop-color="#F7EF8A"/>
<stop offset="0.3" stop-color="#D2AC47"/>
<stop offset="0.45" stop-color="#D4AE49"/>
<stop offset="0.54" stop-color="#EDC967"/>
<stop offset="0.55" stop-color="#EDC967"/>
<stop offset="0.68" stop-color="#EDC967"/>
<stop offset="0.73" stop-color="#F7EF8A"/>
</linearGradient>
<linearGradient id="paint25_linear_321_22" x1="76.6516" y1="78.9932" x2="-41.6929" y2="-16.9938" gradientUnits="userSpaceOnUse">
<stop offset="0.04" stop-color="#AE8625"/>
<stop offset="0.13" stop-color="#D0B754"/>
<stop offset="0.23" stop-color="#F7EF8A"/>
<stop offset="0.3" stop-color="#D2AC47"/>
<stop offset="0.45" stop-color="#D4AE49"/>
<stop offset="0.54" stop-color="#EDC967"/>
<stop offset="0.55" stop-color="#EDC967"/>
<stop offset="0.68" stop-color="#EDC967"/>
<stop offset="0.73" stop-color="#F7EF8A"/>
</linearGradient>
<linearGradient id="paint26_linear_321_22" x1="76.8723" y1="79.0538" x2="194.391" y2="-16.2631" gradientUnits="userSpaceOnUse">
<stop offset="0.04" stop-color="#AE8625"/>
<stop offset="0.13" stop-color="#D0B754"/>
<stop offset="0.23" stop-color="#F7EF8A"/>
<stop offset="0.3" stop-color="#D2AC47"/>
<stop offset="0.45" stop-color="#D4AE49"/>
<stop offset="0.54" stop-color="#EDC967"/>
<stop offset="0.55" stop-color="#EDC967"/>
<stop offset="0.68" stop-color="#EDC967"/>
<stop offset="0.73" stop-color="#F7EF8A"/>
</linearGradient>
<linearGradient id="paint27_linear_321_22" x1="36.8418" y1="103.468" x2="243.05" y2="-63.7846" gradientUnits="userSpaceOnUse">
<stop offset="0.04" stop-color="#AE8625"/>
<stop offset="0.13" stop-color="#D0B754"/>
<stop offset="0.23" stop-color="#F7EF8A"/>
<stop offset="0.3" stop-color="#D2AC47"/>
<stop offset="0.45" stop-color="#D4AE49"/>
<stop offset="0.54" stop-color="#EDC967"/>
<stop offset="0.55" stop-color="#EDC967"/>
<stop offset="0.68" stop-color="#EDC967"/>
<stop offset="0.73" stop-color="#F7EF8A"/>
</linearGradient>
<linearGradient id="paint28_linear_321_22" x1="73.5757" y1="75.0142" x2="114.257" y2="42.0197" gradientUnits="userSpaceOnUse">
<stop offset="0.04" stop-color="#AE8625"/>
<stop offset="0.13" stop-color="#D0B754"/>
<stop offset="0.23" stop-color="#F7EF8A"/>
<stop offset="0.3" stop-color="#D2AC47"/>
<stop offset="0.45" stop-color="#D4AE49"/>
<stop offset="0.54" stop-color="#EDC967"/>
<stop offset="0.55" stop-color="#EDC967"/>
<stop offset="0.68" stop-color="#EDC967"/>
<stop offset="0.73" stop-color="#F7EF8A"/>
</linearGradient>
</defs>
</svg>
